MerriweatherSans-Regular.ufo
<glyph name="exclam" format="2">
  <advance width="595"/>
  <unicode hex="0021"/>
  <outline>
    <contour>
      <point x="204" y="503" type="line"/>
      <point x="406" y="503" type="line"/>
      <point x="432" y="1738" type="line"/>
      <point x="173" y="1738" type="line"/>
    </contour>
    <contour>
      <point x="289" y="-22" type="curve" smooth="yes"/>
      <point x="378" y="-22"/>
      <point x="456" y="56"/>
      <point x="454" y="156" type="curve" smooth="yes"/>
      <point x="453" y="239"/>
      <point x="401" y="310"/>
      <point x="304" y="310" type="curve" smooth="yes"/>
      <point x="219" y="310"/>
      <point x="137" y="230"/>
      <point x="140" y="133" type="curve" smooth="yes"/>
      <point x="142" y="45"/>
      <point x="208" y="-22"/>
    </contour>
  </outline>
</glyph>
<glyph name="numbersign" format="2">
  <advance width="1478"/>
  <unicode hex="0023"/>
  <outline>
    <contour>
      <point x="324" y="0" type="line"/>
      <point x="518" y="0" type="line"/>
      <point x="644" y="1340" type="line"/>
      <point x="446" y="1340" type="line"/>
    </contour>
    <contour>
      <point x="818" y="0" type="line"/>
      <point x="1010" y="0" type="line"/>
      <point x="1136" y="1340" type="line"/>
      <point x="938" y="1340" type="line"/>
    </contour>
    <contour>
      <point x="1318" y="856" type="line"/>
      <point x="1318" y="1012" type="line"/>
      <point x="194" y="1012" type="line"/>
      <point x="194" y="856" type="line"/>
    </contour>
    <contour>
      <point x="1274" y="342" type="line"/>
      <point x="1274" y="504" type="line"/>
      <point x="160" y="504" type="line"/>
      <point x="160" y="342" type="line"/>
    </contour>
  </outline>
</glyph>
<glyph name="dollar" format="2">
  <advance width="1346"/>
  <unicode hex="0024"/>
  <outline>
    <contour>
      <point x="615" y="1463" type="line"/>
      <point x="778" y="1463" type="line"/>
      <point x="781" y="1720" type="line"/>
      <point x="618" y="1720" type="line"/>
    </contour>
    <contour>
      <point x="573" y="-230" type="line"/>
      <point x="737" y="-230" type="line"/>
      <point x="740" y="22" type="line"/>
      <point x="576" y="22" type="line"/>
    </contour>
    <component base="S" xOffset="100"/>
  </outline>
</glyph>
<glyph name="percent" format="2">
  <advance width="1955"/>
  <unicode hex="0025"/>
  <outline>
    <contour>
      <point x="430" y="643" type="curve" smooth="yes"/>
      <point x="630" y="647"/>
      <point x="812" y="791"/>
      <point x="812" y="1057" type="curve" smooth="yes"/>
      <point x="812" y="1286"/>
      <point x="706" y="1470"/>
      <point x="460" y="1465" type="curve" smooth="yes"/>
      <point x="261" y="1461"/>
      <point x="79" y="1315"/>
      <point x="79" y="1049" type="curve" smooth="yes"/>
      <point x="79" y="829"/>
      <point x="205" y="640"/>
    </contour>
    <contour>
      <point x="565" y="0" type="line"/>
      <point x="760" y="0" type="line"/>
      <point x="1384" y="1494" type="line"/>
      <point x="1189" y="1494" type="line"/>
    </contour>
    <contour>
      <point x="444" y="794" type="curve" smooth="yes"/>
      <point x="339" y="794"/>
      <point x="278" y="906"/>
      <point x="278" y="1057" type="curve" smooth="yes"/>
      <point x="278" y="1216"/>
      <point x="339" y="1314"/>
      <point x="448" y="1314" type="curve" smooth="yes"/>
      <point x="553" y="1314"/>
      <point x="613" y="1209"/>
      <point x="613" y="1049" type="curve" smooth="yes"/>
      <point x="613" y="891"/>
      <point x="553" y="794"/>
    </contour>
    <contour>
      <point x="1495" y="43" type="curve" smooth="yes"/>
      <point x="1695" y="47"/>
      <point x="1876" y="191"/>
      <point x="1876" y="457" type="curve" smooth="yes"/>
      <point x="1876" y="684"/>
      <point x="1770" y="870"/>
      <point x="1525" y="865" type="curve" smooth="yes"/>
      <point x="1325" y="860"/>
      <point x="1143" y="713"/>
      <point x="1143" y="449" type="curve" smooth="yes"/>
      <point x="1143" y="228"/>
      <point x="1269" y="38"/>
    </contour>
    <contour>
      <point x="1509" y="194" type="curve" smooth="yes"/>
      <point x="1404" y="194"/>
      <point x="1342" y="306"/>
      <point x="1342" y="458" type="curve" smooth="yes"/>
      <point x="1342" y="616"/>
      <point x="1404" y="714"/>
      <point x="1513" y="714" type="curve" smooth="yes"/>
      <point x="1618" y="714"/>
      <point x="1677" y="609"/>
      <point x="1677" y="449" type="curve" smooth="yes"/>
      <point x="1677" y="291"/>
      <point x="1618" y="194"/>
    </contour>
  </outline>
</glyph>
<glyph name="ampersand" format="2">
  <advance width="1498"/>
  <unicode hex="0026"/>
  <outline>
    <contour>
      <point x="943" y="207" type="curve"/>
      <point x="874" y="179"/>
      <point x="813" y="153"/>
      <point x="713" y="153" type="curve" smooth="yes"/>
      <point x="444" y="153"/>
      <point x="351" y="268"/>
      <point x="351" y="393" type="curve" smooth="yes"/>
      <point x="351" y="510"/>
      <point x="450" y="600"/>
      <point x="593" y="660" type="curve"/>
      <point x="612" y="667"/>
      <point x="672" y="684"/>
      <point x="691" y="692" type="curve"/>
      <point x="918" y="791"/>
      <point x="1058" y="913"/>
      <point x="1058" y="1170" type="curve" smooth="yes"/>
      <point x="1058" y="1348"/>
      <point x="919" y="1510"/>
      <point x="685" y="1510" type="curve" smooth="yes"/>
      <point x="436" y="1510"/>
      <point x="276" y="1376"/>
      <point x="276" y="1156" type="curve" smooth="yes"/>
      <point x="276" y="967"/>
      <point x="394" y="828"/>
      <point x="483" y="708" type="curve"/>
      <point x="510" y="672" type="line"/>
      <point x="610" y="534"/>
      <point x="818" y="258"/>
      <point x="942" y="132" type="curve" smooth="yes"/>
      <point x="1057" y="34"/>
      <point x="1141" y="-16"/>
      <point x="1284" y="-16" type="curve" smooth="yes"/>
      <point x="1336" y="-16"/>
      <point x="1375" y="-8"/>
      <point x="1402" y="0" type="curve"/>
      <point x="1402" y="119" type="line"/>
      <point x="1278" y="130"/>
      <point x="1203" y="158"/>
      <point x="1092" y="262" type="curve" smooth="yes"/>
      <point x="989" y="367"/>
      <point x="779" y="638"/>
      <point x="711" y="738" type="curve"/>
      <point x="679" y="778" type="line"/>
      <point x="549" y="970"/>
      <point x="489" y="1006"/>
      <point x="489" y="1162" type="curve" smooth="yes"/>
      <point x="489" y="1293"/>
      <point x="578" y="1349"/>
      <point x="682" y="1349" type="curve" smooth="yes"/>
      <point x="806" y="1349"/>
      <point x="864" y="1244"/>
      <point x="864" y="1167" type="curve" smooth="yes"/>
      <point x="864" y="972"/>
      <point x="746" y="880"/>
      <point x="560" y="816" type="curve"/>
      <point x="549" y="812"/>
      <point x="507" y="800"/>
      <point x="498" y="796" type="curve"/>
      <point x="300" y="718"/>
      <point x="134" y="588"/>
      <point x="134" y="385" type="curve" smooth="yes"/>
      <point x="134" y="120"/>
      <point x="370" y="-16"/>
      <point x="731" y="-16" type="curve" smooth="yes"/>
      <point x="862" y="-16"/>
      <point x="1009" y="38"/>
      <point x="1093" y="94" type="curve"/>
      <point x="1108" y="102"/>
      <point x="1121" y="125"/>
      <point x="1133" y="136" type="curve"/>
      <point x="1257" y="214"/>
      <point x="1329" y="340"/>
      <point x="1329" y="519" type="curve" smooth="yes"/>
      <point x="1329" y="612"/>
      <point x="1310" y="682"/>
      <point x="1303" y="715" type="curve"/>
      <point x="1103" y="715" type="line"/>
      <point x="1111" y="689"/>
      <point x="1134" y="611"/>
      <point x="1134" y="520" type="curve" smooth="yes"/>
      <point x="1134" y="387"/>
      <point x="1079" y="305"/>
      <point x="992" y="251" type="curve"/>
      <point x="981" y="240"/>
      <point x="969" y="223"/>
    </contour>
  </outline>
</glyph>
<glyph name="quotesingle" format="2">
  <advance width="748"/>
  <unicode hex="0027"/>
  <outline>
    <contour>
      <point x="284" y="924" type="line"/>
      <point x="466" y="924" type="line"/>
      <point x="498" y="1646" type="line"/>
      <point x="249" y="1646" type="line"/>
    </contour>
  </outline>
</glyph>
<glyph name="asterisk" format="2">
  <advance width="1204"/>
  <unicode hex="002A"/>
  <outline>
    <contour>
      <point x="511" y="624" type="line"/>
      <point x="706" y="624" type="line"/>
      <point x="683" y="886" type="line"/>
      <point x="681" y="898"/>
      <point x="646" y="1044"/>
      <point x="644" y="1052" type="curve"/>
      <point x="774" y="939" type="line"/>
      <point x="988" y="796" type="line"/>
      <point x="1088" y="969" type="line"/>
      <point x="852" y="1083" type="line"/>
      <point x="689" y="1131" type="line"/>
      <point x="852" y="1185" type="line"/>
      <point x="1082" y="1305" type="line"/>
      <point x="987" y="1470" type="line"/>
      <point x="767" y="1325" type="line"/>
      <point x="758" y="1318"/>
      <point x="650" y="1213"/>
      <point x="644" y="1208" type="curve"/>
      <point x="679" y="1375" type="line"/>
      <point x="692" y="1635" type="line"/>
      <point x="498" y="1635" type="line"/>
      <point x="517" y="1371" type="line"/>
      <point x="520" y="1358"/>
      <point x="556" y="1213"/>
      <point x="557" y="1206" type="curve"/>
      <point x="429" y="1319" type="line"/>
      <point x="211" y="1464" type="line"/>
      <point x="116" y="1295" type="line"/>
      <point x="348" y="1177" type="line"/>
      <point x="360" y="1173"/>
      <point x="506" y="1134"/>
      <point x="513" y="1129" type="curve"/>
      <point x="350" y="1079" type="line"/>
      <point x="120" y="955" type="line"/>
      <point x="218" y="788" type="line"/>
      <point x="433" y="933" type="line"/>
      <point x="559" y="1054" type="line"/>
      <point x="523" y="886" type="line"/>
    </contour>
  </outline>
</glyph>
<glyph name="plus" format="2">
  <advance width="1362"/>
  <unicode hex="002B"/>
  <outline>
    <contour>
      <point x="587" y="274" type="line"/>
      <point x="773" y="274" type="line"/>
      <point x="773" y="500" type="line"/>
      <point x="765" y="671" type="line"/>
      <point x="905" y="663" type="line"/>
      <point x="1141" y="663" type="line"/>
      <point x="1141" y="847" type="line"/>
      <point x="905" y="847" type="line"/>
      <point x="765" y="838" type="line"/>
      <point x="773" y="1009" type="line"/>
      <point x="773" y="1229" type="line"/>
      <point x="587" y="1229" type="line"/>
      <point x="587" y="1009" type="line"/>
      <point x="595" y="838" type="line"/>
      <point x="433" y="847" type="line"/>
      <point x="221" y="847" type="line"/>
      <point x="221" y="663" type="line"/>
      <point x="433" y="663" type="line"/>
      <point x="595" y="671" type="line"/>
      <point x="587" y="500" type="line"/>
    </contour>
  </outline>
</glyph>
<glyph name="comma" format="2">
  <advance width="604"/>
  <unicode hex="002C"/>
  <outline>
    <contour>
      <point x="152" y="-398" type="line"/>
      <point x="230" y="-489" type="line"/>
      <point x="371" y="-437"/>
      <point x="492" y="-262"/>
      <point x="492" y="-47" type="curve" smooth="yes"/>
      <point x="492" y="66"/>
      <point x="440" y="219"/>
      <point x="307" y="269" type="curve"/>
      <point x="157" y="140" type="line"/>
      <point x="157" y="75" type="line"/>
      <point x="216" y="68"/>
      <point x="276" y="-40"/>
      <point x="276" y="-124" type="curve" smooth="yes"/>
      <point x="276" y="-233"/>
      <point x="221" y="-337"/>
      <point x="152" y="-374" type="curve"/>
    </contour>
  </outline>
</glyph>
<glyph name="hyphen" format="2">
  <advance width="1190"/>
  <unicode hex="002D"/>
  <outline>
    <contour>
      <point x="180" y="560" type="line"/>
      <point x="1010" y="560" type="line"/>
      <point x="1010" y="746" type="line"/>
      <point x="180" y="746" type="line"/>
    </contour>
  </outline>
</glyph>
<glyph name="period" format="2">
  <advance width="595"/>
  <unicode hex="002E"/>
  <outline>
    <contour>
      <point x="290" y="-22" type="curve" smooth="yes"/>
      <point x="378" y="-22"/>
      <point x="458" y="56"/>
      <point x="454" y="156" type="curve" smooth="yes"/>
      <point x="453" y="239"/>
      <point x="401" y="310"/>
      <point x="304" y="310" type="curve" smooth="yes"/>
      <point x="219" y="310"/>
      <point x="138" y="230"/>
      <point x="140" y="133" type="curve" smooth="yes"/>
      <point x="142" y="45"/>
      <point x="210" y="-22"/>
    </contour>
  </outline>
</glyph>
<glyph name="zero" format="2">
  <advance width="1364"/>
  <unicode hex="0030"/>
  <outline>
    <contour>
      <point x="675" y="-16" type="curve" smooth="yes"/>
      <point x="1003" y="-16"/>
      <point x="1221" y="297"/>
      <point x="1225" y="757" type="curve" smooth="yes"/>
      <point x="1228" y="1167"/>
      <point x="1098" y="1507"/>
      <point x="699" y="1507" type="curve" smooth="yes"/>
      <point x="381" y="1507"/>
      <point x="144" y="1218"/>
      <point x="138" y="765" type="curve" smooth="yes"/>
      <point x="132" y="357"/>
      <point x="282" y="-16"/>
    </contour>
    <contour>
      <point x="682" y="194" type="curve" smooth="yes"/>
      <point x="476" y="200"/>
      <point x="383" y="462"/>
      <point x="383" y="773" type="curve" smooth="yes"/>
      <point x="383" y="1108"/>
      <point x="488" y="1296"/>
      <point x="686" y="1296" type="curve" smooth="yes"/>
      <point x="892" y="1296"/>
      <point x="982" y="1064"/>
      <point x="982" y="745" type="curve" smooth="yes"/>
      <point x="982" y="379"/>
      <point x="882" y="190"/>
    </contour>
  </outline>
</glyph>
<glyph name="one" format="2">
  <advance width="894"/>
  <unicode hex="0031"/>
  <outline>
    <contour>
      <point x="356" y="0" type="line"/>
      <point x="594" y="0" type="line"/>
      <point x="594" y="1488" type="line"/>
      <point x="488" y="1506" type="line"/>
      <point x="430" y="1454"/>
      <point x="238" y="1350"/>
      <point x="110" y="1314" type="curve"/>
      <point x="136" y="1176" type="line"/>
      <point x="210" y="1190"/>
      <point x="280" y="1208"/>
      <point x="356" y="1228" type="curve"/>
    </contour>
  </outline>
</glyph>
<glyph name="two" format="2">
  <advance width="1235"/>
  <unicode hex="0032"/>
  <outline>
    <contour>
      <point x="160" y="0" type="line" name="hr00"/>
      <point x="1110" y="0" type="line"/>
      <point x="1110" y="195" type="line"/>
      <point x="486" y="186" type="line"/>
      <point x="819" y="417"/>
      <point x="1053" y="742"/>
      <point x="1053" y="1043" type="curve" smooth="yes"/>
      <point x="1053" y="1297"/>
      <point x="913" y="1498"/>
      <point x="595" y="1498" type="curve" smooth="yes"/>
      <point x="369" y="1498"/>
      <point x="207" y="1389"/>
      <point x="130" y="1307" type="curve"/>
      <point x="227" y="1168" type="line"/>
      <point x="297" y="1242"/>
      <point x="421" y="1307"/>
      <point x="557" y="1307" type="curve" smooth="yes"/>
      <point x="715" y="1307"/>
      <point x="809" y="1209"/>
      <point x="809" y="1031" type="curve" smooth="yes"/>
      <point x="809" y="704"/>
      <point x="436" y="326"/>
      <point x="125" y="118" type="curve"/>
    </contour>
  </outline>
</glyph>
<glyph name="three" format="2">
  <advance width="1124"/>
  <unicode hex="0033"/>
  <outline>
    <contour>
      <point x="145" y="4" type="line"/>
      <point x="209" y="-8"/>
      <point x="280" y="-20"/>
      <point x="358" y="-20" type="curve" smooth="yes"/>
      <point x="769" y="-20"/>
      <point x="1022" y="197"/>
      <point x="1022" y="438" type="curve" smooth="yes"/>
      <point x="1022" y="623"/>
      <point x="879" y="801"/>
      <point x="609" y="798" type="curve"/>
      <point x="609" y="769" type="line"/>
      <point x="787" y="829"/>
      <point x="942" y="969"/>
      <point x="942" y="1160" type="curve" smooth="yes"/>
      <point x="942" y="1384"/>
      <point x="753" y="1504"/>
      <point x="509" y="1504" type="curve" smooth="yes"/>
      <point x="336" y="1504"/>
      <point x="170" y="1415"/>
      <point x="97" y="1353" type="curve"/>
      <point x="182" y="1219" type="line"/>
      <point x="251" y="1268"/>
      <point x="346" y="1322"/>
      <point x="487" y="1322" type="curve" smooth="yes"/>
      <point x="615" y="1322"/>
      <point x="714" y="1268"/>
      <point x="712" y="1130" type="curve" smooth="yes"/>
      <point x="710" y="1025"/>
      <point x="630" y="934"/>
      <point x="495" y="878" type="curve" smooth="yes"/>
      <point x="439" y="854"/>
      <point x="374" y="833"/>
      <point x="306" y="820" type="curve"/>
      <point x="351" y="664" type="line"/>
      <point x="448" y="688" type="line"/>
      <point x="688" y="704"/>
      <point x="783" y="590"/>
      <point x="783" y="424" type="curve" smooth="yes"/>
      <point x="783" y="259"/>
      <point x="589" y="144"/>
      <point x="307" y="144" type="curve" smooth="yes"/>
      <point x="256" y="144"/>
      <point x="198" y="151"/>
      <point x="143" y="161" type="curve"/>
    </contour>
  </outline>
</glyph>
<glyph name="four" format="2">
  <advance width="1350"/>
  <unicode hex="0034"/>
  <outline>
    <contour>
      <point x="164" y="292" type="line"/>
      <point x="1262" y="292" type="line"/>
      <point x="1262" y="469" type="line"/>
      <point x="362" y="469" type="line"/>
      <point x="446" y="613" type="line"/>
      <point x="598" y="901"/>
      <point x="682" y="1134"/>
      <point x="833" y="1421" type="curve"/>
      <point x="681" y="1510" type="line"/>
      <point x="606" y="1510" type="line"/>
      <point x="419" y="1122"/>
      <point x="298" y="788"/>
      <point x="108" y="399" type="curve"/>
    </contour>
    <contour>
      <point x="806" y="0" type="line"/>
      <point x="1036" y="0" type="line"/>
      <point x="1036" y="963" type="line"/>
      <point x="828" y="963" type="line"/>
      <point x="806" y="483" type="line"/>
    </contour>
  </outline>
</glyph>
<glyph name="five" format="2">
  <advance width="1192"/>
  <unicode hex="0035"/>
  <outline>
    <contour>
      <point x="302" y="-22" type="curve" smooth="yes"/>
      <point x="784" y="-22"/>
      <point x="1048" y="260"/>
      <point x="1048" y="522" type="curve" smooth="yes"/>
      <point x="1048" y="790"/>
      <point x="896" y="942"/>
      <point x="608" y="942" type="curve" smooth="yes"/>
      <point x="540" y="942"/>
      <point x="464" y="930"/>
      <point x="380" y="912" type="curve"/>
      <point x="418" y="1288" type="line"/>
      <point x="986" y="1288" type="line"/>
      <point x="1008" y="1486" type="line"/>
      <point x="242" y="1486" type="line"/>
      <point x="186" y="750" type="line"/>
      <point x="234" y="720" type="line"/>
      <point x="332" y="750"/>
      <point x="424" y="770"/>
      <point x="502" y="770" type="curve" smooth="yes"/>
      <point x="722" y="770"/>
      <point x="814" y="694"/>
      <point x="814" y="508" type="curve" smooth="yes"/>
      <point x="814" y="304"/>
      <point x="574" y="144"/>
      <point x="244" y="144" type="curve" smooth="yes"/>
      <point x="224" y="144"/>
      <point x="200" y="146"/>
      <point x="180" y="146" type="curve"/>
      <point x="180" y="-10" type="line"/>
      <point x="214" y="-20"/>
      <point x="270" y="-22"/>
    </contour>
  </outline>
</glyph>
<glyph name="six" format="2">
  <advance width="1347"/>
  <unicode hex="0036"/>
  <outline>
    <contour>
      <point x="150" y="560" type="curve" smooth="yes"/>
      <point x="150" y="249"/>
      <point x="340" y="-16"/>
      <point x="661" y="-16" type="curve" smooth="yes"/>
      <point x="1021" y="-16"/>
      <point x="1193" y="249"/>
      <point x="1193" y="532" type="curve" smooth="yes"/>
      <point x="1193" y="768"/>
      <point x="1049" y="969"/>
      <point x="794" y="969" type="curve" smooth="yes"/>
      <point x="656" y="969"/>
      <point x="554" y="919"/>
      <point x="518" y="884" type="curve"/>
      <point x="577" y="747" type="line"/>
      <point x="606" y="766"/>
      <point x="668" y="791"/>
      <point x="745" y="791" type="curve" smooth="yes"/>
      <point x="855" y="791"/>
      <point x="959" y="722"/>
      <point x="959" y="484" type="curve" smooth="yes"/>
      <point x="959" y="308"/>
      <point x="871" y="145"/>
      <point x="689" y="145" type="curve" smooth="yes"/>
      <point x="454" y="145"/>
      <point x="393" y="384"/>
      <point x="401" y="655" type="curve" smooth="yes"/>
      <point x="410" y="964"/>
      <point x="660" y="1299"/>
      <point x="1029" y="1398" type="curve"/>
      <point x="968" y="1544" type="line"/>
      <point x="600" y="1475"/>
      <point x="150" y="1097"/>
    </contour>
  </outline>
</glyph>
<glyph name="seven" format="2">
  <advance width="1220"/>
  <unicode hex="0037"/>
  <outline>
    <contour>
      <point x="337" y="0" type="curve"/>
      <point x="600" y="0" type="line"/>
      <point x="1126" y="1419" type="line"/>
      <point x="1075" y="1487" type="line"/>
      <point x="140" y="1487" type="line"/>
      <point x="139" y="1296" type="line"/>
      <point x="870" y="1294" type="line"/>
      <point x="712" y="877"/>
      <point x="542" y="430"/>
    </contour>
  </outline>
</glyph>
<glyph name="eight" format="2">
  <advance width="1288"/>
  <unicode hex="0038"/>
  <outline>
    <contour>
      <point x="654" y="-16" type="curve" smooth="yes"/>
      <point x="924" y="-16"/>
      <point x="1154" y="112"/>
      <point x="1152" y="384" type="curve" smooth="yes"/>
      <point x="1148" y="778"/>
      <point x="406" y="820"/>
      <point x="406" y="1156" type="curve" smooth="yes"/>
      <point x="406" y="1276"/>
      <point x="512" y="1348"/>
      <point x="646" y="1348" type="curve" smooth="yes"/>
      <point x="796" y="1348"/>
      <point x="886" y="1264"/>
      <point x="880" y="1140" type="curve" smooth="yes"/>
      <point x="876" y="1020"/>
      <point x="810" y="894"/>
      <point x="658" y="846" type="curve"/>
      <point x="776" y="748" type="line"/>
      <point x="998" y="834"/>
      <point x="1092" y="1018"/>
      <point x="1092" y="1166" type="curve" smooth="yes"/>
      <point x="1092" y="1370"/>
      <point x="916" y="1508"/>
      <point x="654" y="1508" type="curve" smooth="yes"/>
      <point x="396" y="1508"/>
      <point x="192" y="1380"/>
      <point x="192" y="1142" type="curve" smooth="yes"/>
      <point x="192" y="664"/>
      <point x="922" y="682"/>
      <point x="922" y="356" type="curve" smooth="yes"/>
      <point x="922" y="216"/>
      <point x="792" y="144"/>
      <point x="660" y="144" type="curve" smooth="yes"/>
      <point x="452" y="144"/>
      <point x="356" y="234"/>
      <point x="356" y="384" type="curve" smooth="yes"/>
      <point x="356" y="522"/>
      <point x="466" y="638"/>
      <point x="616" y="690" type="curve"/>
      <point x="490" y="786" type="line"/>
      <point x="234" y="680"/>
      <point x="136" y="512"/>
      <point x="136" y="368" type="curve" smooth="yes"/>
      <point x="136" y="88"/>
      <point x="394" y="-16"/>
    </contour>
  </outline>
</glyph>
<glyph name="nine" format="2">
  <advance width="1371"/>
  <unicode hex="0039"/>
  <outline>
    <contour>
      <point x="165" y="970" type="curve" smooth="yes"/>
      <point x="165" y="730"/>
      <point x="310" y="511"/>
      <point x="569" y="511" type="curve" smooth="yes"/>
      <point x="722" y="511"/>
      <point x="813" y="560"/>
      <point x="845" y="596" type="curve"/>
      <point x="794" y="727" type="line"/>
      <point x="757" y="710"/>
      <point x="721" y="689"/>
      <point x="629" y="689" type="curve" smooth="yes"/>
      <point x="496" y="689"/>
      <point x="397" y="807"/>
      <point x="397" y="1043" type="curve" smooth="yes"/>
      <point x="397" y="1195"/>
      <point x="501" y="1342"/>
      <point x="664" y="1342" type="curve" smooth="yes"/>
      <point x="891" y="1342"/>
      <point x="961" y="1123"/>
      <point x="954" y="834" type="curve" smooth="yes"/>
      <point x="946" y="539"/>
      <point x="687" y="124"/>
      <point x="286" y="24" type="curve"/>
      <point x="359" y="-116" type="line"/>
      <point x="731" y="-43"/>
      <point x="1200" y="363"/>
      <point x="1200" y="930" type="curve"/>
      <point x="1200" y="1242"/>
      <point x="1027" y="1507"/>
      <point x="696" y="1507" type="curve" smooth="yes"/>
      <point x="357" y="1507"/>
      <point x="165" y="1286"/>
    </contour>
  </outline>
</glyph>
<glyph name="less" format="2">
  <advance width="1338"/>
  <unicode hex="003C"/>
  <outline>
    <contour>
      <point x="169" y="680" type="line"/>
      <point x="1110" y="242" type="line"/>
      <point x="1110" y="459" type="line"/>
      <point x="394" y="767" type="line"/>
      <point x="394" y="743" type="line"/>
      <point x="1110" y="1060" type="line"/>
      <point x="1110" y="1272" type="line"/>
      <point x="169" y="830" type="line"/>
    </contour>
  </outline>
</glyph>
<glyph name="equal" format="2">
  <advance width="1370"/>
  <unicode hex="003D"/>
  <outline>
    <contour>
      <point x="238" y="922" type="line"/>
      <point x="1132" y="922" type="line"/>
      <point x="1132" y="1094" type="line"/>
      <point x="238" y="1094" type="line"/>
    </contour>
    <contour>
      <point x="238" y="418" type="line"/>
      <point x="1132" y="418" type="line"/>
      <point x="1132" y="589" type="line"/>
      <point x="238" y="589" type="line"/>
    </contour>
  </outline>
</glyph>
<glyph name="question" format="2">
  <advance width="1040"/>
  <unicode hex="003F"/>
  <outline>
    <contour>
      <point x="351" y="484" type="curve"/>
      <point x="526" y="484" type="line"/>
      <point x="499" y="580"/>
      <point x="476" y="638"/>
      <point x="485" y="725" type="curve" smooth="yes"/>
      <point x="500" y="913"/>
      <point x="870" y="947"/>
      <point x="911" y="1249" type="curve" smooth="yes"/>
      <point x="960" y="1524"/>
      <point x="804" y="1797"/>
      <point x="340" y="1797" type="curve" smooth="yes"/>
      <point x="237" y="1797"/>
      <point x="144" y="1771"/>
      <point x="119" y="1754" type="curve"/>
      <point x="119" y="1586" type="line"/>
      <point x="144" y="1592"/>
      <point x="199" y="1605"/>
      <point x="299" y="1605" type="curve" smooth="yes"/>
      <point x="578" y="1605"/>
      <point x="731" y="1473"/>
      <point x="678" y="1238" type="curve" smooth="yes"/>
      <point x="652" y="1049"/>
      <point x="258" y="981"/>
      <point x="265" y="753" type="curve" smooth="yes"/>
      <point x="269" y="636"/>
      <point x="308" y="538"/>
    </contour>
    <contour>
      <point x="465" y="-22" type="curve" smooth="yes"/>
      <point x="551" y="-22"/>
      <point x="630" y="53"/>
      <point x="627" y="150" type="curve" smooth="yes"/>
      <point x="625" y="229"/>
      <point x="574" y="297"/>
      <point x="481" y="297" type="curve" smooth="yes"/>
      <point x="399" y="297"/>
      <point x="319" y="219"/>
      <point x="321" y="129" type="curve" smooth="yes"/>
      <point x="323" y="42"/>
      <point x="391" y="-22"/>
    </contour>
  </outline>
</glyph>
<glyph name="at" format="2">
  <advance width="2088"/>
  <unicode hex="0040"/>
  <outline>
    <contour>
      <point x="984" y="-464" type="curve" smooth="yes"/>
      <point x="1182" y="-464"/>
      <point x="1364" y="-414"/>
      <point x="1450" y="-360" type="curve"/>
      <point x="1412" y="-228" type="line"/>
      <point x="1342" y="-264"/>
      <point x="1208" y="-316"/>
      <point x="1004" y="-316" type="curve" smooth="yes"/>
      <point x="654" y="-316"/>
      <point x="318" y="-122"/>
      <point x="318" y="434" type="curve" smooth="yes"/>
      <point x="318" y="986"/>
      <point x="688" y="1358"/>
      <point x="1128" y="1358" type="curve" smooth="yes"/>
      <point x="1458" y="1358"/>
      <point x="1730" y="1246"/>
      <point x="1730" y="774" type="curve" smooth="yes"/>
      <point x="1730" y="426"/>
      <point x="1546" y="158"/>
      <point x="1402" y="158" type="curve" smooth="yes"/>
      <point x="1356" y="158"/>
      <point x="1356" y="248"/>
      <point x="1382" y="424" type="curve" smooth="yes"/>
      <point x="1412" y="610"/>
      <point x="1470" y="876"/>
      <point x="1506" y="1018" type="curve"/>
      <point x="1336" y="986" type="line"/>
      <point x="1280" y="1026"/>
      <point x="1192" y="1040"/>
      <point x="1108" y="1040" type="curve" smooth="yes"/>
      <point x="730" y="1040"/>
      <point x="564" y="696"/>
      <point x="558" y="426" type="curve" smooth="yes"/>
      <point x="552" y="132"/>
      <point x="704" y="-4"/>
      <point x="836" y="-4" type="curve" smooth="yes"/>
      <point x="1052" y="-4"/>
      <point x="1212" y="278"/>
      <point x="1294" y="520" type="curve"/>
      <point x="1290" y="520"/>
      <point x="1248" y="520"/>
      <point x="1244" y="520" type="curve"/>
      <point x="1192" y="338"/>
      <point x="1188" y="240"/>
      <point x="1194" y="178" type="curve" smooth="yes"/>
      <point x="1202" y="60"/>
      <point x="1248" y="-4"/>
      <point x="1348" y="-4" type="curve" smooth="yes"/>
      <point x="1626" y="-4"/>
      <point x="1908" y="290"/>
      <point x="1908" y="808" type="curve" smooth="yes"/>
      <point x="1908" y="1258"/>
      <point x="1602" y="1506"/>
      <point x="1162" y="1506" type="curve" smooth="yes"/>
      <point x="588" y="1506"/>
      <point x="140" y="1074"/>
      <point x="140" y="416" type="curve" smooth="yes"/>
      <point x="140" y="-182"/>
      <point x="514" y="-464"/>
    </contour>
    <contour>
      <point x="884" y="176" type="curve" smooth="yes"/>
      <point x="786" y="176"/>
      <point x="746" y="292"/>
      <point x="752" y="462" type="curve" smooth="yes"/>
      <point x="758" y="660"/>
      <point x="878" y="886"/>
      <point x="1088" y="886" type="curve" smooth="yes"/>
      <point x="1148" y="886"/>
      <point x="1226" y="868"/>
      <point x="1258" y="818" type="curve"/>
      <point x="1228" y="594"/>
      <point x="1020" y="176"/>
    </contour>
  </outline>
</glyph>
<glyph name="A" format="2">
  <advance width="1376"/>
  <unicode hex="0041"/>
  <anchor x="689" y="0" name="bottom"/>
  <anchor x="664" y="-166" name="btm"/>
  <anchor x="1363" y="0" name="ogonek"/>
  <anchor x="687" y="1660" name="top"/>
  <outline>
    <contour>
      <point x="262" y="0" type="line"/>
      <point x="651" y="1117" type="line"/>
      <point x="695" y="1260" type="line"/>
      <point x="737" y="1117" type="line"/>
      <point x="1108" y="0" type="line"/>
      <point x="1363" y="0" type="line"/>
      <point x="807" y="1502" type="line"/>
      <point x="578" y="1502" type="line"/>
      <point x="14" y="0" type="line"/>
    </contour>
    <contour>
      <point x="294" y="365" type="line"/>
      <point x="1058" y="365" type="line"/>
      <point x="1016" y="538" type="line"/>
      <point x="334" y="538" type="line"/>
    </contour>
  </outline>
</glyph>
<glyph name="B" format="2">
  <advance width="1322"/>
  <unicode hex="0042"/>
  <anchor x="661" y="0" name="bottom"/>
  <anchor x="710" y="-166" name="btm"/>
  <anchor x="652" y="1660" name="top"/>
  <outline>
    <contour>
      <point x="189" y="0" type="line"/>
      <point x="305" y="0" type="line"/>
      <point x="377" y="-4"/>
      <point x="516" y="-14"/>
      <point x="632" y="-14" type="curve" smooth="yes"/>
      <point x="1095" y="-14"/>
      <point x="1234" y="177"/>
      <point x="1234" y="447" type="curve" smooth="yes"/>
      <point x="1234" y="630"/>
      <point x="1093" y="791"/>
      <point x="912" y="802" type="curve"/>
      <point x="1070" y="843"/>
      <point x="1138" y="1005"/>
      <point x="1138" y="1146" type="curve" smooth="yes"/>
      <point x="1138" y="1359"/>
      <point x="983" y="1500"/>
      <point x="641" y="1500" type="curve" smooth="yes"/>
      <point x="495" y="1500"/>
      <point x="396" y="1486"/>
      <point x="299" y="1486" type="curve"/>
      <point x="189" y="1488" type="line"/>
    </contour>
    <contour>
      <point x="421" y="851" type="curve"/>
      <point x="421" y="1321" type="line"/>
      <point x="448" y="1331"/>
      <point x="565" y="1335"/>
      <point x="602" y="1335" type="curve" smooth="yes"/>
      <point x="800" y="1335"/>
      <point x="911" y="1265"/>
      <point x="911" y="1114" type="curve" smooth="yes"/>
      <point x="911" y="933"/>
      <point x="812" y="846"/>
      <point x="676" y="846" type="curve" smooth="yes"/>
      <point x="605" y="846"/>
      <point x="493" y="840"/>
    </contour>
    <contour>
      <point x="421" y="177" type="curve"/>
      <point x="421" y="676" type="line"/>
      <point x="476" y="684"/>
      <point x="586" y="681"/>
      <point x="662" y="681" type="curve" smooth="yes"/>
      <point x="891" y="681"/>
      <point x="997" y="603"/>
      <point x="997" y="423" type="curve" smooth="yes"/>
      <point x="997" y="221"/>
      <point x="869" y="154"/>
      <point x="654" y="154" type="curve" smooth="yes"/>
      <point x="583" y="154"/>
      <point x="454" y="156"/>
    </contour>
  </outline>
</glyph>
<glyph name="C" format="2">
  <advance width="1280"/>
  <unicode hex="0043"/>
  <anchor x="771" y="0" name="bottom"/>
  <anchor x="771" y="-166" name="btm"/>
  <anchor x="782" y="1660" name="top"/>
  <outline>
    <contour>
      <point x="93" y="737" type="curve" smooth="yes"/>
      <point x="93" y="287"/>
      <point x="369" y="-16"/>
      <point x="796" y="-16" type="curve" smooth="yes"/>
      <point x="979" y="-16"/>
      <point x="1084" y="28"/>
      <point x="1170" y="62" type="curve"/>
      <point x="1170" y="260" type="line"/>
      <point x="1118" y="216"/>
      <point x="956" y="168"/>
      <point x="808" y="168" type="curve" smooth="yes"/>
      <point x="509" y="168"/>
      <point x="328" y="411"/>
      <point x="328" y="751" type="curve" smooth="yes"/>
      <point x="328" y="1097"/>
      <point x="514" y="1314"/>
      <point x="803" y="1314" type="curve" smooth="yes"/>
      <point x="1023" y="1314"/>
      <point x="1114" y="1256"/>
      <point x="1147" y="1237" type="curve"/>
      <point x="1181" y="1446" type="line"/>
      <point x="1121" y="1459"/>
      <point x="1012" y="1502"/>
      <point x="788" y="1502" type="curve" smooth="yes"/>
      <point x="417" y="1502"/>
      <point x="93" y="1229"/>
    </contour>
  </outline>
</glyph>
<glyph name="D" format="2">
  <advance width="1440"/>
  <unicode hex="0044"/>
  <anchor x="716" y="0" name="bottom"/>
  <anchor x="636" y="-166" name="btm"/>
  <anchor x="716" y="744" name="center"/>
  <anchor x="706" y="1660" name="top"/>
  <outline>
    <contour>
      <point x="176" y="0" type="line"/>
      <point x="208" y="0"/>
      <point x="240" y="0"/>
      <point x="272" y="0" type="curve" smooth="yes"/>
      <point x="374" y="0"/>
      <point x="516" y="-14"/>
      <point x="622" y="-16" type="curve" smooth="yes"/>
      <point x="1072" y="-24"/>
      <point x="1356" y="278"/>
      <point x="1356" y="786" type="curve" smooth="yes"/>
      <point x="1356" y="1238"/>
      <point x="1128" y="1502"/>
      <point x="646" y="1502" type="curve" smooth="yes"/>
      <point x="514" y="1502"/>
      <point x="386" y="1486"/>
      <point x="292" y="1486" type="curve" smooth="yes"/>
      <point x="254" y="1486"/>
      <point x="216" y="1486"/>
      <point x="176" y="1486" type="curve"/>
    </contour>
    <contour>
      <point x="412" y="178" type="curve"/>
      <point x="412" y="1316" type="line"/>
      <point x="454" y="1324"/>
      <point x="522" y="1330"/>
      <point x="600" y="1330" type="curve" smooth="yes"/>
      <point x="938" y="1330"/>
      <point x="1110" y="1182"/>
      <point x="1110" y="752" type="curve" smooth="yes"/>
      <point x="1110" y="336"/>
      <point x="922" y="164"/>
      <point x="656" y="160" type="curve" smooth="yes"/>
      <point x="574" y="158"/>
      <point x="476" y="164"/>
    </contour>
  </outline>
</glyph>
<glyph name="E" format="2">
  <advance width="1182"/>
  <unicode hex="0045"/>
  <anchor x="644" y="0" name="bottom"/>
  <anchor x="644" y="-166" name="btm"/>
  <anchor x="1110" y="0" name="ogonek"/>
  <anchor x="630" y="1660" name="top"/>
  <anchor x="28" y="1486" name="topleft"/>
  <outline>
    <contour>
      <point x="176" y="0" type="line"/>
      <point x="1110" y="0" type="line"/>
      <point x="1110" y="184" type="line"/>
      <point x="412" y="184" type="line"/>
      <point x="412" y="676" type="line"/>
      <point x="878" y="676" type="line"/>
      <point x="878" y="854" type="line"/>
      <point x="412" y="854" type="line"/>
      <point x="412" y="1306" type="line"/>
      <point x="1040" y="1306" type="line"/>
      <point x="1040" y="1486" type="line"/>
      <point x="176" y="1486" type="line"/>
    </contour>
  </outline>
</glyph>
<glyph name="F" format="2">
  <advance width="1056"/>
  <unicode hex="0046"/>
  <anchor x="524" y="0" name="bottom"/>
  <anchor x="656" y="-166" name="btm"/>
  <anchor x="648" y="1660" name="top"/>
  <outline>
    <contour>
      <point x="176" y="0" type="line"/>
      <point x="412" y="0" type="line"/>
      <point x="412" y="656" type="line"/>
      <point x="880" y="656" type="line"/>
      <point x="880" y="836" type="line"/>
      <point x="412" y="836" type="line"/>
      <point x="412" y="1306" type="line"/>
      <point x="1038" y="1306" type="line"/>
      <point x="1038" y="1486" type="line"/>
      <point x="176" y="1486" type="line"/>
    </contour>
  </outline>
</glyph>
<glyph name="G" format="2">
  <advance width="1410"/>
  <unicode hex="0047"/>
  <anchor x="705" y="0" name="bottom"/>
  <anchor x="788" y="-166" name="btm"/>
  <anchor x="794" y="1660" name="top"/>
  <outline>
    <contour>
      <point x="96" y="736" type="curve" smooth="yes"/>
      <point x="96" y="301"/>
      <point x="348" y="-16"/>
      <point x="790" y="-16" type="curve" smooth="yes"/>
      <point x="1093" y="-16"/>
      <point x="1209" y="86"/>
      <point x="1296" y="91" type="curve"/>
      <point x="1296" y="754" type="line"/>
      <point x="808" y="754" type="line"/>
      <point x="808" y="583" type="line"/>
      <point x="1129" y="569" type="line"/>
      <point x="1070" y="610" type="line"/>
      <point x="1070" y="216" type="line"/>
      <point x="1014" y="180"/>
      <point x="892" y="163"/>
      <point x="784" y="163" type="curve" smooth="yes"/>
      <point x="480" y="163"/>
      <point x="339" y="426"/>
      <point x="339" y="762" type="curve" smooth="yes"/>
      <point x="339" y="1113"/>
      <point x="524" y="1318"/>
      <point x="784" y="1318" type="curve" smooth="yes"/>
      <point x="1002" y="1318"/>
      <point x="1107" y="1283"/>
      <point x="1202" y="1235" type="curve"/>
      <point x="1212" y="1444" type="line"/>
      <point x="1082" y="1468"/>
      <point x="1018" y="1502"/>
      <point x="795" y="1502" type="curve" smooth="yes"/>
      <point x="406" y="1502"/>
      <point x="96" y="1250"/>
    </contour>
  </outline>
</glyph>
<glyph name="H" format="2">
  <advance width="1500"/>
  <unicode hex="0048"/>
  <anchor x="750" y="0" name="bottom"/>
  <anchor x="742" y="-166" name="btm"/>
  <anchor x="750" y="744" name="center"/>
  <anchor x="750" y="1660" name="top"/>
  <anchor x="28" y="1486" name="topleft"/>
  <outline>
    <contour>
      <point x="176" y="0" type="line"/>
      <point x="412" y="0" type="line"/>
      <point x="412" y="660" type="line"/>
      <point x="1090" y="660" type="line"/>
      <point x="1090" y="0" type="line"/>
      <point x="1324" y="0" type="line"/>
      <point x="1324" y="1486" type="line"/>
      <point x="1090" y="1486" type="line"/>
      <point x="1090" y="840" type="line"/>
      <point x="412" y="840" type="line"/>
      <point x="412" y="1486" type="line"/>
      <point x="176" y="1486" type="line"/>
    </contour>
  </outline>
</glyph>
<glyph name="I" format="2">
  <advance width="640"/>
  <unicode hex="0049"/>
  <anchor x="321" y="0" name="bottom"/>
  <anchor x="326" y="-166" name="btm"/>
  <anchor x="519" y="20" name="ogonek"/>
  <anchor x="321" y="1660" name="top"/>
  <anchor x="40" y="1486" name="topleft"/>
  <outline>
    <contour>
      <point x="201" y="0" type="line"/>
      <point x="437" y="0" type="line"/>
      <point x="437" y="1486" type="line"/>
      <point x="201" y="1486" type="line"/>
    </contour>
  </outline>
</glyph>
<glyph name="J" format="2">
  <advance width="711"/>
  <unicode hex="004A"/>
  <anchor x="355" y="0" name="bottom"/>
  <anchor x="263" y="-166" name="btm"/>
  <anchor x="378" y="1660" name="top"/>
  <outline>
    <contour>
      <point x="33" y="-324" type="line"/>
      <point x="197" y="-302"/>
      <point x="435" y="-173"/>
      <point x="482" y="85" type="curve" smooth="yes"/>
      <point x="508" y="227"/>
      <point x="500" y="404"/>
      <point x="500" y="598" type="curve" smooth="yes"/>
      <point x="500" y="1486" type="line"/>
      <point x="264" y="1486" type="line"/>
      <point x="264" y="594" type="line" smooth="yes"/>
      <point x="264" y="387"/>
      <point x="263" y="190"/>
      <point x="232" y="73" type="curve" smooth="yes"/>
      <point x="191" y="-80"/>
      <point x="67" y="-163"/>
      <point x="-36" y="-201" type="curve"/>
    </contour>
  </outline>
</glyph>
<glyph name="K" format="2">
  <advance width="1338"/>
  <unicode hex="004B"/>
  <anchor x="664" y="0" name="bottom"/>
  <anchor x="674" y="-166" name="btm"/>
  <anchor x="674" y="1660" name="top"/>
  <outline>
    <contour>
      <point x="176" y="0" type="line"/>
      <point x="408" y="0" type="line"/>
      <point x="408" y="602" type="line"/>
      <point x="356" y="408" type="line"/>
      <point x="626" y="716" type="line"/>
      <point x="656" y="748" type="line"/>
      <point x="1258" y="1486" type="line"/>
      <point x="988" y="1486" type="line"/>
      <point x="408" y="752" type="line"/>
      <point x="408" y="1486" type="line"/>
      <point x="176" y="1486" type="line"/>
    </contour>
    <contour>
      <point x="950" y="110" type="curve" smooth="yes"/>
      <point x="986" y="50"/>
      <point x="992" y="26"/>
      <point x="1010" y="0" type="curve"/>
      <point x="1278" y="0" type="line"/>
      <point x="1256" y="36"/>
      <point x="1236" y="72"/>
      <point x="1214" y="108" type="curve"/>
      <point x="1084" y="338"/>
      <point x="780" y="772"/>
      <point x="716" y="886" type="curve"/>
      <point x="632" y="792" type="line"/>
      <point x="552" y="738" type="line"/>
      <point x="654" y="570"/>
      <point x="842" y="308"/>
    </contour>
  </outline>
</glyph>
<glyph name="L" format="2">
  <advance width="1050"/>
  <unicode hex="004C"/>
  <anchor x="520" y="0" name="bottom"/>
  <anchor x="578" y="-166" name="btm"/>
  <anchor x="520" y="744" name="center"/>
  <anchor x="294" y="1660" name="top"/>
  <anchor x="1010" y="1486" name="topright"/>
  <outline>
    <contour>
      <point x="176" y="0" type="line"/>
      <point x="994" y="0" type="line"/>
      <point x="994" y="186" type="line"/>
      <point x="410" y="186" type="line"/>
      <point x="410" y="1486" type="line"/>
      <point x="176" y="1486" type="line"/>
    </contour>
  </outline>
</glyph>
<glyph name="M" format="2">
  <advance width="1872"/>
  <unicode hex="004D"/>
  <anchor x="937" y="0" name="bottom"/>
  <anchor x="941" y="-166" name="btm"/>
  <anchor x="940" y="1600" name="top"/>
  <outline>
    <contour>
      <point x="119" y="0" type="line"/>
      <point x="344" y="0" type="line"/>
      <point x="422" y="901" type="line"/>
      <point x="451" y="1311" type="line"/>
      <point x="559" y="901" type="line"/>
      <point x="867" y="-14" type="line"/>
      <point x="1008" y="-14" type="line"/>
      <point x="1301" y="901" type="line"/>
      <point x="1403" y="1311" type="line"/>
      <point x="1431" y="901" type="line"/>
      <point x="1519" y="0" type="line"/>
      <point x="1753" y="0" type="line"/>
      <point x="1575" y="1486" type="line"/>
      <point x="1259" y="1486" type="line"/>
      <point x="1010" y="650" type="line"/>
      <point x="941" y="332" type="line"/>
      <point x="864" y="650" type="line"/>
      <point x="602" y="1486" type="line"/>
      <point x="272" y="1486" type="line"/>
    </contour>
  </outline>
</glyph>
<glyph name="N" format="2">
  <advance width="1508"/>
  <unicode hex="004E"/>
  <anchor x="754" y="0" name="bottom"/>
  <anchor x="720" y="-166" name="btm"/>
  <anchor x="766" y="1660" name="top"/>
  <outline>
    <contour>
      <point x="176" y="0" type="line"/>
      <point x="390" y="0" type="line"/>
      <point x="390" y="894" type="line"/>
      <point x="366" y="1344" type="line"/>
      <point x="280" y="1344" type="line"/>
      <point x="510" y="926" type="line"/>
      <point x="1108" y="0" type="line"/>
      <point x="1332" y="0" type="line"/>
      <point x="1332" y="1486" type="line"/>
      <point x="1114" y="1486" type="line"/>
      <point x="1114" y="570" type="line"/>
      <point x="1140" y="154" type="line"/>
      <point x="1210" y="154" type="line"/>
      <point x="1012" y="524" type="line"/>
      <point x="390" y="1486" type="line"/>
      <point x="176" y="1486" type="line"/>
    </contour>
  </outline>
</glyph>
<glyph name="O" format="2">
  <advance width="1528"/>
  <unicode hex="004F"/>
  <anchor x="764" y="0" name="bottom"/>
  <anchor x="762" y="-166" name="btm"/>
  <anchor x="764" y="744" name="center"/>
  <anchor x="900" y="0" name="ogonek"/>
  <anchor x="788" y="1660" name="top"/>
  <anchor x="36" y="1486" name="topleft"/>
  <anchor x="1024" y="1442" name="topright"/>
  <outline>
    <contour>
      <point x="758" y="-16" type="curve" smooth="yes"/>
      <point x="1140" y="-8"/>
      <point x="1424" y="246"/>
      <point x="1434" y="744" type="curve" smooth="yes"/>
      <point x="1444" y="1204"/>
      <point x="1184" y="1504"/>
      <point x="788" y="1502" type="curve" smooth="yes"/>
      <point x="406" y="1500"/>
      <point x="104" y="1252"/>
      <point x="94" y="754" type="curve" smooth="yes"/>
      <point x="84" y="302"/>
      <point x="344" y="-24"/>
    </contour>
    <contour>
      <point x="764" y="164" type="curve" smooth="yes"/>
      <point x="478" y="164"/>
      <point x="332" y="434"/>
      <point x="332" y="740" type="curve" smooth="yes"/>
      <point x="332" y="1144"/>
      <point x="538" y="1324"/>
      <point x="780" y="1324" type="curve" smooth="yes"/>
      <point x="1056" y="1324"/>
      <point x="1196" y="1062"/>
      <point x="1196" y="754" type="curve" smooth="yes"/>
      <point x="1196" y="366"/>
      <point x="1028" y="164"/>
    </contour>
  </outline>
</glyph>
<glyph name="P" format="2">
  <advance width="1244"/>
  <unicode hex="0050"/>
  <anchor x="616" y="0" name="bottom"/>
  <anchor x="666" y="-166" name="btm"/>
  <anchor x="674" y="1660" name="top"/>
  <outline>
    <contour>
      <point x="176" y="0" type="line"/>
      <point x="412" y="0" type="line"/>
      <point x="412" y="502" type="line"/>
      <point x="448" y="502"/>
      <point x="506" y="500"/>
      <point x="600" y="500" type="curve" smooth="yes"/>
      <point x="972" y="500"/>
      <point x="1172" y="690"/>
      <point x="1172" y="1014" type="curve" smooth="yes"/>
      <point x="1172" y="1358"/>
      <point x="974" y="1502"/>
      <point x="650" y="1502" type="curve" smooth="yes"/>
      <point x="516" y="1502"/>
      <point x="400" y="1486"/>
      <point x="278" y="1486" type="curve" smooth="yes"/>
      <point x="176" y="1486" type="line"/>
    </contour>
    <contour>
      <point x="412" y="682" type="curve"/>
      <point x="412" y="1316" type="line"/>
      <point x="464" y="1328"/>
      <point x="526" y="1332"/>
      <point x="584" y="1334" type="curve" smooth="yes"/>
      <point x="814" y="1342"/>
      <point x="940" y="1242"/>
      <point x="940" y="1014" type="curve" smooth="yes"/>
      <point x="940" y="730"/>
      <point x="772" y="672"/>
      <point x="586" y="672" type="curve" smooth="yes"/>
      <point x="532" y="672"/>
      <point x="472" y="674"/>
    </contour>
  </outline>
</glyph>
<glyph name="Q" format="2">
  <advance width="1537"/>
  <unicode hex="0051"/>
  <anchor x="768" y="0" name="bottom"/>
  <anchor x="768" y="-166" name="btm"/>
  <anchor x="768" y="1660" name="top"/>
  <outline>
    <contour>
      <point x="1197" y="-293" type="curve" smooth="yes"/>
      <point x="1276" y="-293"/>
      <point x="1317" y="-272"/>
      <point x="1346" y="-252" type="curve"/>
      <point x="1346" y="-85" type="line"/>
      <point x="1300" y="-101"/>
      <point x="1254" y="-105"/>
      <point x="1203" y="-105" type="curve" smooth="yes"/>
      <point x="1045" y="-105"/>
      <point x="990" y="-62"/>
      <point x="920" y="66" type="curve"/>
      <point x="817" y="66" type="line"/>
      <point x="711" y="28" type="line"/>
      <point x="865" y="-231"/>
      <point x="964" y="-293"/>
    </contour>
    <component base="O"/>
  </outline>
</glyph>
<glyph name="R" format="2">
  <advance width="1334"/>
  <unicode hex="0052"/>
  <anchor x="662" y="0" name="bottom"/>
  <anchor x="668" y="-166" name="btm"/>
  <anchor x="630" y="1660" name="top"/>
  <outline>
    <contour>
      <point x="412" y="0" type="line"/>
      <point x="412" y="620" type="line"/>
      <point x="652" y="620"/>
      <point x="718" y="624"/>
      <point x="800" y="636" type="curve" smooth="yes"/>
      <point x="1030" y="672"/>
      <point x="1172" y="810"/>
      <point x="1172" y="1078" type="curve" smooth="yes"/>
      <point x="1172" y="1384"/>
      <point x="960" y="1502"/>
      <point x="662" y="1502" type="curve" smooth="yes"/>
      <point x="506" y="1502"/>
      <point x="374" y="1486"/>
      <point x="280" y="1486" type="curve" smooth="yes"/>
      <point x="244" y="1486"/>
      <point x="212" y="1486"/>
      <point x="176" y="1486" type="curve"/>
      <point x="176" y="0" type="line"/>
    </contour>
    <contour>
      <point x="412" y="788" type="curve"/>
      <point x="412" y="1312" type="line"/>
      <point x="472" y="1324"/>
      <point x="550" y="1330"/>
      <point x="628" y="1330" type="curve" smooth="yes"/>
      <point x="858" y="1330"/>
      <point x="936" y="1240"/>
      <point x="936" y="1068" type="curve" smooth="yes"/>
      <point x="936" y="874"/>
      <point x="828" y="782"/>
      <point x="636" y="782" type="curve" smooth="yes"/>
      <point x="584" y="782"/>
      <point x="454" y="782"/>
    </contour>
    <contour>
      <point x="1012" y="0" type="curve"/>
      <point x="1276" y="0" type="line"/>
      <point x="1256" y="36"/>
      <point x="1236" y="72"/>
      <point x="1216" y="110" type="curve" smooth="yes"/>
      <point x="1110" y="302"/>
      <point x="1030" y="616"/>
      <point x="872" y="684" type="curve"/>
      <point x="732" y="696" type="line"/>
      <point x="642" y="626" type="line"/>
      <point x="808" y="602"/>
      <point x="876" y="288"/>
      <point x="958" y="110" type="curve" smooth="yes"/>
      <point x="988" y="46"/>
      <point x="994" y="26"/>
    </contour>
  </outline>
</glyph>
<glyph name="S" format="2">
  <advance width="1130"/>
  <unicode hex="0053"/>
  <anchor x="560" y="0" name="bottom"/>
  <anchor x="554" y="-166" name="btm"/>
  <anchor x="596" y="1660" name="top"/>
  <outline>
    <contour>
      <point x="551" y="-16" type="curve" smooth="yes"/>
      <point x="845" y="-16"/>
      <point x="1050" y="117"/>
      <point x="1050" y="390" type="curve" smooth="yes"/>
      <point x="1050" y="625"/>
      <point x="838" y="744"/>
      <point x="639" y="847" type="curve" smooth="yes"/>
      <point x="430" y="954"/>
      <point x="350" y="1005"/>
      <point x="350" y="1144" type="curve" smooth="yes"/>
      <point x="350" y="1266"/>
      <point x="477" y="1321"/>
      <point x="623" y="1321" type="curve" smooth="yes"/>
      <point x="781" y="1321"/>
      <point x="862" y="1281"/>
      <point x="930" y="1238" type="curve"/>
      <point x="976" y="1423" type="line"/>
      <point x="924" y="1457"/>
      <point x="804" y="1502"/>
      <point x="623" y="1502" type="curve" smooth="yes"/>
      <point x="376" y="1502"/>
      <point x="124" y="1404"/>
      <point x="124" y="1117" type="curve" smooth="yes"/>
      <point x="124" y="897"/>
      <point x="314" y="756"/>
      <point x="496" y="666" type="curve" smooth="yes"/>
      <point x="709" y="564"/>
      <point x="818" y="505"/>
      <point x="818" y="366" type="curve" smooth="yes"/>
      <point x="818" y="227"/>
      <point x="719" y="170"/>
      <point x="537" y="170" type="curve" smooth="yes"/>
      <point x="396" y="170"/>
      <point x="255" y="217"/>
      <point x="179" y="261" type="curve"/>
      <point x="130" y="70" type="line"/>
      <point x="183" y="36"/>
      <point x="356" y="-16"/>
    </contour>
  </outline>
</glyph>
<glyph name="T" format="2">
  <advance width="1263"/>
  <unicode hex="0054"/>
  <anchor x="631" y="0" name="bottom"/>
  <anchor x="631" y="744" name="center"/>
  <anchor x="624" y="1660" name="top"/>
  <outline>
    <contour>
      <point x="514" y="0" type="line"/>
      <point x="750" y="0" type="line"/>
      <point x="750" y="1306" type="line"/>
      <point x="1207" y="1306" type="line"/>
      <point x="1207" y="1486" type="line"/>
      <point x="56" y="1486" type="line"/>
      <point x="56" y="1306" type="line"/>
      <point x="514" y="1306" type="line"/>
    </contour>
  </outline>
</glyph>
<glyph name="U" format="2">
  <advance width="1439"/>
  <unicode hex="0055"/>
  <anchor x="720" y="0" name="bottom"/>
  <anchor x="730" y="-166" name="btm"/>
  <anchor x="885" y="0" name="ogonek"/>
  <anchor x="732" y="1660" name="top"/>
  <anchor x="1142" y="1486" name="topright"/>
  <outline>
    <contour>
      <point x="727" y="-16" type="curve" smooth="yes"/>
      <point x="1104" y="-16"/>
      <point x="1286" y="210"/>
      <point x="1286" y="618" type="curve" smooth="yes"/>
      <point x="1286" y="1486" type="line"/>
      <point x="1054" y="1486" type="line"/>
      <point x="1054" y="667" type="line" smooth="yes"/>
      <point x="1054" y="271"/>
      <point x="933" y="168"/>
      <point x="734" y="168" type="curve" smooth="yes"/>
      <point x="512" y="168"/>
      <point x="387" y="269"/>
      <point x="387" y="667" type="curve" smooth="yes"/>
      <point x="389" y="1486" type="line"/>
      <point x="155" y="1486" type="line"/>
      <point x="154" y="622" type="line" smooth="yes"/>
      <point x="153" y="221"/>
      <point x="312" y="-16"/>
    </contour>
  </outline>
</glyph>
<glyph name="V" format="2">
  <advance width="1329"/>
  <unicode hex="0056"/>
  <anchor x="665" y="0" name="bottom"/>
  <anchor x="666" y="-166" name="btm"/>
  <anchor x="666" y="1660" name="top"/>
  <outline>
    <contour>
      <point x="573" y="-11" type="line"/>
      <point x="769" y="-11" type="line"/>
      <point x="1312" y="1486" type="line"/>
      <point x="1066" y="1486" type="line"/>
      <point x="743" y="519" type="line"/>
      <point x="672" y="280" type="line"/>
      <point x="604" y="519" type="line"/>
      <point x="266" y="1486" type="line"/>
      <point x="17" y="1486" type="line"/>
    </contour>
  </outline>
</glyph>
<glyph name="W" format="2">
  <advance width="1883"/>
  <unicode hex="0057"/>
  <anchor x="943" y="0" name="bottom"/>
  <anchor x="939" y="-166" name="btm"/>
  <anchor x="939" y="1660" name="top"/>
  <outline>
    <contour>
      <point x="425" y="-16" type="line"/>
      <point x="633" y="-16" type="line"/>
      <point x="906" y="932" type="line"/>
      <point x="977" y="1337" type="line"/>
      <point x="905" y="1339" type="line"/>
      <point x="978" y="932" type="line"/>
      <point x="1247" y="-16" type="line"/>
      <point x="1480" y="-16" type="line"/>
      <point x="1864" y="1486" type="line"/>
      <point x="1628" y="1486" type="line"/>
      <point x="1417" y="537" type="line"/>
      <point x="1354" y="155" type="line"/>
      <point x="1393" y="155" type="line"/>
      <point x="1307" y="538" type="line"/>
      <point x="1033" y="1486" type="line"/>
      <point x="854" y="1486" type="line"/>
      <point x="586" y="538" type="line"/>
      <point x="517" y="155" type="line"/>
      <point x="552" y="155" type="line"/>
      <point x="485" y="538" type="line"/>
      <point x="258" y="1486" type="line"/>
      <point x="19" y="1486" type="line"/>
    </contour>
  </outline>
</glyph>
<glyph name="X" format="2">
  <advance width="1295"/>
  <unicode hex="0058"/>
  <anchor x="647" y="0" name="bottom"/>
  <anchor x="632" y="-166" name="btm"/>
  <anchor x="632" y="1660" name="top"/>
  <outline>
    <contour>
      <point x="40" y="0" type="line"/>
      <point x="290" y="0" type="line"/>
      <point x="542" y="434" type="line"/>
      <point x="667" y="648" type="line"/>
      <point x="603" y="646" type="line"/>
      <point x="732" y="434" type="line"/>
      <point x="989" y="0" type="line"/>
      <point x="1254" y="0" type="line"/>
      <point x="740" y="802" type="line"/>
      <point x="767" y="710" type="line"/>
      <point x="1244" y="1486" type="line"/>
      <point x="995" y="1486" type="line"/>
      <point x="767" y="1094" type="line"/>
      <point x="633" y="865" type="line"/>
      <point x="682" y="865" type="line"/>
      <point x="546" y="1094" type="line"/>
      <point x="306" y="1488" type="line"/>
      <point x="44" y="1486" type="line"/>
      <point x="540" y="712" type="line"/>
      <point x="527" y="802" type="line"/>
    </contour>
  </outline>
</glyph>
<glyph name="Y" format="2">
  <advance width="1230"/>
  <unicode hex="0059"/>
  <anchor x="616" y="0" name="bottom"/>
  <anchor x="624" y="-166" name="btm"/>
  <anchor x="624" y="1660" name="top"/>
  <anchor x="40" y="1486" name="topleft"/>
  <outline>
    <contour>
      <point x="499" y="0" type="line"/>
      <point x="737" y="0" type="line"/>
      <point x="737" y="629" type="line"/>
      <point x="702" y="503" type="line"/>
      <point x="1221" y="1486" type="line"/>
      <point x="974" y="1486" type="line"/>
      <point x="659" y="854" type="line"/>
      <point x="607" y="702" type="line"/>
      <point x="643" y="702" type="line"/>
      <point x="581" y="854" type="line"/>
      <point x="261" y="1486" type="line"/>
      <point x="10" y="1486" type="line"/>
      <point x="534" y="503" type="line"/>
      <point x="499" y="632" type="line"/>
    </contour>
  </outline>
</glyph>
<glyph name="Z" format="2">
  <advance width="1228"/>
  <unicode hex="005A"/>
  <anchor x="596" y="0" name="bottom"/>
  <anchor x="590" y="-166" name="btm"/>
  <anchor x="596" y="744" name="center"/>
  <anchor x="626" y="1660" name="top"/>
  <outline>
    <contour>
      <point x="104" y="0" type="line"/>
      <point x="1116" y="0" type="line"/>
      <point x="1116" y="182" type="line"/>
      <point x="372" y="182" type="line"/>
      <point x="444" y="268" type="line"/>
      <point x="1172" y="1408" type="line"/>
      <point x="1126" y="1486" type="line"/>
      <point x="142" y="1486" type="line"/>
      <point x="142" y="1302" type="line"/>
      <point x="860" y="1302" type="line"/>
      <point x="804" y="1232" type="line"/>
      <point x="60" y="82" type="line"/>
    </contour>
  </outline>
</glyph>
<glyph name="bracketleft" format="2">
  <advance width="802"/>
  <unicode hex="005B"/>
  <outline>
    <contour>
      <point x="180" y="58" type="line"/>
      <point x="180" y="-134"/>
      <point x="214" y="-186"/>
      <point x="366" y="-186" type="curve" smooth="yes"/>
      <point x="492" y="-186"/>
      <point x="560" y="-176"/>
      <point x="662" y="-164" type="curve"/>
      <point x="662" y="-46" type="line"/>
      <point x="400" y="-44" type="line"/>
      <point x="400" y="1548" type="line"/>
      <point x="662" y="1548" type="line"/>
      <point x="662" y="1672" type="line"/>
      <point x="560" y="1684"/>
      <point x="492" y="1696"/>
      <point x="366" y="1696" type="curve" smooth="yes"/>
      <point x="216" y="1696"/>
      <point x="180" y="1644"/>
      <point x="180" y="1452" type="curve" smooth="yes"/>
    </contour>
  </outline>
</glyph>
<glyph name="asciicircum" format="2">
  <advance width="1333"/>
  <unicode hex="005E"/>
  <outline>
    <contour>
      <point x="186" y="498" type="line"/>
      <point x="424" y="498" type="line"/>
      <point x="674" y="1194" type="line"/>
      <point x="660" y="1194" type="line"/>
      <point x="912" y="498" type="line"/>
      <point x="1148" y="498" type="line"/>
      <point x="742" y="1496" type="line"/>
      <point x="590" y="1496" type="line"/>
    </contour>
  </outline>
</glyph>
<glyph name="underscore" format="2">
  <advance width="1654"/>
  <unicode hex="005F"/>
  <outline>
    <contour>
      <point x="-39" y="-405" type="line"/>
      <point x="1693" y="-405" type="line"/>
      <point x="1693" y="-266" type="line"/>
      <point x="-39" y="-266" type="line"/>
    </contour>
  </outline>
</glyph>
<glyph name="grave" format="2">
  <advance width="594"/>
  <unicode hex="0060"/>
  <outline>
    <contour>
      <point x="543" y="1353" type="line"/>
      <point x="433" y="1474"/>
      <point x="303" y="1623"/>
      <point x="213" y="1746" type="curve"/>
      <point x="49" y="1608" type="line"/>
      <point x="115" y="1500"/>
      <point x="349" y="1293"/>
      <point x="429" y="1257" type="curve"/>
    </contour>
  </outline>
</glyph>
<glyph name="a" format="2">
  <advance width="1118"/>
  <unicode hex="0061"/>
  <anchor x="559" y="0" name="bottom"/>
  <anchor x="559" y="-200" name="btm"/>
  <anchor x="909" y="0" name="ogonek"/>
  <anchor x="545" y="1660" name="top"/>
  <outline>
    <contour>
      <point x="436" y="-16" type="curve" smooth="yes"/>
      <point x="568" y="-16"/>
      <point x="686" y="40"/>
      <point x="745" y="94" type="curve"/>
      <point x="778" y="180" type="line"/>
      <point x="732" y="229" type="line"/>
      <point x="710" y="203"/>
      <point x="601" y="152"/>
      <point x="507" y="152" type="curve" smooth="yes"/>
      <point x="384" y="152"/>
      <point x="322" y="210"/>
      <point x="322" y="322" type="curve" smooth="yes"/>
      <point x="322" y="407"/>
      <point x="373" y="450"/>
      <point x="441" y="481" type="curve" smooth="yes"/>
      <point x="515" y="516"/>
      <point x="653" y="533"/>
      <point x="732" y="533" type="curve"/>
      <point x="780" y="614" type="line"/>
      <point x="732" y="675" type="line"/>
      <point x="603" y="675"/>
      <point x="432" y="657"/>
      <point x="304" y="605" type="curve" smooth="yes"/>
      <point x="174" y="549"/>
      <point x="92" y="449"/>
      <point x="92" y="307" type="curve" smooth="yes"/>
      <point x="92" y="108"/>
      <point x="236" y="-16"/>
    </contour>
    <contour>
      <point x="963" y="0" type="line"/>
      <point x="963" y="767" type="line" smooth="yes"/>
      <point x="963" y="1065"/>
      <point x="806" y="1131"/>
      <point x="556" y="1131" type="curve" smooth="yes"/>
      <point x="383" y="1131"/>
      <point x="186" y="1054"/>
      <point x="141" y="1026" type="curve"/>
      <point x="195" y="860" type="line"/>
      <point x="255" y="897"/>
      <point x="407" y="941"/>
      <point x="534" y="941" type="curve" smooth="yes"/>
      <point x="661" y="941"/>
      <point x="732" y="911"/>
      <point x="732" y="780" type="curve" smooth="yes"/>
      <point x="732" y="166" type="line"/>
      <point x="745" y="166" type="line"/>
      <point x="745" y="0" type="line"/>
    </contour>
  </outline>
</glyph>
<glyph name="b" format="2">
  <advance width="1233"/>
  <unicode hex="0062"/>
  <anchor x="621" y="0" name="bottom"/>
  <anchor x="653" y="-166" name="btm"/>
  <anchor x="751" y="1660" name="top"/>
  <outline>
    <contour>
      <point x="171" y="1622" type="line"/>
      <point x="171" y="62" type="line"/>
      <point x="401" y="164" type="line"/>
      <point x="401" y="966" type="line"/>
      <point x="393" y="972" type="line"/>
      <point x="401" y="1168" type="line"/>
      <point x="401" y="1622" type="line"/>
    </contour>
    <contour>
      <point x="575" y="-18" type="curve" smooth="yes"/>
      <point x="915" y="-18"/>
      <point x="1141" y="236"/>
      <point x="1141" y="598" type="curve" smooth="yes"/>
      <point x="1141" y="958"/>
      <point x="937" y="1128"/>
      <point x="701" y="1128" type="curve" smooth="yes"/>
      <point x="499" y="1128"/>
      <point x="411" y="1026"/>
      <point x="365" y="978" type="curve"/>
      <point x="401" y="864" type="line"/>
      <point x="449" y="900"/>
      <point x="533" y="950"/>
      <point x="637" y="950" type="curve" smooth="yes"/>
      <point x="807" y="950"/>
      <point x="907" y="834"/>
      <point x="905" y="570" type="curve" smooth="yes"/>
      <point x="901" y="296"/>
      <point x="771" y="148"/>
      <point x="599" y="148" type="curve" smooth="yes"/>
      <point x="503" y="148"/>
      <point x="437" y="162"/>
      <point x="401" y="188" type="curve"/>
      <point x="171" y="62" type="line"/>
      <point x="211" y="36"/>
      <point x="413" y="-18"/>
    </contour>
  </outline>
</glyph>
<glyph name="c" format="2">
  <advance width="976"/>
  <unicode hex="0063"/>
  <anchor x="480" y="0" name="bottom"/>
  <anchor x="546" y="-166" name="btm"/>
  <anchor x="588" y="1660" name="top"/>
  <outline>
    <contour>
      <point x="80" y="544" type="curve" smooth="yes"/>
      <point x="80" y="226"/>
      <point x="256" y="-16"/>
      <point x="574" y="-16" type="curve" smooth="yes"/>
      <point x="714" y="-16"/>
      <point x="848" y="26"/>
      <point x="916" y="90" type="curve"/>
      <point x="872" y="224" type="line"/>
      <point x="824" y="194"/>
      <point x="722" y="160"/>
      <point x="612" y="160" type="curve" smooth="yes"/>
      <point x="436" y="160"/>
      <point x="296" y="308"/>
      <point x="304" y="584" type="curve" smooth="yes"/>
      <point x="314" y="846"/>
      <point x="468" y="948"/>
      <point x="618" y="948" type="curve" smooth="yes"/>
      <point x="730" y="948"/>
      <point x="806" y="928"/>
      <point x="862" y="890" type="curve"/>
      <point x="898" y="1072" type="line"/>
      <point x="862" y="1096"/>
      <point x="760" y="1128"/>
      <point x="620" y="1128" type="curve" smooth="yes"/>
      <point x="260" y="1128"/>
      <point x="80" y="874"/>
    </contour>
  </outline>
</glyph>
<glyph name="d" format="2">
  <advance width="1224"/>
  <unicode hex="0064"/>
  <anchor x="612" y="0" name="bottom"/>
  <anchor x="599" y="-166" name="btm"/>
  <anchor x="612" y="558" name="center"/>
  <anchor x="361" y="1660" name="top"/>
  <anchor x="1184" y="1114" name="topright"/>
  <outline>
    <contour>
      <point x="844" y="0" type="line"/>
      <point x="1062" y="0" type="line"/>
      <point x="1062" y="1626" type="line"/>
      <point x="832" y="1626" type="line"/>
      <point x="832" y="1168" type="line"/>
      <point x="840" y="948" type="line"/>
      <point x="832" y="942" type="line"/>
      <point x="832" y="154" type="line"/>
      <point x="844" y="148" type="line"/>
    </contour>
    <contour>
      <point x="533" y="-16" type="curve" smooth="yes"/>
      <point x="735" y="-16"/>
      <point x="822" y="87"/>
      <point x="870" y="137" type="curve"/>
      <point x="832" y="251" type="line"/>
      <point x="786" y="215"/>
      <point x="701" y="166"/>
      <point x="597" y="166" type="curve" smooth="yes"/>
      <point x="426" y="166"/>
      <point x="326" y="282"/>
      <point x="330" y="544" type="curve" smooth="yes"/>
      <point x="332" y="818"/>
      <point x="465" y="961"/>
      <point x="635" y="961" type="curve" smooth="yes"/>
      <point x="726" y="961"/>
      <point x="792" y="949"/>
      <point x="832" y="915" type="curve"/>
      <point x="914" y="1062" type="line"/>
      <point x="888" y="1084"/>
      <point x="789" y="1128"/>
      <point x="652" y="1128" type="curve" smooth="yes"/>
      <point x="315" y="1128"/>
      <point x="92" y="878"/>
      <point x="92" y="517" type="curve" smooth="yes"/>
      <point x="92" y="155"/>
      <point x="299" y="-16"/>
    </contour>
  </outline>
</glyph>
<glyph name="e" format="2">
  <advance width="1116"/>
  <unicode hex="0065"/>
  <anchor x="558" y="0" name="bottom"/>
  <anchor x="600" y="-166" name="btm"/>
  <anchor x="754" y="0" name="ogonek"/>
  <anchor x="594" y="1660" name="top"/>
  <outline>
    <contour>
      <point x="598" y="-16" type="curve" smooth="yes"/>
      <point x="738" y="-16"/>
      <point x="906" y="26"/>
      <point x="980" y="86" type="curve"/>
      <point x="936" y="218" type="line"/>
      <point x="882" y="186"/>
      <point x="734" y="158"/>
      <point x="658" y="158" type="curve" smooth="yes"/>
      <point x="478" y="158"/>
      <point x="338" y="240"/>
      <point x="326" y="492" type="curve" smooth="yes"/>
      <point x="314" y="850"/>
      <point x="434" y="964"/>
      <point x="590" y="964" type="curve" smooth="yes"/>
      <point x="776" y="964"/>
      <point x="812" y="812"/>
      <point x="802" y="652" type="curve"/>
      <point x="252" y="652" type="line"/>
      <point x="232" y="506" type="line"/>
      <point x="1008" y="506" type="line"/>
      <point x="1018" y="556"/>
      <point x="1018" y="622"/>
      <point x="1018" y="706" type="curve" smooth="yes"/>
      <point x="1010" y="992"/>
      <point x="826" y="1132"/>
      <point x="602" y="1128" type="curve" smooth="yes"/>
      <point x="274" y="1124"/>
      <point x="98" y="882"/>
      <point x="98" y="558" type="curve" smooth="yes"/>
      <point x="98" y="198"/>
      <point x="278" y="-16"/>
    </contour>
  </outline>
</glyph>
<glyph name="f" format="2">
  <advance width="800"/>
  <unicode hex="0066"/>
  <anchor x="400" y="0" name="bottom"/>
  <anchor x="380" y="-166" name="btm"/>
  <anchor x="284" y="2036" name="top"/>
  <outline>
    <contour>
      <point x="240" y="0" type="line"/>
      <point x="472" y="0" type="line"/>
      <point x="472" y="943" type="line"/>
      <point x="743" y="943" type="line"/>
      <point x="743" y="1114" type="line"/>
      <point x="472" y="1114" type="line"/>
      <point x="472" y="1252" type="line" smooth="yes"/>
      <point x="472" y="1393"/>
      <point x="538" y="1463"/>
      <point x="630" y="1463" type="curve" smooth="yes"/>
      <point x="715" y="1463"/>
      <point x="756" y="1456"/>
      <point x="795" y="1444" type="curve"/>
      <point x="795" y="1622" type="line"/>
      <point x="774" y="1628"/>
      <point x="711" y="1642"/>
      <point x="646" y="1642" type="curve" smooth="yes"/>
      <point x="464" y="1642"/>
      <point x="240" y="1543"/>
      <point x="240" y="1212" type="curve" smooth="yes"/>
      <point x="240" y="1114" type="line"/>
      <point x="75" y="1072" type="line"/>
      <point x="75" y="943" type="line"/>
      <point x="240" y="943" type="line"/>
    </contour>
  </outline>
</glyph>
<glyph name="g" format="2">
  <advance width="1203"/>
  <unicode hex="0067"/>
  <anchor x="602" y="-546" name="bottom"/>
  <anchor x="565" y="1660" name="top"/>
  <outline>
    <contour>
      <point x="570" y="-504" type="curve" smooth="yes"/>
      <point x="868" y="-504"/>
      <point x="1118" y="-366"/>
      <point x="1118" y="-134" type="curve" smooth="yes"/>
      <point x="1118" y="20"/>
      <point x="1050" y="180"/>
      <point x="706" y="180" type="curve" smooth="yes"/>
      <point x="506" y="180" type="line" smooth="yes"/>
      <point x="414" y="180"/>
      <point x="378" y="202"/>
      <point x="378" y="284" type="curve" smooth="yes"/>
      <point x="378" y="336"/>
      <point x="425" y="387"/>
      <point x="473" y="406" type="curve"/>
      <point x="330" y="442" type="line"/>
      <point x="230" y="384"/>
      <point x="164" y="296"/>
      <point x="164" y="218" type="curve" smooth="yes"/>
      <point x="164" y="150"/>
      <point x="190" y="74"/>
      <point x="290" y="36" type="curve" smooth="yes"/>
      <point x="306" y="30"/>
      <point x="320" y="18"/>
      <point x="336" y="14" type="curve" smooth="yes"/>
      <point x="382" y="2"/>
      <point x="440" y="0"/>
      <point x="516" y="0" type="curve" smooth="yes"/>
      <point x="626" y="0" type="line" smooth="yes"/>
      <point x="850" y="0"/>
      <point x="898" y="-66"/>
      <point x="898" y="-184" type="curve" smooth="yes"/>
      <point x="898" y="-296"/>
      <point x="750" y="-352"/>
      <point x="578" y="-352" type="curve" smooth="yes"/>
      <point x="392" y="-352"/>
      <point x="320" y="-276"/>
      <point x="320" y="-144" type="curve" smooth="yes"/>
      <point x="320" y="-28"/>
      <point x="390" y="6"/>
      <point x="432" y="44" type="curve"/>
      <point x="284" y="66" type="line"/>
      <point x="200" y="32"/>
      <point x="94" y="-52"/>
      <point x="94" y="-176" type="curve" smooth="yes"/>
      <point x="94" y="-398"/>
      <point x="276" y="-504"/>
    </contour>
    <contour>
      <point x="563" y="380" type="curve" smooth="yes"/>
      <point x="828" y="380"/>
      <point x="1020" y="513"/>
      <point x="1020" y="758" type="curve" smooth="yes"/>
      <point x="1020" y="1017"/>
      <point x="815" y="1134"/>
      <point x="567" y="1128" type="curve" smooth="yes"/>
      <point x="312" y="1124"/>
      <point x="122" y="1006"/>
      <point x="122" y="746" type="curve" smooth="yes"/>
      <point x="122" y="529"/>
      <point x="312" y="380"/>
    </contour>
    <contour>
      <point x="569" y="530" type="curve" smooth="yes"/>
      <point x="414" y="530"/>
      <point x="348" y="633"/>
      <point x="348" y="755" type="curve" smooth="yes"/>
      <point x="348" y="933"/>
      <point x="456" y="976"/>
      <point x="580" y="976" type="curve" smooth="yes"/>
      <point x="724" y="976"/>
      <point x="794" y="897"/>
      <point x="794" y="751" type="curve" smooth="yes"/>
      <point x="794" y="580"/>
      <point x="706" y="530"/>
    </contour>
    <contour>
      <point x="897" y="940" type="line"/>
      <point x="1177" y="940" type="line"/>
      <point x="1177" y="1121" type="line"/>
      <point x="1065" y="1121" type="line" smooth="yes"/>
      <point x="961" y="1121"/>
      <point x="863" y="1070"/>
      <point x="834" y="1033" type="curve"/>
    </contour>
  </outline>
</glyph>
<glyph name="h" format="2">
  <advance width="1268"/>
  <unicode hex="0068"/>
  <anchor x="635" y="0" name="bottom"/>
  <anchor x="657" y="-166" name="btm"/>
  <anchor x="635" y="984" name="center"/>
  <anchor x="287" y="1738" name="top"/>
  <outline>
    <contour>
      <point x="171" y="0" type="line"/>
      <point x="401" y="0" type="line"/>
      <point x="401" y="838" type="line"/>
      <point x="487" y="903"/>
      <point x="596" y="935"/>
      <point x="667" y="936" type="curve" smooth="yes"/>
      <point x="829" y="944"/>
      <point x="874" y="865"/>
      <point x="874" y="683" type="curve" smooth="yes"/>
      <point x="874" y="0" type="line"/>
      <point x="1104" y="0" type="line"/>
      <point x="1104" y="681" type="line" smooth="yes"/>
      <point x="1104" y="1006"/>
      <point x="1000" y="1137"/>
      <point x="757" y="1130" type="curve" smooth="yes"/>
      <point x="615" y="1126"/>
      <point x="458" y="1057"/>
      <point x="378" y="993" type="curve"/>
      <point x="389" y="967" type="line"/>
      <point x="401" y="1168" type="line"/>
      <point x="401" y="1626" type="line"/>
      <point x="171" y="1626" type="line"/>
    </contour>
  </outline>
</glyph>
<glyph name="k" format="2">
  <advance width="1155"/>
  <unicode hex="006B"/>
  <anchor x="581" y="0" name="bottom"/>
  <anchor x="609" y="-166" name="btm"/>
  <anchor x="675" y="1660" name="top"/>
  <outline>
    <contour>
      <point x="1099" y="1114" type="line"/>
      <point x="829" y="1114" type="line"/>
      <point x="333" y="568" type="line"/>
      <point x="387" y="530" type="line"/>
      <point x="395" y="774" type="line"/>
      <point x="395" y="1622" type="line"/>
      <point x="171" y="1622" type="line"/>
      <point x="171" y="662" type="line"/>
      <point x="171" y="0" type="line"/>
      <point x="395" y="0" type="line"/>
      <point x="395" y="216" type="line"/>
      <point x="391" y="408" type="line"/>
      <point x="371" y="354" type="line"/>
    </contour>
    <contour>
      <point x="511" y="548" type="line"/>
      <point x="885" y="0" type="line"/>
      <point x="1147" y="0" type="line"/>
      <point x="667" y="698" type="line"/>
    </contour>
  </outline>
</glyph>
<glyph name="l" format="2">
  <advance width="592"/>
  <unicode hex="006C"/>
  <anchor x="296" y="0" name="bottom"/>
  <anchor x="280" y="-166" name="btm"/>
  <anchor x="296" y="984" name="center"/>
  <anchor x="298" y="1760" name="top"/>
  <anchor x="556" y="1966" name="topright"/>
  <outline>
    <contour>
      <point x="180" y="0" type="line"/>
      <point x="412" y="0" type="line"/>
      <point x="412" y="1626" type="line"/>
      <point x="180" y="1626" type="line"/>
    </contour>
  </outline>
</glyph>
<glyph name="m" format="2">
  <advance width="1938"/>
  <unicode hex="006D"/>
  <anchor x="970" y="0" name="bottom"/>
  <anchor x="982" y="-166" name="btm"/>
  <anchor x="977" y="1660" name="top"/>
  <outline>
    <contour>
      <point x="172" y="0" type="line"/>
      <point x="402" y="0" type="line"/>
      <point x="402" y="838" type="line"/>
      <point x="488" y="903"/>
      <point x="597" y="935"/>
      <point x="666" y="937" type="curve" smooth="yes"/>
      <point x="829" y="944"/>
      <point x="863" y="865"/>
      <point x="863" y="683" type="curve" smooth="yes"/>
      <point x="863" y="0" type="line"/>
      <point x="1093" y="0" type="line"/>
      <point x="1093" y="697" type="line" smooth="yes"/>
      <point x="1093" y="1023"/>
      <point x="999" y="1137"/>
      <point x="760" y="1130" type="curve" smooth="yes"/>
      <point x="616" y="1126"/>
      <point x="462" y="1050"/>
      <point x="380" y="994" type="curve"/>
      <point x="379" y="1112" type="line"/>
      <point x="172" y="1112" type="line"/>
    </contour>
    <contour>
      <point x="1081" y="837" type="line"/>
      <point x="1162" y="896"/>
      <point x="1270" y="935"/>
      <point x="1348" y="937" type="curve" smooth="yes"/>
      <point x="1513" y="944"/>
      <point x="1543" y="865"/>
      <point x="1543" y="683" type="curve" smooth="yes"/>
      <point x="1543" y="0" type="line"/>
      <point x="1774" y="0" type="line"/>
      <point x="1774" y="698" type="line" smooth="yes"/>
      <point x="1774" y="1024"/>
      <point x="1672" y="1134"/>
      <point x="1434" y="1130" type="curve" smooth="yes"/>
      <point x="1276" y="1127"/>
      <point x="1110" y="1048"/>
      <point x="1032" y="983" type="curve"/>
    </contour>
  </outline>
</glyph>
<glyph name="n" format="2">
  <advance width="1262"/>
  <unicode hex="006E"/>
  <anchor x="632" y="0" name="bottom"/>
  <anchor x="642" y="-166" name="btm"/>
  <anchor x="641" y="1660" name="top"/>
  <outline>
    <contour>
      <point x="172" y="0" type="line"/>
      <point x="402" y="0" type="line"/>
      <point x="402" y="838" type="line"/>
      <point x="488" y="903"/>
      <point x="595" y="936"/>
      <point x="666" y="938" type="curve" smooth="yes"/>
      <point x="832" y="947"/>
      <point x="866" y="869"/>
      <point x="866" y="683" type="curve" smooth="yes"/>
      <point x="866" y="0" type="line"/>
      <point x="1098" y="0" type="line"/>
      <point x="1098" y="695" type="line" smooth="yes"/>
      <point x="1098" y="1021"/>
      <point x="1002" y="1137"/>
      <point x="763" y="1130" type="curve" smooth="yes"/>
      <point x="619" y="1126"/>
      <point x="462" y="1050"/>
      <point x="380" y="994" type="curve"/>
      <point x="379" y="1112" type="line"/>
      <point x="172" y="1112" type="line"/>
    </contour>
  </outline>
</glyph>
<glyph name="o" format="2">
  <advance width="1198"/>
  <unicode hex="006F"/>
  <anchor x="599" y="0" name="bottom"/>
  <anchor x="593" y="-166" name="btm"/>
  <anchor x="599" y="558" name="center"/>
  <anchor x="719" y="0" name="ogonek"/>
  <anchor x="609" y="1660" name="top"/>
  <anchor x="832" y="1054" name="topright"/>
  <outline>
    <contour>
      <point x="589" y="-16" type="curve" smooth="yes"/>
      <point x="882" y="-16"/>
      <point x="1099" y="176"/>
      <point x="1105" y="534" type="curve" smooth="yes"/>
      <point x="1109" y="850"/>
      <point x="972" y="1128"/>
      <point x="609" y="1128" type="curve" smooth="yes"/>
      <point x="318" y="1128"/>
      <point x="98" y="938"/>
      <point x="93" y="580" type="curve" smooth="yes"/>
      <point x="89" y="262"/>
      <point x="227" y="-16"/>
    </contour>
    <contour>
      <point x="595" y="147" type="curve" smooth="yes"/>
      <point x="411" y="151"/>
      <point x="329" y="345"/>
      <point x="329" y="577" type="curve" smooth="yes"/>
      <point x="329" y="826"/>
      <point x="421" y="967"/>
      <point x="603" y="963" type="curve" smooth="yes"/>
      <point x="789" y="961"/>
      <point x="871" y="774"/>
      <point x="871" y="543" type="curve" smooth="yes"/>
      <point x="871" y="293"/>
      <point x="778" y="144"/>
    </contour>
  </outline>
</glyph>
<glyph name="p" format="2">
  <advance width="1224"/>
  <unicode hex="0070"/>
  <anchor x="612" y="0" name="bottom"/>
  <anchor x="635" y="-166" name="btm"/>
  <anchor x="699" y="1660" name="top"/>
  <outline>
    <contour>
      <point x="162" y="-494" type="line"/>
      <point x="392" y="-494" type="line"/>
      <point x="392" y="-136" type="line"/>
      <point x="390" y="46" type="line"/>
      <point x="392" y="92" type="line"/>
      <point x="392" y="954" type="line"/>
      <point x="372" y="978" type="line"/>
      <point x="372" y="1114" type="line"/>
      <point x="162" y="1114" type="line"/>
    </contour>
    <contour>
      <point x="573" y="-16" type="curve" smooth="yes"/>
      <point x="911" y="-16"/>
      <point x="1132" y="236"/>
      <point x="1132" y="598" type="curve" smooth="yes"/>
      <point x="1132" y="958"/>
      <point x="927" y="1128"/>
      <point x="691" y="1128" type="curve" smooth="yes"/>
      <point x="490" y="1128"/>
      <point x="402" y="1025"/>
      <point x="356" y="977" type="curve"/>
      <point x="392" y="863" type="line"/>
      <point x="440" y="900"/>
      <point x="523" y="950"/>
      <point x="627" y="950" type="curve" smooth="yes"/>
      <point x="798" y="950"/>
      <point x="898" y="835"/>
      <point x="896" y="569" type="curve" smooth="yes"/>
      <point x="892" y="298"/>
      <point x="761" y="150"/>
      <point x="589" y="150" type="curve" smooth="yes"/>
      <point x="498" y="150"/>
      <point x="434" y="164"/>
      <point x="392" y="200" type="curve"/>
      <point x="312" y="52" type="line"/>
      <point x="338" y="30"/>
      <point x="435" y="-16"/>
    </contour>
  </outline>
</glyph>
<glyph name="q" format="2">
  <advance width="1224"/>
  <unicode hex="0071"/>
  <anchor x="612" y="0" name="bottom"/>
  <anchor x="583" y="-166" name="btm"/>
  <anchor x="556" y="1660" name="top"/>
  <outline>
    <contour>
      <point x="834" y="-136" type="line"/>
      <point x="834" y="-494" type="line"/>
      <point x="1064" y="-494" type="line"/>
      <point x="1064" y="1114" type="line"/>
      <point x="862" y="1076" type="line"/>
      <point x="856" y="978" type="line"/>
      <point x="834" y="954" type="line"/>
      <point x="834" y="196" type="line"/>
      <point x="838" y="106" type="line"/>
    </contour>
    <contour>
      <point x="533" y="-16" type="curve" smooth="yes"/>
      <point x="735" y="-16"/>
      <point x="824" y="87"/>
      <point x="870" y="137" type="curve"/>
      <point x="834" y="251" type="line"/>
      <point x="788" y="215"/>
      <point x="701" y="166"/>
      <point x="597" y="166" type="curve" smooth="yes"/>
      <point x="426" y="166"/>
      <point x="326" y="282"/>
      <point x="330" y="544" type="curve" smooth="yes"/>
      <point x="332" y="818"/>
      <point x="465" y="961"/>
      <point x="635" y="961" type="curve" smooth="yes"/>
      <point x="726" y="961"/>
      <point x="792" y="949"/>
      <point x="834" y="915" type="curve"/>
      <point x="935" y="1062" type="line"/>
      <point x="911" y="1084"/>
      <point x="789" y="1128"/>
      <point x="652" y="1128" type="curve" smooth="yes"/>
      <point x="315" y="1128"/>
      <point x="92" y="878"/>
      <point x="92" y="517" type="curve" smooth="yes"/>
      <point x="92" y="155"/>
      <point x="299" y="-16"/>
    </contour>
  </outline>
</glyph>
<glyph name="r" format="2">
  <advance width="806"/>
  <unicode hex="0072"/>
  <anchor x="268" y="0" name="bottom"/>
  <anchor x="264" y="-166" name="btm"/>
  <anchor x="478" y="1660" name="top"/>
  <outline>
    <contour>
      <point x="370" y="818" type="line"/>
      <point x="416" y="864"/>
      <point x="504" y="926"/>
      <point x="628" y="926" type="curve" smooth="yes"/>
      <point x="718" y="926"/>
      <point x="752" y="910"/>
      <point x="772" y="900" type="curve"/>
      <point x="772" y="1116" type="line"/>
      <point x="754" y="1126"/>
      <point x="716" y="1130"/>
      <point x="666" y="1130" type="curve" smooth="yes"/>
      <point x="530" y="1130"/>
      <point x="386" y="1032"/>
      <point x="356" y="970" type="curve"/>
    </contour>
    <contour>
      <point x="152" y="0" type="line"/>
      <point x="382" y="0" type="line"/>
      <point x="382" y="886" type="line"/>
      <point x="364" y="970" type="line"/>
      <point x="348" y="1112" type="line"/>
      <point x="152" y="1112" type="line"/>
    </contour>
  </outline>
</glyph>
<glyph name="s" format="2">
  <advance width="960"/>
  <unicode hex="0073"/>
  <anchor x="478" y="0" name="bottom"/>
  <anchor x="484" y="-166" name="btm"/>
  <anchor x="490" y="1660" name="top"/>
  <outline>
    <contour>
      <point x="104" y="66" type="line"/>
      <point x="158" y="26"/>
      <point x="310" y="-16"/>
      <point x="464" y="-16" type="curve" smooth="yes"/>
      <point x="712" y="-16"/>
      <point x="864" y="94"/>
      <point x="864" y="302" type="curve" smooth="yes"/>
      <point x="864" y="486"/>
      <point x="704" y="566"/>
      <point x="498" y="666" type="curve" smooth="yes"/>
      <point x="402" y="712"/>
      <point x="322" y="748"/>
      <point x="324" y="846" type="curve" smooth="yes"/>
      <point x="326" y="916"/>
      <point x="396" y="958"/>
      <point x="532" y="958" type="curve" smooth="yes"/>
      <point x="634" y="958"/>
      <point x="738" y="926"/>
      <point x="774" y="896" type="curve"/>
      <point x="808" y="1070" type="line"/>
      <point x="774" y="1090"/>
      <point x="660" y="1128"/>
      <point x="520" y="1128" type="curve" smooth="yes"/>
      <point x="294" y="1128"/>
      <point x="114" y="1032"/>
      <point x="110" y="834" type="curve" smooth="yes"/>
      <point x="108" y="652"/>
      <point x="234" y="558"/>
      <point x="414" y="476" type="curve" smooth="yes"/>
      <point x="548" y="416"/>
      <point x="646" y="370"/>
      <point x="646" y="284" type="curve" smooth="yes"/>
      <point x="646" y="202"/>
      <point x="578" y="154"/>
      <point x="450" y="156" type="curve" smooth="yes"/>
      <point x="308" y="158"/>
      <point x="166" y="214"/>
      <point x="136" y="236" type="curve"/>
    </contour>
  </outline>
</glyph>
<glyph name="t" format="2">
  <advance width="846"/>
  <unicode hex="0074"/>
  <anchor x="418" y="0" name="bottom"/>
  <anchor x="480" y="-166" name="btm"/>
  <anchor x="418" y="558" name="center"/>
  <anchor x="374" y="1826" name="top"/>
  <anchor x="798" y="1114" name="topright"/>
  <outline>
    <contour>
      <point x="482" y="-16" type="curve" smooth="yes"/>
      <point x="602" y="-16"/>
      <point x="734" y="32"/>
      <point x="794" y="78" type="curve"/>
      <point x="756" y="210" type="line"/>
      <point x="720" y="188"/>
      <point x="626" y="166"/>
      <point x="570" y="166" type="curve" smooth="yes"/>
      <point x="466" y="166"/>
      <point x="446" y="184"/>
      <point x="446" y="400" type="curve" smooth="yes"/>
      <point x="446" y="944" type="line"/>
      <point x="758" y="944" type="line"/>
      <point x="758" y="1114" type="line"/>
      <point x="446" y="1114" type="line"/>
      <point x="446" y="1368" type="line"/>
      <point x="308" y="1368" type="line"/>
      <point x="280" y="1280"/>
      <point x="258" y="1210"/>
      <point x="242" y="1166" type="curve" smooth="yes"/>
      <point x="218" y="1102"/>
      <point x="170" y="1096"/>
      <point x="72" y="1068" type="curve"/>
      <point x="72" y="944" type="line"/>
      <point x="216" y="944" type="line"/>
      <point x="216" y="278" type="line" smooth="yes"/>
      <point x="216" y="44"/>
      <point x="324" y="-16"/>
    </contour>
  </outline>
</glyph>
<glyph name="u" format="2">
  <advance width="1216"/>
  <unicode hex="0075"/>
  <anchor x="598" y="0" name="bottom"/>
  <anchor x="576" y="-166" name="btm"/>
  <anchor x="1044" y="0" name="ogonek"/>
  <anchor x="604" y="1660" name="top"/>
  <anchor x="996" y="1114" name="topright"/>
  <outline>
    <contour>
      <point x="484" y="-16" type="curve" smooth="yes"/>
      <point x="604" y="-16"/>
      <point x="752" y="40"/>
      <point x="842" y="100" type="curve"/>
      <point x="838" y="144" type="line"/>
      <point x="838" y="66" type="line" smooth="yes"/>
      <point x="838" y="-8"/>
      <point x="876" y="-16"/>
      <point x="938" y="-16" type="curve" smooth="yes"/>
      <point x="1044" y="-16" type="line"/>
      <point x="1044" y="1114" type="line"/>
      <point x="814" y="1114" type="line"/>
      <point x="814" y="248" type="line"/>
      <point x="766" y="216"/>
      <point x="656" y="172"/>
      <point x="574" y="172" type="curve" smooth="yes"/>
      <point x="434" y="172"/>
      <point x="376" y="200"/>
      <point x="376" y="464" type="curve" smooth="yes"/>
      <point x="376" y="1114" type="line"/>
      <point x="146" y="1114" type="line"/>
      <point x="146" y="462" type="line" smooth="yes"/>
      <point x="146" y="176"/>
      <point x="194" y="-16"/>
    </contour>
  </outline>
</glyph>
<glyph name="v" format="2">
  <advance width="1100"/>
  <unicode hex="0076"/>
  <anchor x="551" y="0" name="bottom"/>
  <anchor x="551" y="1114" name="top"/>
  <outline>
    <contour>
      <point x="456" y="-16" type="line"/>
      <point x="655" y="-16" type="line"/>
      <point x="1082" y="1114" type="line"/>
      <point x="837" y="1114" type="line"/>
      <point x="633" y="495" type="line"/>
      <point x="530" y="121" type="line"/>
      <point x="590" y="121" type="line"/>
      <point x="478" y="495" type="line"/>
      <point x="267" y="1114" type="line"/>
      <point x="18" y="1114" type="line"/>
    </contour>
  </outline>
</glyph>
<glyph name="w" format="2">
  <advance width="1616"/>
  <unicode hex="0077"/>
  <anchor x="809" y="0" name="bottom"/>
  <anchor x="813" y="-161" name="btm"/>
  <anchor x="813" y="1669" name="top"/>
  <outline>
    <contour>
      <point x="360" y="-16" type="line"/>
      <point x="578" y="-16" type="line"/>
      <point x="770" y="688" type="line"/>
      <point x="835" y="988" type="line"/>
      <point x="787" y="988" type="line"/>
      <point x="848" y="688" type="line"/>
      <point x="1044" y="-16" type="line"/>
      <point x="1255" y="-16" type="line"/>
      <point x="1596" y="1114" type="line"/>
      <point x="1371" y="1114" type="line"/>
      <point x="1205" y="462" type="line"/>
      <point x="1126" y="113" type="line"/>
      <point x="1184" y="113" type="line"/>
      <point x="1107" y="469" type="line"/>
      <point x="926" y="1114" type="line"/>
      <point x="700" y="1114" type="line"/>
      <point x="519" y="467" type="line"/>
      <point x="443" y="109" type="line"/>
      <point x="505" y="109" type="line"/>
      <point x="424" y="469" type="line"/>
      <point x="251" y="1114" type="line"/>
      <point x="20" y="1114" type="line"/>
    </contour>
  </outline>
</glyph>
<glyph name="x" format="2">
  <advance width="1088"/>
  <unicode hex="0078"/>
  <anchor x="538" y="0" name="bottom"/>
  <anchor x="552" y="-166" name="btm"/>
  <anchor x="552" y="1660" name="top"/>
  <outline>
    <contour>
      <point x="22" y="0" type="line"/>
      <point x="286" y="0" type="line"/>
      <point x="504" y="358" type="line"/>
      <point x="570" y="492" type="line"/>
      <point x="484" y="492" type="line"/>
      <point x="566" y="360" type="line"/>
      <point x="802" y="0" type="line"/>
      <point x="1068" y="0" type="line"/>
      <point x="638" y="606" type="line"/>
      <point x="638" y="532" type="line"/>
      <point x="1060" y="1114" type="line"/>
      <point x="800" y="1114" type="line"/>
      <point x="566" y="760" type="line"/>
      <point x="508" y="644" type="line"/>
      <point x="584" y="644" type="line"/>
      <point x="516" y="758" type="line"/>
      <point x="282" y="1114" type="line"/>
      <point x="20" y="1114" type="line"/>
      <point x="440" y="530" type="line"/>
      <point x="438" y="596" type="line"/>
    </contour>
  </outline>
</glyph>
<glyph name="y" format="2">
  <advance width="1102"/>
  <unicode hex="0079"/>
  <anchor x="924" y="0" name="bottom"/>
  <anchor x="592" y="1660" name="top"/>
  <outline>
    <contour>
      <point x="138" y="-480" type="line"/>
      <point x="150" y="-488"/>
      <point x="224" y="-496"/>
      <point x="254" y="-496" type="curve" smooth="yes"/>
      <point x="284" y="-496"/>
      <point x="338" y="-488"/>
      <point x="366" y="-478" type="curve" smooth="yes"/>
      <point x="510" y="-438"/>
      <point x="634" y="-302"/>
      <point x="722" y="-34" type="curve" smooth="yes"/>
      <point x="1092" y="1114" type="line"/>
      <point x="844" y="1114" type="line"/>
      <point x="646" y="392" type="line"/>
      <point x="564" y="80" type="line"/>
      <point x="624" y="80" type="line"/>
      <point x="530" y="392" type="line"/>
      <point x="298" y="1114" type="line"/>
      <point x="50" y="1114" type="line"/>
      <point x="448" y="0" type="line"/>
      <point x="544" y="0" type="line"/>
      <point x="530" y="28" type="line"/>
      <point x="472" y="-260"/>
      <point x="320" y="-306"/>
      <point x="236" y="-306" type="curve" smooth="yes"/>
      <point x="214" y="-306"/>
      <point x="160" y="-300"/>
      <point x="138" y="-292" type="curve"/>
    </contour>
  </outline>
</glyph>
<glyph name="z" format="2">
  <advance width="1026"/>
  <unicode hex="007A"/>
  <anchor x="504" y="0" name="bottom"/>
  <anchor x="504" y="-166" name="btm"/>
  <anchor x="504" y="558" name="center"/>
  <anchor x="510" y="1660" name="top"/>
  <outline>
    <contour>
      <point x="102" y="0" type="line"/>
      <point x="938" y="0" type="line"/>
      <point x="938" y="166" type="line"/>
      <point x="374" y="166" type="line"/>
      <point x="432" y="248" type="line"/>
      <point x="958" y="1020" type="line"/>
      <point x="924" y="1114" type="line"/>
      <point x="120" y="1114" type="line"/>
      <point x="120" y="942" type="line"/>
      <point x="648" y="942" type="line"/>
      <point x="590" y="860" type="line"/>
      <point x="60" y="80" type="line"/>
    </contour>
  </outline>
</glyph>
<glyph name="braceleft" format="2">
  <advance width="962"/>
  <unicode hex="007B"/>
  <outline>
    <contour>
      <point x="328" y="58" type="line"/>
      <point x="328" y="-134"/>
      <point x="374" y="-194"/>
      <point x="524" y="-194" type="curve" smooth="yes"/>
      <point x="632" y="-194"/>
      <point x="718" y="-182"/>
      <point x="802" y="-160" type="curve"/>
      <point x="802" y="-44" type="line"/>
      <point x="542" y="-44" type="line"/>
      <point x="542" y="556" type="line" smooth="yes"/>
      <point x="542" y="590"/>
      <point x="526" y="618"/>
      <point x="502" y="644" type="curve" smooth="yes"/>
      <point x="452" y="698"/>
      <point x="358" y="740"/>
      <point x="276" y="770" type="curve"/>
      <point x="276" y="746" type="line"/>
      <point x="358" y="780"/>
      <point x="452" y="814"/>
      <point x="500" y="862" type="curve" smooth="yes"/>
      <point x="526" y="888"/>
      <point x="542" y="918"/>
      <point x="542" y="956" type="curve" smooth="yes"/>
      <point x="542" y="1552" type="line"/>
      <point x="802" y="1552" type="line"/>
      <point x="802" y="1680" type="line"/>
      <point x="718" y="1690"/>
      <point x="632" y="1704"/>
      <point x="524" y="1704" type="curve" smooth="yes"/>
      <point x="374" y="1704"/>
      <point x="328" y="1644"/>
      <point x="328" y="1452" type="curve" smooth="yes"/>
      <point x="328" y="956" type="line" smooth="yes"/>
      <point x="328" y="896"/>
      <point x="178" y="842"/>
      <point x="80" y="832" type="curve"/>
      <point x="80" y="686" type="line"/>
      <point x="178" y="676"/>
      <point x="328" y="612"/>
      <point x="328" y="554" type="curve" smooth="yes"/>
    </contour>
  </outline>
</glyph>
<glyph name="bar" format="2">
  <advance width="836"/>
  <unicode hex="007C"/>
  <outline>
    <contour>
      <point x="314" y="-184" type="line"/>
      <point x="521" y="-184" type="line"/>
      <point x="521" y="1738" type="line"/>
      <point x="314" y="1738" type="line"/>
    </contour>
  </outline>
</glyph>
<glyph name="asciitilde" format="2">
  <advance width="1406"/>
  <unicode hex="007E"/>
  <outline>
    <contour>
      <point x="325" y="660" type="line"/>
      <point x="371" y="719"/>
      <point x="422" y="769"/>
      <point x="514" y="769" type="curve" smooth="yes"/>
      <point x="656" y="769"/>
      <point x="692" y="606"/>
      <point x="883" y="606" type="curve" smooth="yes"/>
      <point x="1049" y="606"/>
      <point x="1159" y="706"/>
      <point x="1195" y="805" type="curve"/>
      <point x="1093" y="908" type="line"/>
      <point x="1046" y="849"/>
      <point x="987" y="800"/>
      <point x="895" y="800" type="curve" smooth="yes"/>
      <point x="758" y="800"/>
      <point x="711" y="962"/>
      <point x="520" y="962" type="curve" smooth="yes"/>
      <point x="359" y="962"/>
      <point x="240" y="834"/>
      <point x="209" y="752" type="curve"/>
    </contour>
  </outline>
</glyph>
<glyph name="cent" format="2">
  <advance width="1156"/>
  <unicode hex="00A2"/>
  <outline>
    <contour>
      <point x="596" y="1042" type="line"/>
      <point x="748" y="1042" type="line"/>
      <point x="754" y="1344" type="line"/>
      <point x="604" y="1344" type="line"/>
    </contour>
    <contour>
      <point x="564" y="-210" type="line"/>
      <point x="714" y="-210" type="line"/>
      <point x="720" y="90" type="line"/>
      <point x="570" y="90" type="line"/>
    </contour>
    <component base="c" xOffset="56"/>
  </outline>
</glyph>
<glyph name="sterling" format="2">
  <advance width="1504"/>
  <unicode hex="00A3"/>
  <outline>
    <contour>
      <point x="137" y="84" type="curve" smooth="yes"/>
      <point x="137" y="29"/>
      <point x="202" y="-3"/>
      <point x="248" y="-3" type="curve" smooth="yes"/>
      <point x="326" y="-3"/>
      <point x="405" y="45"/>
      <point x="445" y="90" type="curve"/>
      <point x="541" y="98"/>
      <point x="671" y="-20"/>
      <point x="945" y="-20" type="curve" smooth="yes"/>
      <point x="1223" y="-20"/>
      <point x="1370" y="91"/>
      <point x="1370" y="315" type="curve" smooth="yes"/>
      <point x="1370" y="443"/>
      <point x="1291" y="531"/>
      <point x="1244" y="557" type="curve"/>
      <point x="1083" y="474" type="line"/>
      <point x="1113" y="462"/>
      <point x="1154" y="401"/>
      <point x="1154" y="328" type="curve" smooth="yes"/>
      <point x="1154" y="229"/>
      <point x="1100" y="144"/>
      <point x="916" y="144" type="curve" smooth="yes"/>
      <point x="749" y="144"/>
      <point x="693" y="193"/>
      <point x="574" y="214" type="curve"/>
      <point x="644" y="287"/>
      <point x="657" y="430"/>
      <point x="656" y="675" type="curve" smooth="yes"/>
      <point x="654" y="983" type="line" smooth="yes"/>
      <point x="652" y="1279"/>
      <point x="771" y="1326"/>
      <point x="879" y="1326" type="curve" smooth="yes"/>
      <point x="994" y="1326"/>
      <point x="1061" y="1283"/>
      <point x="1113" y="1238" type="curve"/>
      <point x="1219" y="1406" type="line"/>
      <point x="1158" y="1456"/>
      <point x="1054" y="1502"/>
      <point x="892" y="1502" type="curve" smooth="yes"/>
      <point x="592" y="1502"/>
      <point x="422" y="1307"/>
      <point x="422" y="1016" type="curve" smooth="yes"/>
      <point x="422" y="469" type="line" smooth="yes"/>
      <point x="422" y="398"/>
      <point x="418" y="310"/>
      <point x="393" y="259" type="curve"/>
      <point x="225" y="251"/>
      <point x="137" y="177"/>
    </contour>
    <contour>
      <point x="247" y="731" type="line"/>
      <point x="991" y="731" type="line"/>
      <point x="991" y="884" type="line"/>
      <point x="247" y="884" type="line"/>
    </contour>
  </outline>
</glyph>
<glyph name="currency" format="2">
  <advance width="1495"/>
  <unicode hex="00A4"/>
  <outline>
    <contour>
      <point x="746" y="322" type="curve" smooth="yes"/>
      <point x="986" y="322"/>
      <point x="1179" y="513"/>
      <point x="1179" y="754" type="curve" smooth="yes"/>
      <point x="1179" y="997"/>
      <point x="986" y="1188"/>
      <point x="746" y="1188" type="curve" smooth="yes"/>
      <point x="507" y="1188"/>
      <point x="313" y="997"/>
      <point x="313" y="754" type="curve"/>
      <point x="313" y="513"/>
      <point x="507" y="322"/>
    </contour>
    <contour>
      <point x="748" y="491" type="curve" smooth="yes"/>
      <point x="608" y="491"/>
      <point x="495" y="611"/>
      <point x="495" y="754" type="curve" smooth="yes"/>
      <point x="495" y="899"/>
      <point x="608" y="1019"/>
      <point x="748" y="1019" type="curve" smooth="yes"/>
      <point x="886" y="1019"/>
      <point x="998" y="899"/>
      <point x="998" y="754" type="curve" smooth="yes"/>
      <point x="998" y="611"/>
      <point x="886" y="491"/>
    </contour>
    <contour>
      <point x="415" y="983" type="line"/>
      <point x="541" y="1109" type="line"/>
      <point x="320" y="1334" type="line"/>
      <point x="194" y="1205" type="line"/>
    </contour>
    <contour>
      <point x="1079" y="981" type="line"/>
      <point x="1305" y="1208" type="line"/>
      <point x="1179" y="1336" type="line"/>
      <point x="953" y="1110" type="line"/>
    </contour>
    <contour>
      <point x="321" y="174" type="line"/>
      <point x="543" y="397" type="line"/>
      <point x="415" y="524" type="line"/>
      <point x="194" y="301" type="line"/>
    </contour>
    <contour>
      <point x="1174" y="178" type="line"/>
      <point x="1300" y="305" type="line"/>
      <point x="1079" y="528" type="line"/>
      <point x="953" y="400" type="line"/>
    </contour>
  </outline>
</glyph>
<glyph name="yen" format="2">
  <advance width="1504"/>
  <unicode hex="00A5"/>
  <outline>
    <contour>
      <point x="641" y="0" type="line"/>
      <point x="868" y="0" type="line"/>
      <point x="868" y="805" type="line"/>
      <point x="819" y="647" type="line"/>
      <point x="1355" y="1486" type="line"/>
      <point x="1112" y="1486" type="line"/>
      <point x="816" y="997" type="line"/>
      <point x="732" y="806" type="line"/>
      <point x="749" y="806"/>
      <point x="766" y="806"/>
      <point x="783" y="806" type="curve"/>
      <point x="692" y="992" type="line"/>
      <point x="406" y="1486" type="line"/>
      <point x="159" y="1486" type="line"/>
      <point x="694" y="632" type="line"/>
      <point x="641" y="805" type="line"/>
    </contour>
    <contour>
      <point x="270" y="651" type="line"/>
      <point x="1217" y="651" type="line"/>
      <point x="1217" y="799" type="line"/>
      <point x="270" y="799" type="line"/>
    </contour>
    <contour>
      <point x="270" y="282" type="line"/>
      <point x="1217" y="282" type="line"/>
      <point x="1217" y="430" type="line"/>
      <point x="270" y="430" type="line"/>
    </contour>
  </outline>
</glyph>
<glyph name="brokenbar" format="2">
  <advance width="836"/>
  <unicode hex="00A6"/>
  <outline>
    <contour>
      <point x="314" y="-182" type="line"/>
      <point x="521" y="-182" type="line"/>
      <point x="521" y="622" type="line"/>
      <point x="314" y="622" type="line"/>
    </contour>
    <contour>
      <point x="314" y="930" type="line"/>
      <point x="521" y="930" type="line"/>
      <point x="521" y="1738" type="line"/>
      <point x="314" y="1738" type="line"/>
    </contour>
  </outline>
</glyph>
<glyph name="section" format="2">
  <advance width="1334"/>
  <unicode hex="00A7"/>
  <outline>
    <contour>
      <point x="225" y="1299" type="curve" smooth="yes"/>
      <point x="225" y="882"/>
      <point x="923" y="928"/>
      <point x="923" y="604" type="curve" smooth="yes"/>
      <point x="923" y="522"/>
      <point x="867" y="396"/>
      <point x="829" y="344" type="curve"/>
      <point x="931" y="286" type="line"/>
      <point x="1045" y="372"/>
      <point x="1129" y="498"/>
      <point x="1129" y="642" type="curve" smooth="yes"/>
      <point x="1129" y="1052"/>
      <point x="438" y="1053"/>
      <point x="438" y="1318" type="curve" smooth="yes"/>
      <point x="438" y="1423"/>
      <point x="553" y="1462"/>
      <point x="680" y="1464" type="curve" smooth="yes"/>
      <point x="854" y="1464"/>
      <point x="953" y="1420"/>
      <point x="998" y="1390" type="curve"/>
      <point x="1038" y="1562" type="line"/>
      <point x="982" y="1596"/>
      <point x="864" y="1634"/>
      <point x="680" y="1634" type="curve" smooth="yes"/>
      <point x="480" y="1634"/>
      <point x="225" y="1558"/>
    </contour>
    <contour>
      <point x="1113" y="148" type="curve" smooth="yes"/>
      <point x="1113" y="552"/>
      <point x="416" y="479"/>
      <point x="416" y="786" type="curve" smooth="yes"/>
      <point x="416" y="868"/>
      <point x="472" y="984"/>
      <point x="511" y="1036" type="curve"/>
      <point x="402" y="1094" type="line"/>
      <point x="292" y="1012"/>
      <point x="208" y="888"/>
      <point x="208" y="750" type="curve" smooth="yes"/>
      <point x="208" y="348"/>
      <point x="901" y="372"/>
      <point x="901" y="132" type="curve" smooth="yes"/>
      <point x="901" y="21"/>
      <point x="774" y="-18"/>
      <point x="633" y="-18" type="curve" smooth="yes"/>
      <point x="457" y="-20"/>
      <point x="322" y="36"/>
      <point x="269" y="74" type="curve"/>
      <point x="229" y="-98" type="line"/>
      <point x="289" y="-140"/>
      <point x="451" y="-188"/>
      <point x="633" y="-188" type="curve" smooth="yes"/>
      <point x="847" y="-188"/>
      <point x="1113" y="-108"/>
    </contour>
  </outline>
</glyph>
<glyph name="dieresis" format="2">
  <advance width="862"/>
  <unicode hex="00A8"/>
  <outline>
    <contour>
      <point x="194" y="1323" type="curve" smooth="yes"/>
      <point x="276" y="1323"/>
      <point x="349" y="1385"/>
      <point x="349" y="1473" type="curve" smooth="yes"/>
      <point x="349" y="1547"/>
      <point x="308" y="1608"/>
      <point x="217" y="1608" type="curve" smooth="yes"/>
      <point x="138" y="1608"/>
      <point x="60" y="1540"/>
      <point x="60" y="1456" type="curve" smooth="yes"/>
      <point x="60" y="1374"/>
      <point x="119" y="1323"/>
    </contour>
    <contour>
      <point x="646" y="1323" type="curve" smooth="yes"/>
      <point x="729" y="1323"/>
      <point x="801" y="1385"/>
      <point x="801" y="1473" type="curve" smooth="yes"/>
      <point x="801" y="1547"/>
      <point x="761" y="1608"/>
      <point x="669" y="1608" type="curve" smooth="yes"/>
      <point x="589" y="1608"/>
      <point x="512" y="1540"/>
      <point x="512" y="1456" type="curve" smooth="yes"/>
      <point x="512" y="1374"/>
      <point x="571" y="1323"/>
    </contour>
  </outline>
</glyph>
<glyph name="copyright" format="2">
  <advance width="2074"/>
  <unicode hex="00A9"/>
  <outline>
    <contour>
      <point x="187" y="940" type="curve" smooth="yes"/>
      <point x="187" y="464"/>
      <point x="561" y="80"/>
      <point x="1037" y="80" type="curve" smooth="yes"/>
      <point x="1511" y="80"/>
      <point x="1887" y="464"/>
      <point x="1887" y="940" type="curve" smooth="yes"/>
      <point x="1887" y="1416"/>
      <point x="1511" y="1796"/>
      <point x="1037" y="1796" type="curve" smooth="yes"/>
      <point x="561" y="1796"/>
      <point x="187" y="1416"/>
    </contour>
    <contour>
      <point x="325" y="940" type="curve" smooth="yes"/>
      <point x="325" y="1344"/>
      <point x="627" y="1674"/>
      <point x="1037" y="1674" type="curve" smooth="yes"/>
      <point x="1445" y="1674"/>
      <point x="1747" y="1344"/>
      <point x="1747" y="940" type="curve" smooth="yes"/>
      <point x="1747" y="536"/>
      <point x="1445" y="206"/>
      <point x="1037" y="206" type="curve" smooth="yes"/>
      <point x="627" y="206"/>
      <point x="325" y="536"/>
    </contour>
    <contour>
      <point x="603" y="933" type="curve" smooth="yes"/>
      <point x="603" y="689"/>
      <point x="765" y="467"/>
      <point x="1034" y="467" type="curve" smooth="yes"/>
      <point x="1164" y="467"/>
      <point x="1284" y="507"/>
      <point x="1347" y="561" type="curve"/>
      <point x="1303" y="687" type="line"/>
      <point x="1254" y="661"/>
      <point x="1167" y="628"/>
      <point x="1065" y="628" type="curve" smooth="yes"/>
      <point x="910" y="628"/>
      <point x="800" y="738"/>
      <point x="800" y="952" type="curve" smooth="yes"/>
      <point x="800" y="1125"/>
      <point x="897" y="1255"/>
      <point x="1071" y="1255" type="curve" smooth="yes"/>
      <point x="1166" y="1255"/>
      <point x="1237" y="1229"/>
      <point x="1289" y="1196" type="curve"/>
      <point x="1323" y="1363" type="line"/>
      <point x="1288" y="1382"/>
      <point x="1210" y="1416"/>
      <point x="1087" y="1416" type="curve" smooth="yes"/>
      <point x="773" y="1416"/>
      <point x="603" y="1208"/>
    </contour>
  </outline>
</glyph>
<glyph name="ordfeminine" format="2">
  <advance width="1016"/>
  <unicode hex="00AA"/>
  <outline>
    <contour>
      <point x="417" y="660" type="curve" smooth="yes"/>
      <point x="531" y="660"/>
      <point x="628" y="708"/>
      <point x="671" y="753" type="curve"/>
      <point x="703" y="813" type="line"/>
      <point x="661" y="871" type="line"/>
      <point x="641" y="852"/>
      <point x="554" y="810"/>
      <point x="461" y="810" type="curve" smooth="yes"/>
      <point x="384" y="810"/>
      <point x="322" y="845"/>
      <point x="322" y="920" type="curve" smooth="yes"/>
      <point x="322" y="988"/>
      <point x="347" y="1023"/>
      <point x="405" y="1052" type="curve" smooth="yes"/>
      <point x="475" y="1087"/>
      <point x="569" y="1086"/>
      <point x="661" y="1086" type="curve"/>
      <point x="703" y="1150" type="line"/>
      <point x="661" y="1210" type="line"/>
      <point x="553" y="1210"/>
      <point x="415" y="1198"/>
      <point x="299" y="1154" type="curve" smooth="yes"/>
      <point x="195" y="1114"/>
      <point x="123" y="1039"/>
      <point x="123" y="906" type="curve" smooth="yes"/>
      <point x="123" y="750"/>
      <point x="242" y="660"/>
    </contour>
    <contour>
      <point x="866" y="669" type="line"/>
      <point x="866" y="1138" type="line"/>
      <point x="866" y="1273" type="line" smooth="yes"/>
      <point x="866" y="1494"/>
      <point x="734" y="1565"/>
      <point x="519" y="1565" type="curve" smooth="yes"/>
      <point x="368" y="1565"/>
      <point x="183" y="1488"/>
      <point x="147" y="1454" type="curve"/>
      <point x="203" y="1330" type="line"/>
      <point x="245" y="1360"/>
      <point x="388" y="1407"/>
      <point x="476" y="1407" type="curve" smooth="yes"/>
      <point x="598" y="1407"/>
      <point x="661" y="1394"/>
      <point x="661" y="1267" type="curve" smooth="yes"/>
      <point x="661" y="803" type="line"/>
      <point x="671" y="803" type="line"/>
      <point x="671" y="741" type="line" smooth="yes"/>
      <point x="671" y="664"/>
      <point x="713" y="669"/>
      <point x="786" y="669" type="curve" smooth="yes"/>
    </contour>
  </outline>
</glyph>
<glyph name="guillemetleft" format="2">
  <advance width="1901"/>
  <unicode hex="00AB"/>
  <outline>
    <contour>
      <point x="238" y="501" type="line"/>
      <point x="848" y="97" type="line"/>
      <point x="906" y="261" type="line"/>
      <point x="406" y="642" type="line"/>
      <point x="406" y="558" type="line"/>
      <point x="906" y="943" type="line"/>
      <point x="848" y="1110" type="line"/>
      <point x="238" y="692" type="line"/>
    </contour>
    <contour>
      <point x="961" y="501" type="line"/>
      <point x="1591" y="97" type="line"/>
      <point x="1649" y="261" type="line"/>
      <point x="1129" y="642" type="line"/>
      <point x="1129" y="558" type="line"/>
      <point x="1649" y="943" type="line"/>
      <point x="1591" y="1110" type="line"/>
      <point x="961" y="692" type="line"/>
    </contour>
  </outline>
</glyph>
<glyph name="logicalnot" format="2">
  <advance width="1438"/>
  <unicode hex="00AC"/>
  <outline>
    <contour>
      <point x="235" y="663" type="line"/>
      <point x="999" y="663" type="line"/>
      <point x="999" y="316" type="line"/>
      <point x="1203" y="316" type="line"/>
      <point x="1203" y="832" type="line"/>
      <point x="235" y="832" type="line"/>
    </contour>
  </outline>
</glyph>
<glyph name="registered" format="2">
  <advance width="2074"/>
  <unicode hex="00AE"/>
  <outline>
    <contour>
      <point x="186" y="940" type="curve" smooth="yes"/>
      <point x="186" y="464"/>
      <point x="561" y="80"/>
      <point x="1037" y="80" type="curve" smooth="yes"/>
      <point x="1511" y="80"/>
      <point x="1888" y="464"/>
      <point x="1888" y="940" type="curve" smooth="yes"/>
      <point x="1888" y="1416"/>
      <point x="1511" y="1796"/>
      <point x="1037" y="1796" type="curve" smooth="yes"/>
      <point x="561" y="1796"/>
      <point x="186" y="1416"/>
    </contour>
    <contour>
      <point x="324" y="940" type="curve" smooth="yes"/>
      <point x="324" y="1344"/>
      <point x="628" y="1674"/>
      <point x="1037" y="1674" type="curve" smooth="yes"/>
      <point x="1444" y="1674"/>
      <point x="1748" y="1344"/>
      <point x="1748" y="940" type="curve" smooth="yes"/>
      <point x="1748" y="536"/>
      <point x="1444" y="206"/>
      <point x="1037" y="206" type="curve" smooth="yes"/>
      <point x="628" y="206"/>
      <point x="324" y="536"/>
    </contour>
    <contour>
      <point x="715" y="468" type="line"/>
      <point x="895" y="468" type="line"/>
      <point x="895" y="825" type="line"/>
      <point x="938" y="825"/>
      <point x="987" y="825"/>
      <point x="1009" y="827" type="curve"/>
      <point x="1099" y="801"/>
      <point x="1138" y="683"/>
      <point x="1179" y="595" type="curve" smooth="yes"/>
      <point x="1202" y="546"/>
      <point x="1221" y="507"/>
      <point x="1251" y="468" type="curve"/>
      <point x="1458" y="468" type="line"/>
      <point x="1404" y="549"/>
      <point x="1384" y="576"/>
      <point x="1364" y="614" type="curve" smooth="yes"/>
      <point x="1318" y="698"/>
      <point x="1280" y="800"/>
      <point x="1208" y="851" type="curve"/>
      <point x="1346" y="893"/>
      <point x="1395" y="1004"/>
      <point x="1395" y="1146" type="curve" smooth="yes"/>
      <point x="1395" y="1294"/>
      <point x="1289" y="1414"/>
      <point x="1046" y="1414" type="curve" smooth="yes"/>
      <point x="949" y="1414"/>
      <point x="864" y="1408"/>
      <point x="793" y="1408" type="curve" smooth="yes"/>
      <point x="766" y="1408"/>
      <point x="742" y="1408"/>
      <point x="715" y="1408" type="curve"/>
    </contour>
    <contour>
      <point x="895" y="959" type="curve"/>
      <point x="895" y="1269" type="line"/>
      <point x="931" y="1280"/>
      <point x="958" y="1279"/>
      <point x="999" y="1281" type="curve" smooth="yes"/>
      <point x="1167" y="1285"/>
      <point x="1209" y="1221"/>
      <point x="1209" y="1123" type="curve" smooth="yes"/>
      <point x="1209" y="1000"/>
      <point x="1146" y="955"/>
      <point x="1019" y="955" type="curve" smooth="yes"/>
      <point x="986" y="955"/>
      <point x="923" y="955"/>
    </contour>
  </outline>
</glyph>
<glyph name="macron" format="2">
  <advance width="641"/>
  <unicode hex="00AF"/>
  <anchor x="319" y="1660" name="_top"/>
  <outline>
    <contour>
      <point x="49" y="1391" type="line"/>
      <point x="592" y="1391" type="line"/>
      <point x="592" y="1557" type="line"/>
      <point x="49" y="1557" type="line"/>
    </contour>
  </outline>
</glyph>
<glyph name="degree" format="2">
  <advance width="898"/>
  <unicode hex="00B0"/>
  <outline>
    <contour>
      <point x="114" y="1248" type="curve" smooth="yes"/>
      <point x="114" y="1057"/>
      <point x="264" y="913"/>
      <point x="450" y="913" type="curve" smooth="yes"/>
      <point x="637" y="913"/>
      <point x="785" y="1054"/>
      <point x="785" y="1248" type="curve" smooth="yes"/>
      <point x="785" y="1439"/>
      <point x="636" y="1583"/>
      <point x="450" y="1583" type="curve" smooth="yes"/>
      <point x="261" y="1583"/>
      <point x="114" y="1441"/>
    </contour>
    <contour>
      <point x="278" y="1248" type="curve" smooth="yes"/>
      <point x="278" y="1352"/>
      <point x="354" y="1428"/>
      <point x="450" y="1428" type="curve" smooth="yes"/>
      <point x="544" y="1428"/>
      <point x="620" y="1352"/>
      <point x="620" y="1248" type="curve" smooth="yes"/>
      <point x="620" y="1144"/>
      <point x="544" y="1068"/>
      <point x="450" y="1068" type="curve" smooth="yes"/>
      <point x="354" y="1068"/>
      <point x="278" y="1144"/>
    </contour>
  </outline>
</glyph>
<glyph name="plusminus" format="2">
  <advance width="1362"/>
  <unicode hex="00B1"/>
  <outline>
    <contour>
      <point x="243" y="0" type="line"/>
      <point x="1118" y="0" type="line"/>
      <point x="1118" y="168" type="line"/>
      <point x="243" y="168" type="line"/>
    </contour>
    <component base="plus"/>
  </outline>
</glyph>
<glyph name="acute" format="2">
  <advance width="592"/>
  <unicode hex="00B4"/>
  <anchor x="177" y="1660" name="_top"/>
  <outline>
    <contour>
      <point x="165" y="1257" type="line"/>
      <point x="237" y="1286"/>
      <point x="494" y="1516"/>
      <point x="543" y="1608" type="curve"/>
      <point x="379" y="1746" type="line"/>
      <point x="285" y="1606"/>
      <point x="161" y="1472"/>
      <point x="49" y="1353" type="curve"/>
    </contour>
  </outline>
</glyph>
<glyph name="micro" format="2">
  <advance width="1336"/>
  <unicode hex="00B5"/>
  <outline>
    <contour>
      <point x="201" y="-362" type="line"/>
      <point x="414" y="-362" type="line"/>
      <point x="378" y="158" type="line"/>
      <point x="340" y="148" type="line"/>
      <point x="400" y="22"/>
      <point x="492" y="-16"/>
      <point x="642" y="-16" type="curve" smooth="yes"/>
      <point x="784" y="-16"/>
      <point x="857" y="65"/>
      <point x="903" y="118" type="curve"/>
      <point x="899" y="17"/>
      <point x="952" y="-18"/>
      <point x="1025" y="-18" type="curve" smooth="yes"/>
      <point x="1137" y="-18"/>
      <point x="1226" y="64"/>
      <point x="1240" y="84" type="curve"/>
      <point x="1210" y="188" type="line"/>
      <point x="1174" y="168"/>
      <point x="1146" y="162"/>
      <point x="1134" y="162" type="curve" smooth="yes"/>
      <point x="1112" y="162"/>
      <point x="1098" y="176"/>
      <point x="1098" y="236" type="curve" smooth="yes"/>
      <point x="1098" y="1114" type="line"/>
      <point x="868" y="1114" type="line"/>
      <point x="868" y="249" type="line"/>
      <point x="819" y="212"/>
      <point x="738" y="167"/>
      <point x="664" y="167" type="curve" smooth="yes"/>
      <point x="505" y="167"/>
      <point x="429" y="227"/>
      <point x="429" y="405" type="curve" smooth="yes"/>
      <point x="429" y="1114" type="line"/>
      <point x="201" y="1114" type="line"/>
    </contour>
  </outline>
</glyph>
<glyph name="paragraph" format="2">
  <advance width="1368"/>
  <unicode hex="00B6"/>
  <outline>
    <contour>
      <point x="562" y="0" type="line"/>
      <point x="754" y="0" type="line"/>
      <point x="754" y="1508" type="line"/>
      <point x="984" y="1508" type="line"/>
      <point x="984" y="0" type="line"/>
      <point x="1176" y="0" type="line"/>
      <point x="1176" y="1652" type="line"/>
      <point x="1060" y="1654"/>
      <point x="798" y="1670"/>
      <point x="704" y="1670" type="curve" smooth="yes"/>
      <point x="332" y="1670"/>
      <point x="140" y="1496"/>
      <point x="140" y="1218" type="curve" smooth="yes"/>
      <point x="140" y="894"/>
      <point x="290" y="758"/>
      <point x="562" y="758" type="curve"/>
    </contour>
  </outline>
</glyph>
<glyph name="cedilla" format="2">
  <advance width="480"/>
  <unicode hex="00B8"/>
  <outline>
    <contour>
      <point x="44" y="-426" type="line"/>
      <point x="66" y="-442"/>
      <point x="139" y="-454"/>
      <point x="193" y="-454" type="curve" smooth="yes"/>
      <point x="308" y="-454"/>
      <point x="417" y="-387"/>
      <point x="430" y="-223" type="curve" smooth="yes"/>
      <point x="437" y="-117"/>
      <point x="419" y="-17"/>
      <point x="373" y="30" type="curve"/>
      <point x="330" y="34" type="line"/>
      <point x="240" y="30" type="line"/>
      <point x="259" y="-7"/>
      <point x="273" y="-58"/>
      <point x="261" y="-150" type="curve" smooth="yes"/>
      <point x="255" y="-255"/>
      <point x="202" y="-296"/>
      <point x="138" y="-296" type="curve" smooth="yes"/>
      <point x="108" y="-296"/>
      <point x="76" y="-294"/>
      <point x="59" y="-284" type="curve"/>
    </contour>
  </outline>
</glyph>
<glyph name="ordmasculine" format="2">
  <advance width="1014"/>
  <unicode hex="00BA"/>
  <outline>
    <contour>
      <point x="103" y="1125" type="curve" smooth="yes"/>
      <point x="101" y="844"/>
      <point x="246" y="661"/>
      <point x="503" y="661" type="curve" smooth="yes"/>
      <point x="704" y="661"/>
      <point x="906" y="784"/>
      <point x="910" y="1105" type="curve" smooth="yes"/>
      <point x="914" y="1378"/>
      <point x="777" y="1565"/>
      <point x="524" y="1565" type="curve" smooth="yes"/>
      <point x="330" y="1565"/>
      <point x="109" y="1446"/>
    </contour>
    <contour>
      <point x="317" y="1125" type="curve" smooth="yes"/>
      <point x="317" y="1333"/>
      <point x="399" y="1412"/>
      <point x="513" y="1414" type="curve" smooth="yes"/>
      <point x="634" y="1416"/>
      <point x="698" y="1296"/>
      <point x="698" y="1103" type="curve" smooth="yes"/>
      <point x="698" y="895"/>
      <point x="634" y="814"/>
      <point x="513" y="812" type="curve" smooth="yes"/>
      <point x="389" y="810"/>
      <point x="317" y="933"/>
    </contour>
  </outline>
</glyph>
<glyph name="guillemetright" format="2">
  <advance width="1924"/>
  <unicode hex="00BB"/>
  <outline>
    <contour>
      <point x="1684" y="502" type="line"/>
      <point x="1684" y="692" type="line"/>
      <point x="1072" y="1110" type="line"/>
      <point x="1014" y="942" type="line"/>
      <point x="1518" y="558" type="line"/>
      <point x="1518" y="642" type="line"/>
      <point x="1014" y="260" type="line"/>
      <point x="1072" y="98" type="line"/>
    </contour>
    <contour>
      <point x="934" y="502" type="line"/>
      <point x="934" y="692" type="line"/>
      <point x="308" y="1110" type="line"/>
      <point x="250" y="942" type="line"/>
      <point x="766" y="558" type="line"/>
      <point x="766" y="642" type="line"/>
      <point x="250" y="260" type="line"/>
      <point x="308" y="98" type="line"/>
    </contour>
  </outline>
</glyph>
<glyph name="questiondown" format="2">
  <advance width="1040"/>
  <unicode hex="00BF"/>
  <outline>
    <contour>
      <point x="671" y="1004" type="curve"/>
      <point x="496" y="1004" type="line"/>
      <point x="523" y="908"/>
      <point x="546" y="850"/>
      <point x="537" y="763" type="curve" smooth="yes"/>
      <point x="522" y="575"/>
      <point x="152" y="541"/>
      <point x="111" y="239" type="curve" smooth="yes"/>
      <point x="62" y="-36"/>
      <point x="218" y="-309"/>
      <point x="682" y="-309" type="curve" smooth="yes"/>
      <point x="785" y="-309"/>
      <point x="878" y="-283"/>
      <point x="903" y="-266" type="curve"/>
      <point x="903" y="-98" type="line"/>
      <point x="878" y="-104"/>
      <point x="823" y="-117"/>
      <point x="723" y="-117" type="curve" smooth="yes"/>
      <point x="444" y="-117"/>
      <point x="291" y="15"/>
      <point x="344" y="250" type="curve" smooth="yes"/>
      <point x="370" y="439"/>
      <point x="764" y="507"/>
      <point x="757" y="735" type="curve" smooth="yes"/>
      <point x="753" y="852"/>
      <point x="714" y="950"/>
    </contour>
    <contour>
      <point x="557" y="1510" type="curve" smooth="yes"/>
      <point x="471" y="1510"/>
      <point x="392" y="1435"/>
      <point x="395" y="1338" type="curve" smooth="yes"/>
      <point x="397" y="1259"/>
      <point x="448" y="1191"/>
      <point x="541" y="1191" type="curve" smooth="yes"/>
      <point x="623" y="1191"/>
      <point x="703" y="1269"/>
      <point x="701" y="1359" type="curve" smooth="yes"/>
      <point x="699" y="1446"/>
      <point x="631" y="1510"/>
    </contour>
  </outline>
</glyph>
<glyph name="AE" format="2">
  <advance width="1830"/>
  <unicode hex="00C6"/>
  <anchor x="915" y="0" name="bottom"/>
  <anchor x="1354" y="-166" name="btm"/>
  <anchor x="1001" y="1660" name="top"/>
  <outline>
    <contour>
      <point x="-78" y="0" type="line"/>
      <point x="179" y="0" type="line"/>
      <point x="834" y="1378" type="line"/>
      <point x="637" y="1486" type="line"/>
    </contour>
    <contour>
      <point x="822" y="1486" type="line"/>
      <point x="637" y="1486" type="line"/>
      <point x="667" y="1344" type="line"/>
      <point x="901" y="1344" type="line"/>
    </contour>
    <contour>
      <point x="230" y="375" type="line"/>
      <point x="986" y="375" type="line"/>
      <point x="952" y="546" type="line"/>
      <point x="272" y="546" type="line"/>
    </contour>
    <contour>
      <point x="822" y="0" type="line"/>
      <point x="1756" y="0" type="line"/>
      <point x="1756" y="184" type="line"/>
      <point x="1056" y="184" type="line"/>
      <point x="1056" y="676" type="line"/>
      <point x="1521" y="676" type="line"/>
      <point x="1521" y="856" type="line"/>
      <point x="1056" y="856" type="line"/>
      <point x="1056" y="1306" type="line"/>
      <point x="1685" y="1306" type="line"/>
      <point x="1685" y="1486" type="line"/>
      <point x="822" y="1486" type="line"/>
    </contour>
  </outline>
</glyph>
<glyph name="Eth" format="2">
  <advance width="1452"/>
  <unicode hex="00D0"/>
  <outline>
    <contour>
      <point x="65" y="699" type="line"/>
      <point x="798" y="699" type="line"/>
      <point x="798" y="853" type="line"/>
      <point x="65" y="853" type="line"/>
    </contour>
    <component base="D"/>
  </outline>
</glyph>
<glyph name="multiply" format="2">
  <advance width="1340"/>
  <unicode hex="00D7"/>
  <outline>
    <contour>
      <point x="217" y="423" type="line"/>
      <point x="352" y="291" type="line"/>
      <point x="671" y="629" type="line"/>
      <point x="990" y="291" type="line"/>
      <point x="1125" y="423" type="line"/>
      <point x="792" y="758" type="line"/>
      <point x="1125" y="1099" type="line"/>
      <point x="990" y="1231" type="line"/>
      <point x="671" y="881" type="line"/>
      <point x="352" y="1231" type="line"/>
      <point x="217" y="1099" type="line"/>
      <point x="550" y="756" type="line"/>
    </contour>
  </outline>
</glyph>
<glyph name="Oslash" format="2">
  <advance width="1537"/>
  <unicode hex="00D8"/>
  <anchor x="768" y="0" name="bottom"/>
  <anchor x="752" y="1660" name="top"/>
  <outline>
    <contour>
      <point x="359" y="-199" type="line"/>
      <point x="1296" y="1670" type="line"/>
      <point x="1180" y="1705" type="line"/>
      <point x="242" y="-164" type="line"/>
    </contour>
    <contour>
      <point x="762" y="-16" type="curve" smooth="yes"/>
      <point x="1145" y="-8"/>
      <point x="1429" y="245"/>
      <point x="1439" y="744" type="curve" smooth="yes"/>
      <point x="1449" y="1204"/>
      <point x="1189" y="1504"/>
      <point x="792" y="1502" type="curve" smooth="yes"/>
      <point x="410" y="1500"/>
      <point x="108" y="1253"/>
      <point x="98" y="753" type="curve" smooth="yes"/>
      <point x="88" y="302"/>
      <point x="347" y="-24"/>
    </contour>
    <contour>
      <point x="768" y="163" type="curve" smooth="yes"/>
      <point x="482" y="163"/>
      <point x="335" y="435"/>
      <point x="335" y="740" type="curve" smooth="yes"/>
      <point x="335" y="1143"/>
      <point x="542" y="1324"/>
      <point x="784" y="1324" type="curve" smooth="yes"/>
      <point x="1061" y="1324"/>
      <point x="1201" y="1062"/>
      <point x="1201" y="754" type="curve" smooth="yes"/>
      <point x="1201" y="366"/>
      <point x="1031" y="163"/>
    </contour>
  </outline>
</glyph>
<glyph name="Thorn" format="2">
  <advance width="1238"/>
  <unicode hex="00DE"/>
  <anchor x="612" y="0" name="bottom"/>
  <anchor x="612" y="1486" name="top"/>
  <outline>
    <contour>
      <point x="592" y="274" type="curve" smooth="yes"/>
      <point x="962" y="274"/>
      <point x="1160" y="458"/>
      <point x="1160" y="776" type="curve" smooth="yes"/>
      <point x="1160" y="1088"/>
      <point x="974" y="1234"/>
      <point x="640" y="1234" type="curve" smooth="yes"/>
      <point x="524" y="1234"/>
      <point x="416" y="1220"/>
      <point x="328" y="1218" type="curve"/>
      <point x="396" y="1042" type="line"/>
      <point x="446" y="1058"/>
      <point x="508" y="1062"/>
      <point x="564" y="1064" type="curve" smooth="yes"/>
      <point x="808" y="1072"/>
      <point x="928" y="980"/>
      <point x="928" y="774" type="curve" smooth="yes"/>
      <point x="928" y="496"/>
      <point x="758" y="446"/>
      <point x="568" y="446" type="curve" smooth="yes"/>
      <point x="516" y="446"/>
      <point x="460" y="446"/>
      <point x="396" y="458" type="curve"/>
      <point x="396" y="282" type="line"/>
      <point x="434" y="282"/>
      <point x="496" y="274"/>
    </contour>
    <contour>
      <point x="176" y="0" type="line"/>
      <point x="412" y="0" type="line"/>
      <point x="412" y="1486" type="line"/>
      <point x="176" y="1486" type="line"/>
    </contour>
  </outline>
</glyph>
<glyph name="germandbls" format="2">
  <advance width="1282"/>
  <unicode hex="00DF"/>
  <anchor x="644" y="0" name="bottom"/>
  <anchor x="644" y="1114" name="top"/>
  <outline>
    <contour>
      <point x="186" y="0" type="line"/>
      <point x="416" y="0" type="line"/>
      <point x="416" y="926" type="line" smooth="yes"/>
      <point x="416" y="1276"/>
      <point x="530" y="1382"/>
      <point x="692" y="1382" type="curve" smooth="yes"/>
      <point x="812" y="1382"/>
      <point x="878" y="1332"/>
      <point x="878" y="1236" type="curve" smooth="yes"/>
      <point x="878" y="1066"/>
      <point x="676" y="1012"/>
      <point x="676" y="830" type="curve" smooth="yes"/>
      <point x="676" y="528"/>
      <point x="1002" y="502"/>
      <point x="1004" y="288" type="curve" smooth="yes"/>
      <point x="1004" y="178"/>
      <point x="918" y="144"/>
      <point x="842" y="144" type="curve" smooth="yes"/>
      <point x="728" y="144"/>
      <point x="652" y="176"/>
      <point x="618" y="194" type="curve"/>
      <point x="618" y="16" type="line"/>
      <point x="656" y="0"/>
      <point x="744" y="-16"/>
      <point x="846" y="-16" type="curve" smooth="yes"/>
      <point x="1038" y="-16"/>
      <point x="1238" y="66"/>
      <point x="1238" y="310" type="curve" smooth="yes"/>
      <point x="1238" y="636"/>
      <point x="886" y="666"/>
      <point x="886" y="858" type="curve" smooth="yes"/>
      <point x="886" y="990"/>
      <point x="1110" y="1048"/>
      <point x="1110" y="1266" type="curve" smooth="yes"/>
      <point x="1110" y="1444"/>
      <point x="944" y="1542"/>
      <point x="728" y="1542" type="curve" smooth="yes"/>
      <point x="426" y="1542"/>
      <point x="186" y="1366"/>
      <point x="186" y="946" type="curve" smooth="yes"/>
    </contour>
    <contour>
      <point x="50" y="944" type="line"/>
      <point x="194" y="944" type="line"/>
      <point x="248" y="1018" type="line"/>
      <point x="216" y="1120" type="line"/>
      <point x="50" y="1080" type="line"/>
    </contour>
  </outline>
</glyph>
<glyph name="ae" format="2">
  <advance width="1750"/>
  <unicode hex="00E6"/>
  <anchor x="876" y="0" name="bottom"/>
  <anchor x="888" y="1660" name="top"/>
  <outline>
    <contour>
      <point x="1236" y="-16" type="curve" smooth="yes"/>
      <point x="1377" y="-16"/>
      <point x="1548" y="26"/>
      <point x="1620" y="86" type="curve"/>
      <point x="1578" y="219" type="line"/>
      <point x="1522" y="185"/>
      <point x="1371" y="159"/>
      <point x="1296" y="159" type="curve" smooth="yes"/>
      <point x="1115" y="159"/>
      <point x="976" y="234"/>
      <point x="965" y="492" type="curve"/>
      <point x="954" y="850"/>
      <point x="1073" y="965"/>
      <point x="1229" y="965" type="curve" smooth="yes"/>
      <point x="1413" y="965"/>
      <point x="1450" y="813"/>
      <point x="1440" y="652" type="curve"/>
      <point x="890" y="652" type="line"/>
      <point x="872" y="505" type="line"/>
      <point x="1644" y="505" type="line"/>
      <point x="1656" y="555"/>
      <point x="1656" y="623"/>
      <point x="1656" y="705" type="curve"/>
      <point x="1647" y="993"/>
      <point x="1464" y="1132"/>
      <point x="1240" y="1128" type="curve" smooth="yes"/>
      <point x="912" y="1124"/>
      <point x="736" y="882"/>
      <point x="736" y="558" type="curve" smooth="yes"/>
      <point x="736" y="184"/>
      <point x="916" y="-16"/>
    </contour>
    <contour>
      <point x="93" y="302" type="curve" smooth="yes"/>
      <point x="93" y="101"/>
      <point x="246" y="-16"/>
      <point x="443" y="-16" type="curve" smooth="yes"/>
      <point x="609" y="-16"/>
      <point x="761" y="43"/>
      <point x="869" y="188" type="curve"/>
      <point x="838" y="252" type="line"/>
      <point x="792" y="290" type="line"/>
      <point x="748" y="212"/>
      <point x="614" y="152"/>
      <point x="506" y="152" type="curve" smooth="yes"/>
      <point x="385" y="152"/>
      <point x="326" y="210"/>
      <point x="326" y="320" type="curve" smooth="yes"/>
      <point x="326" y="408"/>
      <point x="376" y="450"/>
      <point x="444" y="481" type="curve" smooth="yes"/>
      <point x="516" y="516"/>
      <point x="630" y="533"/>
      <point x="737" y="533" type="curve"/>
      <point x="781" y="614" type="line"/>
      <point x="734" y="675" type="line"/>
      <point x="592" y="675"/>
      <point x="434" y="657"/>
      <point x="308" y="604" type="curve" smooth="yes"/>
      <point x="182" y="548"/>
      <point x="93" y="446"/>
    </contour>
    <contour>
      <point x="204" y="873" type="line"/>
      <point x="260" y="908"/>
      <point x="418" y="956"/>
      <point x="519" y="956" type="curve" smooth="yes"/>
      <point x="666" y="956"/>
      <point x="734" y="930"/>
      <point x="734" y="778" type="curve" smooth="yes"/>
      <point x="734" y="580" type="line"/>
      <point x="940" y="580" type="line"/>
      <point x="940" y="767" type="line" smooth="yes"/>
      <point x="940" y="1065"/>
      <point x="808" y="1131"/>
      <point x="576" y="1131" type="curve" smooth="yes"/>
      <point x="394" y="1131"/>
      <point x="191" y="1050"/>
      <point x="148" y="1026" type="curve"/>
    </contour>
  </outline>
</glyph>
<glyph name="eth" format="2">
  <advance width="1180"/>
  <unicode hex="00F0"/>
  <outline>
    <contour>
      <point x="600" y="-26" type="curve" smooth="yes"/>
      <point x="900" y="-22"/>
      <point x="1105" y="184"/>
      <point x="1105" y="601" type="curve" smooth="yes"/>
      <point x="1105" y="993"/>
      <point x="943" y="1330"/>
      <point x="659" y="1535" type="curve" smooth="yes"/>
      <point x="643" y="1547"/>
      <point x="618" y="1564"/>
      <point x="600" y="1576" type="curve" smooth="yes"/>
      <point x="502" y="1641"/>
      <point x="394" y="1693"/>
      <point x="268" y="1733" type="curve"/>
      <point x="216" y="1602" type="line"/>
      <point x="307" y="1571"/>
      <point x="394" y="1523"/>
      <point x="474" y="1466" type="curve" smooth="yes"/>
      <point x="489" y="1456"/>
      <point x="504" y="1443"/>
      <point x="520" y="1432" type="curve" smooth="yes"/>
      <point x="680" y="1310"/>
      <point x="804" y="1131"/>
      <point x="834" y="919" type="curve"/>
      <point x="915" y="875" type="line"/>
      <point x="885" y="1002"/>
      <point x="776" y="1125"/>
      <point x="595" y="1125" type="curve" smooth="yes"/>
      <point x="292" y="1127"/>
      <point x="92" y="904"/>
      <point x="92" y="540" type="curve" smooth="yes"/>
      <point x="92" y="194"/>
      <point x="291" y="-30"/>
    </contour>
    <contour>
      <point x="609" y="136" type="curve" smooth="yes"/>
      <point x="421" y="136"/>
      <point x="324" y="304"/>
      <point x="324" y="546" type="curve" smooth="yes"/>
      <point x="324" y="789"/>
      <point x="417" y="956"/>
      <point x="608" y="956" type="curve" smooth="yes"/>
      <point x="772" y="956"/>
      <point x="852" y="883"/>
      <point x="869" y="824" type="curve"/>
      <point x="877" y="728"/>
      <point x="874" y="640"/>
      <point x="874" y="545" type="curve" smooth="yes"/>
      <point x="874" y="293"/>
      <point x="769" y="136"/>
    </contour>
    <contour>
      <point x="415" y="1268" type="line"/>
      <point x="574" y="1452" type="line"/>
      <point x="598" y="1486" type="line"/>
      <point x="655" y="1535"/>
      <point x="780" y="1685"/>
      <point x="780" y="1685" type="curve"/>
      <point x="660" y="1775" type="line"/>
      <point x="660" y="1775"/>
      <point x="534" y="1615"/>
      <point x="487" y="1572" type="curve"/>
      <point x="461" y="1542" type="line"/>
      <point x="296" y="1358" type="line"/>
    </contour>
  </outline>
</glyph>
<glyph name="divide" format="2">
  <advance width="1362"/>
  <unicode hex="00F7"/>
  <outline>
    <contour>
      <point x="680" y="1003" type="curve" smooth="yes"/>
      <point x="767" y="1003"/>
      <point x="846" y="1074"/>
      <point x="846" y="1169" type="curve" smooth="yes"/>
      <point x="846" y="1250"/>
      <point x="799" y="1314"/>
      <point x="701" y="1314" type="curve" smooth="yes"/>
      <point x="616" y="1314"/>
      <point x="534" y="1239"/>
      <point x="534" y="1148" type="curve" smooth="yes"/>
      <point x="534" y="1062"/>
      <point x="600" y="1003"/>
    </contour>
    <contour>
      <point x="677" y="205" type="curve" smooth="yes"/>
      <point x="766" y="205"/>
      <point x="846" y="274"/>
      <point x="846" y="369" type="curve" smooth="yes"/>
      <point x="846" y="450"/>
      <point x="796" y="513"/>
      <point x="700" y="513" type="curve" smooth="yes"/>
      <point x="616" y="513"/>
      <point x="533" y="439"/>
      <point x="533" y="348" type="curve" smooth="yes"/>
      <point x="533" y="261"/>
      <point x="598" y="205"/>
    </contour>
    <contour>
      <point x="219" y="666" type="line"/>
      <point x="1142" y="666" type="line"/>
      <point x="1142" y="843" type="line"/>
      <point x="219" y="843" type="line"/>
    </contour>
  </outline>
</glyph>
<glyph name="oslash" format="2">
  <advance width="1200"/>
  <unicode hex="00F8"/>
  <anchor x="644" y="1660" name="top"/>
  <outline>
    <contour>
      <point x="286" y="-164" type="line"/>
      <point x="408" y="-199" type="line"/>
      <point x="915" y="1281" type="line"/>
      <point x="793" y="1314" type="line"/>
    </contour>
    <contour>
      <point x="590" y="-16" type="curve" smooth="yes"/>
      <point x="883" y="-16"/>
      <point x="1100" y="176"/>
      <point x="1106" y="534" type="curve" smooth="yes"/>
      <point x="1110" y="850"/>
      <point x="973" y="1128"/>
      <point x="610" y="1128" type="curve" smooth="yes"/>
      <point x="318" y="1128"/>
      <point x="98" y="938"/>
      <point x="94" y="580" type="curve"/>
      <point x="90" y="262"/>
      <point x="227" y="-16"/>
    </contour>
    <contour>
      <point x="596" y="147" type="curve" smooth="yes"/>
      <point x="412" y="151"/>
      <point x="329" y="345"/>
      <point x="329" y="577" type="curve" smooth="yes"/>
      <point x="329" y="826"/>
      <point x="422" y="967"/>
      <point x="604" y="963" type="curve"/>
      <point x="790" y="961"/>
      <point x="872" y="774"/>
      <point x="872" y="543" type="curve" smooth="yes"/>
      <point x="872" y="293"/>
      <point x="779" y="144"/>
    </contour>
  </outline>
</glyph>
<glyph name="thorn" format="2">
  <advance width="1242"/>
  <unicode hex="00FE"/>
  <anchor x="621" y="0" name="bottom"/>
  <anchor x="621" y="1114" name="top"/>
  <outline>
    <contour>
      <point x="171" y="62" type="line"/>
      <point x="171" y="-496" type="line"/>
      <point x="403" y="-496" type="line"/>
      <point x="403" y="-166" type="line"/>
      <point x="391" y="18" type="line"/>
    </contour>
    <component base="b" xOffset="9"/>
  </outline>
</glyph>
<glyph name="Aogonek" format="2">
  <advance width="1376"/>
  <unicode hex="0104"/>
  <outline>
    <contour>
      <point x="895" y="-296" type="curve"/>
      <point x="898" y="-429"/>
      <point x="1004" y="-501"/>
      <point x="1138" y="-501" type="curve" smooth="yes"/>
      <point x="1220" y="-501"/>
      <point x="1312" y="-483"/>
      <point x="1369" y="-441" type="curve"/>
      <point x="1369" y="-320" type="line"/>
      <point x="1325" y="-335"/>
      <point x="1278" y="-347"/>
      <point x="1235" y="-347" type="curve" smooth="yes"/>
      <point x="1168" y="-347"/>
      <point x="1113" y="-326"/>
      <point x="1111" y="-246" type="curve"/>
      <point x="1108" y="-151"/>
      <point x="1218" y="-54"/>
      <point x="1339" y="10" type="curve"/>
      <point x="1296" y="32" type="line"/>
      <point x="1155" y="3" type="line"/>
      <point x="1038" y="-54"/>
      <point x="892" y="-165"/>
    </contour>
    <component base="A"/>
  </outline>
</glyph>
<glyph name="Hbar" format="2">
  <advance width="1536"/>
  <unicode hex="0126"/>
  <outline>
    <contour>
      <point x="189" y="0" type="line"/>
      <point x="424" y="0" type="line"/>
      <point x="424" y="649" type="line"/>
      <point x="1114" y="649" type="line"/>
      <point x="1114" y="0" type="line"/>
      <point x="1347" y="0" type="line"/>
      <point x="1347" y="1486" type="line"/>
      <point x="1114" y="1486" type="line"/>
      <point x="1114" y="827" type="line"/>
      <point x="424" y="827" type="line"/>
      <point x="424" y="1486" type="line"/>
      <point x="189" y="1486" type="line"/>
    </contour>
    <contour>
      <point x="11" y="1036" type="line"/>
      <point x="1529" y="1036" type="line"/>
      <point x="1529" y="1183" type="line"/>
      <point x="11" y="1183" type="line"/>
    </contour>
  </outline>
</glyph>
<glyph name="hbar" format="2">
  <advance width="1269"/>
  <unicode hex="0127"/>
  <outline>
    <contour>
      <point x="36" y="1255" type="line"/>
      <point x="627" y="1255" type="line"/>
      <point x="627" y="1392" type="line"/>
      <point x="36" y="1392" type="line"/>
    </contour>
    <component base="h"/>
  </outline>
</glyph>
<glyph name="idotless" format="2">
  <advance width="590"/>
  <unicode hex="0131"/>
  <anchor x="294" y="0" name="bottom"/>
  <anchor x="296" y="-166" name="btm"/>
  <anchor x="410" y="0" name="ogonek"/>
  <anchor x="294" y="1660" name="top"/>
  <outline>
    <contour>
      <point x="180" y="0" type="line"/>
      <point x="410" y="0" type="line"/>
      <point x="410" y="1112" type="line"/>
      <point x="180" y="1112" type="line"/>
    </contour>
  </outline>
</glyph>
<glyph name="kgreenlandic" format="2">
  <advance width="1154"/>
  <unicode hex="0138"/>
  <anchor x="578" y="0" name="bottom"/>
  <anchor x="578" y="1114" name="top"/>
  <outline>
    <contour>
      <point x="1119" y="1114" type="line"/>
      <point x="857" y="1114" type="line"/>
      <point x="347" y="507" type="line"/>
      <point x="398" y="472" type="line"/>
      <point x="407" y="665" type="line"/>
      <point x="407" y="1114" type="line"/>
      <point x="175" y="1114" type="line"/>
      <point x="178" y="0" type="line"/>
      <point x="408" y="0" type="line"/>
      <point x="408" y="181" type="line"/>
      <point x="403" y="350" type="line"/>
      <point x="384" y="296" type="line"/>
    </contour>
    <contour>
      <point x="526" y="513" type="line"/>
      <point x="893" y="0" type="line"/>
      <point x="1156" y="0" type="line"/>
      <point x="684" y="662" type="line"/>
    </contour>
  </outline>
</glyph>
<glyph name="Lslash" format="2">
  <advance width="1050"/>
  <unicode hex="0141"/>
  <outline>
    <contour>
      <point x="19" y="694" type="line"/>
      <point x="73" y="554" type="line"/>
      <point x="848" y="838" type="line"/>
      <point x="793" y="980" type="line"/>
    </contour>
    <component base="L"/>
  </outline>
</glyph>
<glyph name="lslash" format="2">
  <advance width="668"/>
  <unicode hex="0142"/>
  <outline>
    <contour>
      <point x="50" y="744" type="line"/>
      <point x="618" y="960" type="line"/>
      <point x="618" y="1126" type="line"/>
      <point x="50" y="898" type="line"/>
    </contour>
    <component base="l" xOffset="22"/>
  </outline>
</glyph>
<glyph name="Eng" format="2">
  <advance width="1552"/>
  <unicode hex="014A"/>
  <outline>
    <contour>
      <point x="418" y="0" type="line"/>
      <point x="418" y="895" type="line"/>
      <point x="394" y="1336" type="line"/>
      <point x="302" y="1336" type="line"/>
      <point x="522" y="934" type="line"/>
      <point x="1118" y="39" type="line"/>
      <point x="1118" y="-97"/>
      <point x="911" y="-248"/>
      <point x="745" y="-296" type="curve"/>
      <point x="802" y="-402" type="line"/>
      <point x="1018" y="-379"/>
      <point x="1285" y="-222"/>
      <point x="1340" y="36" type="curve" smooth="yes"/>
      <point x="1369" y="170"/>
      <point x="1365" y="321"/>
      <point x="1365" y="504" type="curve" smooth="yes"/>
      <point x="1365" y="1486" type="line"/>
      <point x="1134" y="1486" type="line"/>
      <point x="1134" y="567" type="line"/>
      <point x="1162" y="155" type="line"/>
      <point x="1236" y="155" type="line"/>
      <point x="1044" y="517" type="line"/>
      <point x="405" y="1486" type="line"/>
      <point x="187" y="1486" type="line"/>
      <point x="189" y="0" type="line"/>
    </contour>
  </outline>
</glyph>
<glyph name="eng" format="2">
  <advance width="1262"/>
  <unicode hex="014B"/>
  <outline>
    <contour>
      <point x="172" y="0" type="line"/>
      <point x="402" y="0" type="line"/>
      <point x="402" y="838" type="line"/>
      <point x="488" y="903"/>
      <point x="602" y="936"/>
      <point x="671" y="938" type="curve" smooth="yes"/>
      <point x="832" y="946"/>
      <point x="866" y="867"/>
      <point x="866" y="685" type="curve" smooth="yes"/>
      <point x="866" y="-44" type="line" smooth="yes"/>
      <point x="866" y="-275"/>
      <point x="838" y="-336"/>
      <point x="729" y="-336" type="curve" smooth="yes"/>
      <point x="706" y="-336"/>
      <point x="644" y="-332"/>
      <point x="624" y="-326" type="curve"/>
      <point x="624" y="-482" type="line"/>
      <point x="644" y="-490"/>
      <point x="739" y="-496"/>
      <point x="782" y="-496" type="curve" smooth="yes"/>
      <point x="984" y="-496"/>
      <point x="1098" y="-333"/>
      <point x="1098" y="-18" type="curve" smooth="yes"/>
      <point x="1098" y="698" type="line" smooth="yes"/>
      <point x="1096" y="1024"/>
      <point x="1002" y="1137"/>
      <point x="763" y="1130" type="curve"/>
      <point x="619" y="1126"/>
      <point x="461" y="1050"/>
      <point x="380" y="994" type="curve"/>
      <point x="377" y="1112" type="line"/>
      <point x="172" y="1112" type="line"/>
    </contour>
  </outline>
</glyph>
<glyph name="OE" format="2">
  <advance width="2026"/>
  <unicode hex="0152"/>
  <anchor x="1014" y="0" name="bottom"/>
  <anchor x="1034" y="-166" name="btm"/>
  <anchor x="1034" y="1660" name="top"/>
  <outline>
    <contour>
      <point x="99" y="750" type="curve" smooth="yes"/>
      <point x="89" y="306"/>
      <point x="346" y="-23"/>
      <point x="759" y="-16" type="curve" smooth="yes"/>
      <point x="907" y="-12"/>
      <point x="1004" y="30"/>
      <point x="1092" y="96" type="curve"/>
      <point x="1088" y="319" type="line"/>
      <point x="1015" y="209"/>
      <point x="907" y="160"/>
      <point x="770" y="160" type="curve" smooth="yes"/>
      <point x="484" y="160"/>
      <point x="334" y="426"/>
      <point x="334" y="740" type="curve" smooth="yes"/>
      <point x="334" y="1156"/>
      <point x="552" y="1324"/>
      <point x="785" y="1324" type="curve" smooth="yes"/>
      <point x="930" y="1324"/>
      <point x="1026" y="1273"/>
      <point x="1092" y="1185" type="curve"/>
      <point x="1080" y="1426" type="line"/>
      <point x="997" y="1487"/>
      <point x="882" y="1504"/>
      <point x="788" y="1502" type="curve" smooth="yes"/>
      <point x="391" y="1490"/>
      <point x="109" y="1242"/>
    </contour>
    <contour>
      <point x="1018" y="0" type="line"/>
      <point x="1952" y="0" type="line"/>
      <point x="1952" y="184" type="line"/>
      <point x="1253" y="184" type="line"/>
      <point x="1253" y="676" type="line"/>
      <point x="1716" y="676" type="line"/>
      <point x="1716" y="856" type="line"/>
      <point x="1253" y="856" type="line"/>
      <point x="1253" y="1306" type="line"/>
      <point x="1883" y="1306" type="line"/>
      <point x="1883" y="1486" type="line"/>
      <point x="1018" y="1486" type="line"/>
    </contour>
  </outline>
</glyph>
<glyph name="oe" format="2">
  <advance width="1883"/>
  <unicode hex="0153"/>
  <anchor x="942" y="0" name="bottom"/>
  <anchor x="989" y="-166" name="btm"/>
  <anchor x="989" y="1660" name="top"/>
  <outline>
    <contour>
      <point x="1367" y="-16" type="curve" smooth="yes"/>
      <point x="1508" y="-16"/>
      <point x="1677" y="26"/>
      <point x="1751" y="86" type="curve"/>
      <point x="1710" y="219" type="line"/>
      <point x="1653" y="185"/>
      <point x="1502" y="159"/>
      <point x="1425" y="159" type="curve" smooth="yes"/>
      <point x="1246" y="159"/>
      <point x="1107" y="241"/>
      <point x="1096" y="492" type="curve"/>
      <point x="1085" y="850"/>
      <point x="1204" y="965"/>
      <point x="1360" y="965" type="curve" smooth="yes"/>
      <point x="1544" y="965"/>
      <point x="1581" y="813"/>
      <point x="1571" y="652" type="curve"/>
      <point x="1023" y="652" type="line"/>
      <point x="1003" y="505" type="line"/>
      <point x="1777" y="505" type="line"/>
      <point x="1787" y="555"/>
      <point x="1787" y="623"/>
      <point x="1787" y="705" type="curve" smooth="yes"/>
      <point x="1781" y="993"/>
      <point x="1595" y="1132"/>
      <point x="1371" y="1128" type="curve" smooth="yes"/>
      <point x="1043" y="1124"/>
      <point x="870" y="882"/>
      <point x="870" y="558" type="curve" smooth="yes"/>
      <point x="870" y="198"/>
      <point x="1047" y="-16"/>
    </contour>
    <contour>
      <point x="591" y="147" type="curve" smooth="yes"/>
      <point x="410" y="151"/>
      <point x="329" y="345"/>
      <point x="329" y="577" type="curve" smooth="yes"/>
      <point x="329" y="826"/>
      <point x="423" y="967"/>
      <point x="603" y="963" type="curve" smooth="yes"/>
      <point x="789" y="961"/>
      <point x="870" y="774"/>
      <point x="870" y="543" type="curve" smooth="yes"/>
      <point x="870" y="293"/>
      <point x="776" y="144"/>
    </contour>
    <contour>
      <point x="587" y="-16" type="curve" smooth="yes"/>
      <point x="877" y="-16"/>
      <point x="1090" y="176"/>
      <point x="1096" y="534" type="curve" smooth="yes"/>
      <point x="1098" y="850"/>
      <point x="970" y="1128"/>
      <point x="609" y="1128" type="curve"/>
      <point x="317" y="1128"/>
      <point x="100" y="938"/>
      <point x="94" y="580" type="curve" smooth="yes"/>
      <point x="90" y="262"/>
      <point x="225" y="-16"/>
    </contour>
  </outline>
</glyph>
<glyph name="Tbar" format="2">
  <advance width="1263"/>
  <unicode hex="0166"/>
  <outline>
    <contour>
      <point x="234" y="627" type="line"/>
      <point x="1037" y="627" type="line"/>
      <point x="1037" y="778" type="line"/>
      <point x="234" y="778" type="line"/>
    </contour>
    <component base="T"/>
  </outline>
</glyph>
<glyph name="tbar" format="2">
  <advance width="841"/>
  <unicode hex="0167"/>
  <outline>
    <contour>
      <point x="80" y="569" type="line"/>
      <point x="762" y="569" type="line"/>
      <point x="762" y="738" type="line"/>
      <point x="80" y="738" type="line"/>
    </contour>
    <component base="t"/>
  </outline>
</glyph>
<glyph name="Schwa" format="2">
  <advance width="1480"/>
  <unicode hex="018F"/>
  <anchor x="744" y="0" name="bottom"/>
  <anchor x="718" y="-166" name="btm"/>
  <anchor x="710" y="1662" name="top"/>
  <outline>
    <contour>
      <point x="682" y="-16" type="curve" smooth="yes"/>
      <point x="1148" y="-16"/>
      <point x="1386" y="280"/>
      <point x="1386" y="744" type="curve" smooth="yes"/>
      <point x="1386" y="1250"/>
      <point x="1084" y="1506"/>
      <point x="720" y="1504" type="curve" smooth="yes"/>
      <point x="476" y="1502"/>
      <point x="282" y="1432"/>
      <point x="168" y="1322" type="curve"/>
      <point x="222" y="1136" type="line"/>
      <point x="334" y="1250"/>
      <point x="498" y="1318"/>
      <point x="716" y="1318" type="curve" smooth="yes"/>
      <point x="970" y="1318"/>
      <point x="1154" y="1114"/>
      <point x="1154" y="762" type="curve" smooth="yes"/>
      <point x="1154" y="426"/>
      <point x="1012" y="164"/>
      <point x="708" y="164" type="curve" smooth="yes"/>
      <point x="400" y="164"/>
      <point x="306" y="406"/>
      <point x="318" y="626" type="curve"/>
      <point x="1224" y="626" type="line"/>
      <point x="1250" y="812" type="line"/>
      <point x="108" y="812" type="line"/>
      <point x="100" y="750"/>
      <point x="94" y="710"/>
      <point x="94" y="602" type="curve" smooth="yes"/>
      <point x="94" y="174"/>
      <point x="380" y="-16"/>
    </contour>
  </outline>
</glyph>
<glyph name="florin" format="2">
  <advance width="1160"/>
  <unicode hex="0192"/>
  <outline>
    <contour>
      <point x="296" y="-348" type="line"/>
      <point x="523" y="-348" type="line"/>
      <point x="632" y="941" type="line"/>
      <point x="920" y="941" type="line"/>
      <point x="933" y="1114" type="line"/>
      <point x="645" y="1114" type="line"/>
      <point x="659" y="1231" type="line" smooth="yes"/>
      <point x="680" y="1411"/>
      <point x="764" y="1463"/>
      <point x="865" y="1463" type="curve" smooth="yes"/>
      <point x="952" y="1463"/>
      <point x="1006" y="1455"/>
      <point x="1026" y="1444" type="curve"/>
      <point x="1039" y="1627" type="line"/>
      <point x="1024" y="1634"/>
      <point x="973" y="1646"/>
      <point x="887" y="1646" type="curve" smooth="yes"/>
      <point x="664" y="1646"/>
      <point x="467" y="1522"/>
      <point x="426" y="1179" type="curve" smooth="yes"/>
      <point x="418" y="1114" type="line"/>
      <point x="219" y="1063" type="line"/>
      <point x="211" y="941" type="line"/>
      <point x="406" y="941" type="line"/>
    </contour>
  </outline>
</glyph>
<glyph name="Ezh" format="2">
  <advance width="1134"/>
  <unicode hex="01B7"/>
  <anchor x="556" y="0" name="bottom"/>
  <anchor x="565" y="1660" name="top"/>
  <outline>
    <contour>
      <point x="348" y="-20" type="curve" smooth="yes"/>
      <point x="872" y="-20"/>
      <point x="1070" y="208"/>
      <point x="1070" y="470" type="curve" smooth="yes"/>
      <point x="1070" y="654"/>
      <point x="898" y="882"/>
      <point x="584" y="862" type="curve"/>
      <point x="994" y="1316" type="line"/>
      <point x="998" y="1486" type="line"/>
      <point x="134" y="1486" type="line"/>
      <point x="134" y="1306" type="line"/>
      <point x="744" y="1306" type="line"/>
      <point x="608" y="1186" type="line"/>
      <point x="318" y="856" type="line"/>
      <point x="322" y="660" type="line"/>
      <point x="374" y="692"/>
      <point x="448" y="710"/>
      <point x="522" y="710" type="curve" smooth="yes"/>
      <point x="668" y="710"/>
      <point x="816" y="642"/>
      <point x="816" y="470" type="curve" smooth="yes"/>
      <point x="816" y="268"/>
      <point x="634" y="148"/>
      <point x="288" y="148" type="curve" smooth="yes"/>
      <point x="250" y="148"/>
      <point x="176" y="158"/>
      <point x="116" y="170" type="curve"/>
      <point x="116" y="-2" type="line"/>
      <point x="176" y="-6"/>
      <point x="260" y="-20"/>
    </contour>
  </outline>
</glyph>
<glyph name="jdotless" format="2">
  <advance width="572"/>
  <unicode hex="0237"/>
  <anchor x="286" y="-546" name="bottom"/>
  <anchor x="304" y="1660" name="top"/>
  <outline>
    <contour>
      <point x="-82" y="-480" type="line"/>
      <point x="-65" y="-490"/>
      <point x="29" y="-496"/>
      <point x="60" y="-496" type="curve" smooth="yes"/>
      <point x="287" y="-496"/>
      <point x="416" y="-346"/>
      <point x="416" y="44" type="curve" smooth="yes"/>
      <point x="416" y="1112" type="line"/>
      <point x="185" y="1112" type="line"/>
      <point x="185" y="-38" type="line" smooth="yes"/>
      <point x="185" y="-238"/>
      <point x="150" y="-335"/>
      <point x="33" y="-335" type="curve" smooth="yes"/>
      <point x="0" y="-335"/>
      <point x="-61" y="-325"/>
      <point x="-82" y="-315" type="curve"/>
    </contour>
  </outline>
</glyph>
<glyph name="schwa" format="2">
  <advance width="1108"/>
  <unicode hex="0259"/>
  <anchor x="518" y="-546" name="bottom"/>
  <anchor x="514" y="-166" name="btm"/>
  <anchor x="516" y="1662" name="top"/>
  <outline>
    <contour>
      <point x="514" y="1130" type="curve" smooth="yes"/>
      <point x="373" y="1130"/>
      <point x="206" y="1088"/>
      <point x="132" y="1028" type="curve"/>
      <point x="175" y="895" type="line"/>
      <point x="230" y="929"/>
      <point x="378" y="957"/>
      <point x="453" y="957" type="curve" smooth="yes"/>
      <point x="634" y="957"/>
      <point x="774" y="873"/>
      <point x="785" y="622" type="curve" smooth="yes"/>
      <point x="798" y="264"/>
      <point x="677" y="149"/>
      <point x="521" y="149" type="curve" smooth="yes"/>
      <point x="336" y="149"/>
      <point x="301" y="301"/>
      <point x="311" y="462" type="curve"/>
      <point x="860" y="462" type="line"/>
      <point x="880" y="609" type="line"/>
      <point x="104" y="609" type="line"/>
      <point x="95" y="559"/>
      <point x="94" y="491"/>
      <point x="94" y="409" type="curve" smooth="yes"/>
      <point x="101" y="121"/>
      <point x="286" y="-18"/>
      <point x="510" y="-14" type="curve" smooth="yes"/>
      <point x="839" y="-10"/>
      <point x="1014" y="232"/>
      <point x="1014" y="556" type="curve" smooth="yes"/>
      <point x="1014" y="916"/>
      <point x="835" y="1130"/>
    </contour>
  </outline>
</glyph>
<glyph name="ezh" format="2">
  <advance width="946"/>
  <unicode hex="0292"/>
  <anchor x="476" y="0" name="bottom"/>
  <anchor x="454" y="1662" name="top"/>
  <outline>
    <contour>
      <point x="300" y="-294" type="curve" smooth="yes"/>
      <point x="652" y="-294"/>
      <point x="858" y="-98"/>
      <point x="858" y="164" type="curve" smooth="yes"/>
      <point x="858" y="364"/>
      <point x="676" y="488"/>
      <point x="466" y="512" type="curve"/>
      <point x="854" y="1000" type="line"/>
      <point x="780" y="1114" type="line"/>
      <point x="96" y="1114" type="line"/>
      <point x="96" y="940" type="line"/>
      <point x="578" y="940" type="line"/>
      <point x="478" y="836" type="line"/>
      <point x="198" y="480" type="line"/>
      <point x="324" y="368" type="line"/>
      <point x="490" y="368"/>
      <point x="626" y="320"/>
      <point x="626" y="142" type="curve" smooth="yes"/>
      <point x="626" y="-16"/>
      <point x="486" y="-134"/>
      <point x="264" y="-128" type="curve" smooth="yes"/>
      <point x="198" y="-126"/>
      <point x="154" y="-120"/>
      <point x="96" y="-110" type="curve"/>
      <point x="98" y="-286" type="line"/>
      <point x="164" y="-288"/>
      <point x="230" y="-294"/>
    </contour>
  </outline>
</glyph>
<glyph name="ringhalfright" format="2">
  <unicode hex="02BE"/>
  <anchor x="0" y="1660" name="_top"/>
  <outline>
    <contour>
      <point x="0" y="1294" type="line"/>
      <point x="196" y="1294"/>
      <point x="320" y="1401"/>
      <point x="318" y="1570" type="curve" smooth="yes"/>
      <point x="316" y="1758"/>
      <point x="155" y="1832"/>
      <point x="0" y="1832" type="curve"/>
      <point x="0" y="1707" type="line"/>
      <point x="97" y="1707"/>
      <point x="161" y="1663"/>
      <point x="161" y="1570" type="curve" smooth="yes"/>
      <point x="161" y="1460"/>
      <point x="115" y="1422"/>
      <point x="0" y="1422" type="curve"/>
    </contour>
  </outline>
</glyph>
<glyph name="ringhalfleft" format="2">
  <unicode hex="02BF"/>
  <anchor x="0" y="1660" name="_top"/>
  <outline>
    <contour>
      <point x="0" y="1294" type="curve"/>
      <point x="0" y="1422" type="line"/>
      <point x="-115" y="1422"/>
      <point x="-161" y="1460"/>
      <point x="-161" y="1570" type="curve" smooth="yes"/>
      <point x="-161" y="1663"/>
      <point x="-97" y="1707"/>
      <point x="0" y="1707" type="curve"/>
      <point x="0" y="1832" type="line"/>
      <point x="-155" y="1832"/>
      <point x="-316" y="1758"/>
      <point x="-318" y="1570" type="curve" smooth="yes"/>
      <point x="-320" y="1401"/>
      <point x="-196" y="1294"/>
    </contour>
  </outline>
</glyph>
<glyph name="circumflex" format="2">
  <advance width="823"/>
  <unicode hex="02C6"/>
  <outline>
    <contour>
      <point x="173" y="1252" type="line"/>
      <point x="415" y="1474" type="line"/>
      <point x="642" y="1254" type="line"/>
      <point x="778" y="1314" type="line"/>
      <point x="514" y="1645" type="line"/>
      <point x="317" y="1645" type="line"/>
      <point x="45" y="1314" type="line"/>
    </contour>
  </outline>
</glyph>
<glyph name="caron" format="2">
  <advance width="806"/>
  <unicode hex="02C7"/>
  <outline>
    <contour>
      <point x="45" y="1585" type="line"/>
      <point x="317" y="1252" type="line"/>
      <point x="514" y="1252" type="line"/>
      <point x="778" y="1584" type="line"/>
      <point x="642" y="1645" type="line"/>
      <point x="415" y="1423" type="line"/>
      <point x="173" y="1645" type="line"/>
    </contour>
  </outline>
</glyph>
<glyph name="verticallinemod" format="2">
  <unicode hex="02C8"/>
  <outline>
    <contour>
      <point x="102" y="2080" type="line"/>
      <point x="-102" y="2080" type="line"/>
      <point x="-61" y="1330" type="line"/>
      <point x="59" y="1330" type="line"/>
    </contour>
  </outline>
</glyph>
<glyph name="firsttonechinese" format="2">
  <advance width="641"/>
  <unicode hex="02C9"/>
  <anchor x="318" y="1660" name="_top"/>
  <outline>
    <contour>
      <point x="49" y="1733" type="line"/>
      <point x="592" y="1733" type="line"/>
      <point x="592" y="1898" type="line"/>
      <point x="49" y="1898" type="line"/>
    </contour>
  </outline>
</glyph>
<glyph name="secondtonechinese" format="2">
  <unicode hex="02CA"/>
  <anchor x="0" y="1660" name="_top"/>
  <anchor x="0" y="1966" name="top"/>
  <outline>
    <contour>
      <point x="-12" y="1257" type="line"/>
      <point x="60" y="1286"/>
      <point x="317" y="1516"/>
      <point x="366" y="1608" type="curve"/>
      <point x="202" y="1746" type="line"/>
      <point x="108" y="1606"/>
      <point x="-16" y="1472"/>
      <point x="-128" y="1353" type="curve"/>
    </contour>
  </outline>
</glyph>
<glyph name="fourthtonechinese" format="2">
  <unicode hex="02CB"/>
  <anchor x="0" y="1660" name="_top"/>
  <anchor x="0" y="1966" name="top"/>
  <outline>
    <contour>
      <point x="-12" y="1257" type="line"/>
      <point x="60" y="1286"/>
      <point x="317" y="1516"/>
      <point x="366" y="1608" type="curve"/>
      <point x="202" y="1746" type="line"/>
      <point x="108" y="1606"/>
      <point x="-16" y="1472"/>
      <point x="-128" y="1353" type="curve"/>
    </contour>
  </outline>
</glyph>
<glyph name="verticallinelowmod" format="2">
  <unicode hex="02CC"/>
  <outline>
    <contour>
      <point x="104" y="190" type="line"/>
      <point x="-104" y="190" type="line"/>
      <point x="-61" y="-567" type="line"/>
      <point x="59" y="-567" type="line"/>
    </contour>
  </outline>
</glyph>
<glyph name="breve" format="2">
  <unicode hex="02D8"/>
  <outline>
    <contour>
      <point x="385" y="1276" type="curve" smooth="yes"/>
      <point x="598" y="1276"/>
      <point x="739" y="1456"/>
      <point x="724" y="1646" type="curve"/>
      <point x="571" y="1646" type="line"/>
      <point x="568" y="1617"/>
      <point x="566" y="1452"/>
      <point x="387" y="1452" type="curve" smooth="yes"/>
      <point x="207" y="1452"/>
      <point x="207" y="1617"/>
      <point x="204" y="1646" type="curve"/>
      <point x="47" y="1646" type="line"/>
      <point x="33" y="1456"/>
      <point x="161" y="1276"/>
    </contour>
  </outline>
</glyph>
<glyph name="dotaccent" format="2">
  <advance width="409"/>
  <unicode hex="02D9"/>
  <outline>
    <contour>
      <point x="194" y="1309" type="curve" smooth="yes"/>
      <point x="280" y="1309"/>
      <point x="358" y="1375"/>
      <point x="358" y="1467" type="curve" smooth="yes"/>
      <point x="358" y="1544"/>
      <point x="310" y="1605"/>
      <point x="215" y="1605" type="curve" smooth="yes"/>
      <point x="133" y="1605"/>
      <point x="49" y="1534"/>
      <point x="49" y="1447" type="curve" smooth="yes"/>
      <point x="49" y="1362"/>
      <point x="117" y="1309"/>
    </contour>
  </outline>
</glyph>
<glyph name="ring" format="2">
  <advance width="720"/>
  <unicode hex="02DA"/>
  <outline>
    <contour>
      <point x="357" y="1294" type="curve" smooth="yes"/>
      <point x="526" y="1294"/>
      <point x="675" y="1380"/>
      <point x="677" y="1568" type="curve" smooth="yes"/>
      <point x="677" y="1738"/>
      <point x="553" y="1832"/>
      <point x="360" y="1832" type="curve" smooth="yes"/>
      <point x="206" y="1832"/>
      <point x="46" y="1758"/>
      <point x="44" y="1570" type="curve" smooth="yes"/>
      <point x="41" y="1402"/>
      <point x="165" y="1294"/>
    </contour>
    <contour>
      <point x="358" y="1422" type="curve" smooth="yes"/>
      <point x="261" y="1424"/>
      <point x="200" y="1483"/>
      <point x="200" y="1570" type="curve" smooth="yes"/>
      <point x="200" y="1675"/>
      <point x="279" y="1707"/>
      <point x="358" y="1707" type="curve" smooth="yes"/>
      <point x="450" y="1707"/>
      <point x="522" y="1657"/>
      <point x="522" y="1567" type="curve" smooth="yes"/>
      <point x="522" y="1462"/>
      <point x="454" y="1420"/>
    </contour>
  </outline>
</glyph>
<glyph name="ogonek" format="2">
  <advance width="628"/>
  <unicode hex="02DB"/>
  <outline>
    <contour>
      <point x="298" y="-500" type="curve" smooth="yes"/>
      <point x="428" y="-500"/>
      <point x="518" y="-460"/>
      <point x="569" y="-427" type="curve"/>
      <point x="552" y="-309" type="line"/>
      <point x="520" y="-322"/>
      <point x="444" y="-353"/>
      <point x="375" y="-353" type="curve" smooth="yes"/>
      <point x="293" y="-353"/>
      <point x="251" y="-322"/>
      <point x="251" y="-255" type="curve" smooth="yes"/>
      <point x="248" y="-157"/>
      <point x="388" y="-42"/>
      <point x="504" y="6" type="curve"/>
      <point x="404" y="8" type="line"/>
      <point x="303" y="-3" type="line"/>
      <point x="174" y="-62"/>
      <point x="49" y="-174"/>
      <point x="52" y="-299" type="curve" smooth="yes"/>
      <point x="54" y="-429"/>
      <point x="173" y="-501"/>
    </contour>
  </outline>
</glyph>
<glyph name="tilde" format="2">
  <advance width="908"/>
  <unicode hex="02DC"/>
  <outline>
    <contour>
      <point x="133" y="1350" type="line"/>
      <point x="172" y="1393"/>
      <point x="233" y="1447"/>
      <point x="307" y="1447" type="curve" smooth="yes"/>
      <point x="411" y="1447"/>
      <point x="431" y="1312"/>
      <point x="596" y="1312" type="curve" smooth="yes"/>
      <point x="721" y="1312"/>
      <point x="816" y="1398"/>
      <point x="865" y="1506" type="curve"/>
      <point x="774" y="1584" type="line"/>
      <point x="735" y="1539"/>
      <point x="685" y="1486"/>
      <point x="600" y="1486" type="curve" smooth="yes"/>
      <point x="500" y="1486"/>
      <point x="471" y="1619"/>
      <point x="313" y="1619" type="curve" smooth="yes"/>
      <point x="189" y="1619"/>
      <point x="87" y="1524"/>
      <point x="44" y="1422" type="curve"/>
    </contour>
  </outline>
</glyph>
<glyph name="hungarumlaut" format="2">
  <advance width="1012"/>
  <unicode hex="02DD"/>
  <outline>
    <contour>
      <point x="149" y="1288" type="line"/>
      <point x="226" y="1339"/>
      <point x="402" y="1544"/>
      <point x="462" y="1647" type="curve"/>
      <point x="299" y="1760" type="line"/>
      <point x="44" y="1362" type="line"/>
    </contour>
    <contour>
      <point x="636" y="1288" type="line"/>
      <point x="718" y="1334"/>
      <point x="902" y="1544"/>
      <point x="954" y="1640" type="curve"/>
      <point x="797" y="1753" type="line"/>
      <point x="534" y="1362" type="line"/>
    </contour>
  </outline>
</glyph>
<glyph name="gravecomb" format="2">
  <unicode hex="0300"/>
  <anchor x="0" y="1660" name="_top"/>
  <anchor x="-138" y="1746" name="top"/>
  <outline>
    <contour>
      <point x="90" y="1346" type="line"/>
      <point x="-20" y="1468"/>
      <point x="-152" y="1616"/>
      <point x="-240" y="1740" type="curve"/>
      <point x="-385" y="1608" type="line"/>
      <point x="-319" y="1500"/>
      <point x="-85" y="1293"/>
      <point x="-5" y="1257" type="curve"/>
    </contour>
  </outline>
</glyph>
<glyph name="acutecomb" format="2">
  <unicode hex="0301"/>
  <anchor x="0" y="1660" name="_top"/>
  <anchor x="-176" y="1966" name="top"/>
  <outline>
    <contour>
      <point x="-58" y="1298" type="line"/>
      <point x="14" y="1328"/>
      <point x="268" y="1582"/>
      <point x="318" y="1672" type="curve"/>
      <point x="154" y="1804" type="line"/>
      <point x="60" y="1664"/>
      <point x="-62" y="1514"/>
      <point x="-174" y="1394" type="curve"/>
    </contour>
  </outline>
</glyph>
<glyph name="circumflexcomb" format="2">
  <unicode hex="0302"/>
  <anchor x="0" y="1660" name="_top"/>
  <anchor x="0" y="2114" name="top"/>
  <outline>
    <contour>
      <point x="-256" y="1241" type="line"/>
      <point x="0" y="1457" type="line"/>
      <point x="246" y="1242" type="line"/>
      <point x="366" y="1301" type="line"/>
      <point x="95" y="1643" type="line"/>
      <point x="-86" y="1643" type="line"/>
      <point x="-366" y="1301" type="line"/>
    </contour>
  </outline>
</glyph>
<glyph name="tildecomb" format="2">
  <unicode hex="0303"/>
  <anchor x="0" y="1660" name="_top"/>
  <anchor x="0" y="2062" name="top"/>
  <outline>
    <contour>
      <point x="131" y="1291" type="curve" smooth="yes"/>
      <point x="247" y="1291"/>
      <point x="334" y="1383"/>
      <point x="359" y="1497" type="curve"/>
      <point x="265" y="1549" type="line"/>
      <point x="243" y="1498"/>
      <point x="204" y="1461"/>
      <point x="130" y="1461" type="curve" smooth="yes"/>
      <point x="42" y="1461"/>
      <point x="8" y="1598"/>
      <point x="-130" y="1598" type="curve" smooth="yes"/>
      <point x="-263" y="1598"/>
      <point x="-324" y="1490"/>
      <point x="-360" y="1387" type="curve"/>
      <point x="-270" y="1341" type="line"/>
      <point x="-247" y="1390"/>
      <point x="-216" y="1430"/>
      <point x="-132" y="1430" type="curve" smooth="yes"/>
      <point x="-43" y="1430"/>
      <point x="-12" y="1291"/>
    </contour>
  </outline>
</glyph>
<glyph name="macroncomb" format="2">
  <unicode hex="0304"/>
  <anchor x="0" y="1660" name="_top"/>
  <anchor x="0" y="1992" name="top"/>
  <outline>
    <contour>
      <point x="-270" y="1320" type="line"/>
      <point x="273" y="1320" type="line"/>
      <point x="273" y="1486" type="line"/>
      <point x="-270" y="1486" type="line"/>
    </contour>
  </outline>
</glyph>
<glyph name="brevecomb" format="2">
  <unicode hex="0306"/>
  <anchor x="0" y="1660" name="_top"/>
  <anchor x="0" y="1966" name="top"/>
  <outline>
    <contour>
      <point x="0" y="1276" type="curve" smooth="yes"/>
      <point x="213" y="1276"/>
      <point x="354" y="1456"/>
      <point x="340" y="1646" type="curve"/>
      <point x="186" y="1646" type="line"/>
      <point x="183" y="1617"/>
      <point x="181" y="1452"/>
      <point x="2" y="1452" type="curve" smooth="yes"/>
      <point x="-178" y="1452"/>
      <point x="-178" y="1617"/>
      <point x="-180" y="1646" type="curve"/>
      <point x="-338" y="1646" type="line"/>
      <point x="-352" y="1456"/>
      <point x="-223" y="1276"/>
    </contour>
  </outline>
</glyph>
<glyph name="dotaccentcomb" format="2">
  <unicode hex="0307"/>
  <anchor x="0" y="1660" name="_top"/>
  <anchor x="0" y="2016" name="top"/>
  <outline>
    <contour>
      <point x="-10" y="1294" type="curve" smooth="yes"/>
      <point x="76" y="1294"/>
      <point x="154" y="1360"/>
      <point x="154" y="1452" type="curve" smooth="yes"/>
      <point x="154" y="1529"/>
      <point x="106" y="1590"/>
      <point x="11" y="1590" type="curve" smooth="yes"/>
      <point x="-71" y="1590"/>
      <point x="-155" y="1519"/>
      <point x="-155" y="1432" type="curve" smooth="yes"/>
      <point x="-155" y="1347"/>
      <point x="-87" y="1294"/>
    </contour>
  </outline>
</glyph>
<glyph name="dieresiscomb" format="2">
  <unicode hex="0308"/>
  <anchor x="0" y="1660" name="_top"/>
  <anchor x="0" y="2046" name="top"/>
  <outline>
    <contour>
      <point x="-236" y="1302" type="curve" smooth="yes"/>
      <point x="-154" y="1302"/>
      <point x="-81" y="1364"/>
      <point x="-81" y="1453" type="curve" smooth="yes"/>
      <point x="-81" y="1527"/>
      <point x="-122" y="1587"/>
      <point x="-213" y="1587" type="curve" smooth="yes"/>
      <point x="-291" y="1587"/>
      <point x="-370" y="1520"/>
      <point x="-370" y="1435" type="curve" smooth="yes"/>
      <point x="-370" y="1354"/>
      <point x="-311" y="1302"/>
    </contour>
    <contour>
      <point x="216" y="1302" type="curve" smooth="yes"/>
      <point x="299" y="1302"/>
      <point x="371" y="1364"/>
      <point x="371" y="1453" type="curve" smooth="yes"/>
      <point x="371" y="1527"/>
      <point x="331" y="1587"/>
      <point x="239" y="1587" type="curve" smooth="yes"/>
      <point x="160" y="1587"/>
      <point x="82" y="1520"/>
      <point x="82" y="1435" type="curve" smooth="yes"/>
      <point x="82" y="1354"/>
      <point x="142" y="1302"/>
    </contour>
  </outline>
</glyph>
<glyph name="hookabovecomb" format="2">
  <unicode hex="0309"/>
  <anchor x="0" y="1660" name="_top"/>
  <anchor x="0" y="1966" name="top"/>
  <outline>
    <contour>
      <point x="-58" y="1278" type="curve"/>
      <point x="60" y="1278" type="line"/>
      <point x="44" y="1330"/>
      <point x="66" y="1382"/>
      <point x="86" y="1400" type="curve" smooth="yes"/>
      <point x="140" y="1448"/>
      <point x="206" y="1482"/>
      <point x="206" y="1588" type="curve" smooth="yes"/>
      <point x="206" y="1704"/>
      <point x="110" y="1776"/>
      <point x="-30" y="1776" type="curve" smooth="yes"/>
      <point x="-84" y="1776"/>
      <point x="-162" y="1764"/>
      <point x="-206" y="1736" type="curve"/>
      <point x="-202" y="1606" type="line"/>
      <point x="-178" y="1620"/>
      <point x="-122" y="1638"/>
      <point x="-76" y="1638" type="curve" smooth="yes"/>
      <point x="-6" y="1638"/>
      <point x="34" y="1612"/>
      <point x="34" y="1558" type="curve"/>
      <point x="34" y="1474"/>
      <point x="-82" y="1470"/>
      <point x="-82" y="1368" type="curve" smooth="yes"/>
      <point x="-82" y="1332"/>
      <point x="-70" y="1306"/>
    </contour>
  </outline>
</glyph>
<glyph name="ringcomb" format="2">
  <unicode hex="030A"/>
  <anchor x="0" y="1660" name="_top"/>
  <anchor x="186" y="2074" name="top"/>
  <outline>
    <contour>
      <point x="-4" y="1294" type="curve" smooth="yes"/>
      <point x="165" y="1294"/>
      <point x="316" y="1380"/>
      <point x="318" y="1568" type="curve" smooth="yes"/>
      <point x="320" y="1738"/>
      <point x="192" y="1832"/>
      <point x="-1" y="1832" type="curve" smooth="yes"/>
      <point x="-155" y="1832"/>
      <point x="-316" y="1758"/>
      <point x="-318" y="1570" type="curve" smooth="yes"/>
      <point x="-320" y="1402"/>
      <point x="-196" y="1294"/>
    </contour>
    <contour>
      <point x="-4" y="1422" type="curve" smooth="yes"/>
      <point x="-100" y="1424"/>
      <point x="-161" y="1483"/>
      <point x="-161" y="1570" type="curve" smooth="yes"/>
      <point x="-161" y="1675"/>
      <point x="-82" y="1707"/>
      <point x="-4" y="1707" type="curve" smooth="yes"/>
      <point x="89" y="1707"/>
      <point x="161" y="1657"/>
      <point x="161" y="1567" type="curve" smooth="yes"/>
      <point x="161" y="1462"/>
      <point x="93" y="1420"/>
    </contour>
  </outline>
</glyph>
<glyph name="hungarumlautcomb" format="2">
  <unicode hex="030B"/>
  <anchor x="0" y="1635" name="_top"/>
  <anchor x="93" y="1760" name="top"/>
  <outline>
    <contour>
      <point x="-258" y="1288" type="line"/>
      <point x="-181" y="1339"/>
      <point x="-5" y="1544"/>
      <point x="56" y="1647" type="curve"/>
      <point x="-108" y="1760" type="line"/>
      <point x="-193" y="1628"/>
      <point x="-278" y="1494"/>
      <point x="-362" y="1362" type="curve"/>
    </contour>
    <contour>
      <point x="229" y="1288" type="line"/>
      <point x="312" y="1334"/>
      <point x="495" y="1544"/>
      <point x="548" y="1640" type="curve"/>
      <point x="390" y="1753" type="line"/>
      <point x="302" y="1622"/>
      <point x="215" y="1492"/>
      <point x="127" y="1362" type="curve"/>
    </contour>
  </outline>
</glyph>
<glyph name="caroncomb" format="2">
  <unicode hex="030C"/>
  <anchor x="0" y="1660" name="_top"/>
  <anchor x="0" y="2041" name="top"/>
  <outline>
    <contour>
      <point x="-368" y="1620" type="line"/>
      <point x="-96" y="1287" type="line"/>
      <point x="100" y="1287" type="line"/>
      <point x="365" y="1618" type="line"/>
      <point x="228" y="1680" type="line"/>
      <point x="2" y="1457" type="line"/>
      <point x="-241" y="1680" type="line"/>
    </contour>
  </outline>
</glyph>
<glyph name="dblgravecomb" format="2">
  <unicode hex="030F"/>
  <anchor x="0" y="1635" name="_top"/>
  <anchor x="-112" y="1966" name="top"/>
  <outline>
    <contour>
      <point x="269" y="1288" type="curve"/>
      <point x="373" y="1362" type="line"/>
      <point x="289" y="1494"/>
      <point x="204" y="1628"/>
      <point x="119" y="1760" type="curve"/>
      <point x="-46" y="1647" type="line"/>
      <point x="14" y="1544"/>
      <point x="192" y="1339"/>
    </contour>
    <contour>
      <point x="-220" y="1288" type="curve"/>
      <point x="-118" y="1362" type="line"/>
      <point x="-205" y="1492"/>
      <point x="-293" y="1622"/>
      <point x="-379" y="1753" type="curve"/>
      <point x="-538" y="1640" type="line"/>
      <point x="-484" y="1544"/>
      <point x="-302" y="1334"/>
    </contour>
  </outline>
</glyph>
<glyph name="breveinvertedcomb" format="2">
  <unicode hex="0311"/>
  <anchor x="0" y="1660" name="_top"/>
  <anchor x="0" y="1966" name="top"/>
  <outline>
    <contour>
      <point x="0" y="1646" type="curve" smooth="yes"/>
      <point x="-223" y="1646"/>
      <point x="-352" y="1466"/>
      <point x="-338" y="1276" type="curve"/>
      <point x="-180" y="1276" type="line"/>
      <point x="-178" y="1305"/>
      <point x="-178" y="1470"/>
      <point x="2" y="1470" type="curve" smooth="yes"/>
      <point x="181" y="1470"/>
      <point x="183" y="1305"/>
      <point x="186" y="1276" type="curve"/>
      <point x="340" y="1276" type="line"/>
      <point x="354" y="1466"/>
      <point x="213" y="1646"/>
    </contour>
  </outline>
</glyph>
<glyph name="commaturnedabovecomb" format="2">
  <unicode hex="0312"/>
  <anchor x="0" y="1674" name="_top"/>
  <anchor x="0" y="1980" name="top"/>
  <outline>
    <contour>
      <point x="12" y="1260" type="curve" smooth="yes"/>
      <point x="22" y="1260" type="line" smooth="yes"/>
      <point x="52" y="1260"/>
      <point x="130" y="1274"/>
      <point x="130" y="1356" type="curve" smooth="yes"/>
      <point x="130" y="1402"/>
      <point x="108" y="1422"/>
      <point x="84" y="1438" type="curve" smooth="yes"/>
      <point x="60" y="1454"/>
      <point x="32" y="1474"/>
      <point x="32" y="1518" type="curve" smooth="yes"/>
      <point x="32" y="1586"/>
      <point x="66" y="1650"/>
      <point x="116" y="1672" type="curve"/>
      <point x="116" y="1686" type="line"/>
      <point x="50" y="1728" type="line"/>
      <point x="46" y="1728" type="line"/>
      <point x="20" y="1720"/>
      <point x="-136" y="1610"/>
      <point x="-136" y="1436" type="curve" smooth="yes"/>
      <point x="-136" y="1322"/>
      <point x="-78" y="1260"/>
    </contour>
  </outline>
</glyph>
<glyph name="horncomb" format="2">
  <unicode hex="031B"/>
  <anchor x="0" y="1114" name="_topright"/>
  <anchor x="172" y="1114" name="topright"/>
  <outline>
    <contour>
      <point x="-24" y="980" type="line"/>
      <point x="188" y="980"/>
      <point x="378" y="1132"/>
      <point x="378" y="1324" type="curve" smooth="yes"/>
      <point x="378" y="1338"/>
      <point x="376" y="1352"/>
      <point x="374" y="1368" type="curve"/>
      <point x="218" y="1368" type="line"/>
      <point x="220" y="1360"/>
      <point x="218" y="1348"/>
      <point x="216" y="1334" type="curve" smooth="yes"/>
      <point x="204" y="1252"/>
      <point x="158" y="1114"/>
      <point x="-24" y="1114" type="curve"/>
    </contour>
  </outline>
</glyph>
<glyph name="dotbelowcomb" format="2">
  <unicode hex="0323"/>
  <anchor x="-1" y="0" name="_bottom"/>
  <anchor x="0" y="-166" name="_btm"/>
  <anchor x="-1" y="-430" name="bottom"/>
  <outline>
    <contour>
      <point x="-10" y="-450" type="curve" smooth="yes"/>
      <point x="76" y="-450"/>
      <point x="154" y="-384"/>
      <point x="154" y="-292" type="curve" smooth="yes"/>
      <point x="154" y="-214"/>
      <point x="106" y="-154"/>
      <point x="10" y="-154" type="curve" smooth="yes"/>
      <point x="-72" y="-154"/>
      <point x="-156" y="-226"/>
      <point x="-156" y="-312" type="curve" smooth="yes"/>
      <point x="-156" y="-396"/>
      <point x="-88" y="-450"/>
    </contour>
  </outline>
</glyph>
<glyph name="dieresisbelowcomb" format="2">
  <unicode hex="0324"/>
  <anchor x="1" y="0" name="_bottom"/>
  <anchor x="0" y="-166" name="_btm"/>
  <anchor x="0" y="1660" name="_top"/>
  <anchor x="1" y="-404" name="bottom"/>
  <outline>
    <contour>
      <point x="-236" y="-404" type="curve" smooth="yes"/>
      <point x="-154" y="-404"/>
      <point x="-81" y="-342"/>
      <point x="-81" y="-254" type="curve" smooth="yes"/>
      <point x="-81" y="-180"/>
      <point x="-122" y="-120"/>
      <point x="-213" y="-120" type="curve" smooth="yes"/>
      <point x="-291" y="-120"/>
      <point x="-370" y="-187"/>
      <point x="-370" y="-272" type="curve" smooth="yes"/>
      <point x="-370" y="-353"/>
      <point x="-311" y="-404"/>
    </contour>
    <contour>
      <point x="216" y="-404" type="curve" smooth="yes"/>
      <point x="299" y="-404"/>
      <point x="371" y="-342"/>
      <point x="371" y="-254" type="curve" smooth="yes"/>
      <point x="371" y="-180"/>
      <point x="331" y="-120"/>
      <point x="239" y="-120" type="curve" smooth="yes"/>
      <point x="160" y="-120"/>
      <point x="82" y="-187"/>
      <point x="82" y="-272" type="curve" smooth="yes"/>
      <point x="82" y="-353"/>
      <point x="142" y="-404"/>
    </contour>
  </outline>
</glyph>
<glyph name="commaaccentcomb" format="2">
  <unicode hex="0326"/>
  <anchor x="170" y="0" name="_bottom"/>
  <anchor x="156" y="-166" name="_btm"/>
  <anchor x="170" y="-546" name="bottom"/>
  <outline>
    <contour>
      <point x="176" y="-538" type="line"/>
      <point x="232" y="-514"/>
      <point x="298" y="-410"/>
      <point x="298" y="-306" type="curve" smooth="yes"/>
      <point x="298" y="-196"/>
      <point x="248" y="-120"/>
      <point x="208" y="-100" type="curve"/>
      <point x="42" y="-182" type="line"/>
      <point x="42" y="-230" type="line"/>
      <point x="80" y="-240"/>
      <point x="106" y="-300"/>
      <point x="106" y="-362" type="curve" smooth="yes"/>
      <point x="106" y="-424"/>
      <point x="89" y="-458"/>
      <point x="69" y="-481" type="curve"/>
      <point x="69" y="-506" type="line"/>
    </contour>
  </outline>
</glyph>
<glyph name="cedillacomb" format="2">
  <unicode hex="0327"/>
  <anchor x="-84" y="0" name="_bottom"/>
  <anchor x="0" y="-166" name="_btm"/>
  <anchor x="-84" y="-454" name="bottom"/>
  <outline>
    <contour>
      <point x="-356" y="-426" type="line"/>
      <point x="-334" y="-442"/>
      <point x="-262" y="-454"/>
      <point x="-206" y="-454" type="curve" smooth="yes"/>
      <point x="-92" y="-454"/>
      <point x="30" y="-380"/>
      <point x="30" y="-212" type="curve" smooth="yes"/>
      <point x="30" y="-106"/>
      <point x="14" y="-16"/>
      <point x="-26" y="30" type="curve"/>
      <point x="-70" y="34" type="line"/>
      <point x="-160" y="30" type="line"/>
      <point x="-142" y="-8"/>
      <point x="-128" y="-64"/>
      <point x="-130" y="-150" type="curve" smooth="yes"/>
      <point x="-132" y="-256"/>
      <point x="-182" y="-296"/>
      <point x="-262" y="-296" type="curve" smooth="yes"/>
      <point x="-292" y="-296"/>
      <point x="-324" y="-294"/>
      <point x="-342" y="-284" type="curve"/>
    </contour>
  </outline>
</glyph>
<glyph name="ogonekcomb" format="2">
  <unicode hex="0328"/>
  <anchor x="372" y="0" name="_ogonek"/>
  <outline>
    <contour>
      <point x="218" y="-500" type="curve" smooth="yes"/>
      <point x="350" y="-500"/>
      <point x="438" y="-460"/>
      <point x="490" y="-428" type="curve"/>
      <point x="474" y="-308" type="line"/>
      <point x="440" y="-322"/>
      <point x="364" y="-354"/>
      <point x="296" y="-354" type="curve" smooth="yes"/>
      <point x="214" y="-354"/>
      <point x="172" y="-322"/>
      <point x="172" y="-254" type="curve" smooth="yes"/>
      <point x="172" y="-156"/>
      <point x="308" y="-42"/>
      <point x="424" y="6" type="curve"/>
      <point x="304" y="22" type="line"/>
      <point x="224" y="0" type="line"/>
      <point x="96" y="-60"/>
      <point x="-30" y="-174"/>
      <point x="-28" y="-298" type="curve" smooth="yes"/>
      <point x="-26" y="-428"/>
      <point x="94" y="-500"/>
    </contour>
  </outline>
</glyph>
<glyph name="brevebelowcomb" format="2">
  <unicode hex="032E"/>
  <anchor x="0" y="0" name="_bottom"/>
  <anchor x="0" y="-166" name="_btm"/>
  <anchor x="0" y="-464" name="bottom"/>
  <outline>
    <contour>
      <point x="0" y="-464" type="curve" smooth="yes"/>
      <point x="213" y="-464"/>
      <point x="354" y="-284"/>
      <point x="340" y="-94" type="curve"/>
      <point x="186" y="-94" type="line"/>
      <point x="183" y="-123"/>
      <point x="181" y="-288"/>
      <point x="2" y="-288" type="curve" smooth="yes"/>
      <point x="-178" y="-288"/>
      <point x="-178" y="-123"/>
      <point x="-180" y="-94" type="curve"/>
      <point x="-338" y="-94" type="line"/>
      <point x="-352" y="-284"/>
      <point x="-223" y="-464"/>
    </contour>
  </outline>
</glyph>
<glyph name="macronbelowcomb" format="2">
  <unicode hex="0331"/>
  <anchor x="0" y="0" name="_bottom"/>
  <anchor x="0" y="-166" name="_btm"/>
  <anchor x="0" y="-321" name="bottom"/>
  <outline>
    <contour>
      <point x="-272" y="-342" type="line"/>
      <point x="272" y="-342" type="line"/>
      <point x="272" y="-176" type="line"/>
      <point x="-272" y="-176" type="line"/>
    </contour>
  </outline>
</glyph>
<glyph name="slashshortcomb" format="2">
  <unicode hex="0337"/>
  <anchor x="0" y="454" name="_center"/>
  <outline>
    <contour>
      <point x="292" y="1110" type="line"/>
      <point x="-470" y="-202" type="line"/>
      <point x="-288" y="-202" type="line"/>
      <point x="470" y="1110" type="line"/>
    </contour>
  </outline>
</glyph>
<glyph name="slashlongcomb" format="2">
  <unicode hex="0338"/>
  <anchor x="0" y="702" name="_center"/>
  <outline>
    <contour>
      <point x="288" y="1606" type="line"/>
      <point x="-474" y="-202" type="line"/>
      <point x="-284" y="-202" type="line"/>
      <point x="474" y="1606" type="line"/>
    </contour>
  </outline>
</glyph>
<glyph name="pi" format="2">
  <advance width="1527"/>
  <unicode hex="03C0"/>
  <outline>
    <contour>
      <point x="109" y="891" type="curve"/>
      <point x="218" y="835" type="line"/>
      <point x="253" y="872"/>
      <point x="304" y="922"/>
      <point x="397" y="922" type="curve" smooth="yes"/>
      <point x="1140" y="920" type="line" smooth="yes"/>
      <point x="1321" y="920"/>
      <point x="1421" y="994"/>
      <point x="1431" y="1186" type="curve"/>
      <point x="1284" y="1186" type="line"/>
      <point x="1266" y="1134"/>
      <point x="1224" y="1114"/>
      <point x="1144" y="1114" type="curve" smooth="yes"/>
      <point x="431" y="1114" type="line" smooth="yes"/>
      <point x="291" y="1114"/>
      <point x="209" y="1080"/>
      <point x="157" y="1008" type="curve" smooth="yes"/>
      <point x="132" y="974"/>
      <point x="111" y="916"/>
    </contour>
    <contour>
      <point x="900" y="249" type="line"/>
      <point x="889" y="83"/>
      <point x="949" y="-24"/>
      <point x="1103" y="-24" type="curve" smooth="yes"/>
      <point x="1276" y="-24"/>
      <point x="1408" y="106"/>
      <point x="1432" y="226" type="curve"/>
      <point x="1326" y="286" type="line"/>
      <point x="1297" y="233"/>
      <point x="1234" y="154"/>
      <point x="1172" y="154" type="curve" smooth="yes"/>
      <point x="1135" y="154"/>
      <point x="1102" y="179"/>
      <point x="1106" y="263" type="curve" smooth="yes"/>
      <point x="1140" y="1058" type="line"/>
      <point x="958" y="1056" type="line"/>
    </contour>
    <contour>
      <point x="170" y="97" type="curve"/>
      <point x="308" y="-24" type="line"/>
      <point x="369" y="-11"/>
      <point x="423" y="16"/>
      <point x="461" y="50" type="curve" smooth="yes"/>
      <point x="549" y="132"/>
      <point x="605" y="196"/>
      <point x="617" y="418" type="curve" smooth="yes"/>
      <point x="651" y="1056" type="line"/>
      <point x="463" y="1056" type="line"/>
      <point x="416" y="476" type="line" smooth="yes"/>
      <point x="404" y="338"/>
      <point x="391" y="236"/>
      <point x="285" y="159" type="curve" smooth="yes"/>
      <point x="237" y="124"/>
      <point x="188" y="101"/>
    </contour>
  </outline>
</glyph>
<glyph name="dram-arm" format="2">
  <advance width="1678"/>
  <unicode hex="058F"/>
  <anchor x="684" y="-166" name="btm"/>
  <anchor x="686" y="1660" name="top"/>
  <outline>
    <contour>
      <point x="680" y="1486" type="curve" smooth="yes"/>
      <point x="284" y="1486"/>
      <point x="106" y="1250"/>
      <point x="108" y="848" type="curve" smooth="yes"/>
      <point x="108" y="730" type="line"/>
      <point x="342" y="730" type="line"/>
      <point x="340" y="802" type="line" smooth="yes"/>
      <point x="330" y="1202"/>
      <point x="466" y="1302"/>
      <point x="688" y="1302" type="curve" smooth="yes"/>
      <point x="886" y="1302"/>
      <point x="1008" y="1198"/>
      <point x="1008" y="802" type="curve" smooth="yes"/>
      <point x="1008" y="-16" type="line"/>
      <point x="1240" y="-16" type="line"/>
      <point x="1240" y="852" type="line" smooth="yes"/>
      <point x="1240" y="1260"/>
      <point x="1058" y="1486"/>
    </contour>
    <contour>
      <point x="664" y="598" type="line"/>
      <point x="1548" y="598" type="line"/>
      <point x="1548" y="746" type="line"/>
      <point x="664" y="746" type="line"/>
    </contour>
    <contour>
      <point x="634" y="232" type="line"/>
      <point x="1512" y="232" type="line"/>
      <point x="1512" y="380" type="line"/>
      <point x="634" y="380" type="line"/>
    </contour>
  </outline>
</glyph>
<glyph name="Germandbls" format="2">
  <advance width="1464"/>
  <unicode hex="1E9E"/>
  <anchor x="732" y="0" name="bottom"/>
  <anchor x="732" y="1486" name="top"/>
  <outline>
    <contour>
      <point x="102" y="0" type="line" name="hr01"/>
      <point x="345" y="0" type="line"/>
      <point x="345" y="848" type="line" smooth="yes"/>
      <point x="345" y="1175"/>
      <point x="540" y="1330"/>
      <point x="792" y="1330" type="curve" smooth="yes"/>
      <point x="875" y="1330"/>
      <point x="951" y="1309"/>
      <point x="1000" y="1273" type="curve"/>
      <point x="749" y="854" type="line"/>
      <point x="739" y="759" type="line"/>
      <point x="1053" y="759"/>
      <point x="1160" y="676"/>
      <point x="1160" y="451" type="curve" smooth="yes"/>
      <point x="1160" y="250"/>
      <point x="1021" y="157"/>
      <point x="884" y="157" type="curve" smooth="yes"/>
      <point x="781" y="157"/>
      <point x="665" y="197"/>
      <point x="619" y="241" type="curve"/>
      <point x="538" y="61" type="line"/>
      <point x="613" y="16"/>
      <point x="710" y="-22"/>
      <point x="918" y="-22" type="curve" smooth="yes"/>
      <point x="1228" y="-22"/>
      <point x="1395" y="201"/>
      <point x="1395" y="456" type="curve" smooth="yes" name="hr02"/>
      <point x="1395" y="753"/>
      <point x="1203" y="892"/>
      <point x="1007" y="892" type="curve"/>
      <point x="1260" y="1288" type="line"/>
      <point x="1262" y="1411" type="line"/>
      <point x="1162" y="1411"/>
      <point x="1050" y="1502"/>
      <point x="786" y="1502" type="curve" smooth="yes"/>
      <point x="327" y="1502"/>
      <point x="102" y="1210"/>
      <point x="102" y="736" type="curve" smooth="yes"/>
    </contour>
  </outline>
</glyph>
<glyph name="endash" format="2">
  <advance width="1544"/>
  <unicode hex="2013"/>
  <outline>
    <contour>
      <point x="180" y="562" type="line"/>
      <point x="1364" y="562" type="line"/>
      <point x="1364" y="748" type="line"/>
      <point x="180" y="748" type="line"/>
    </contour>
  </outline>
</glyph>
<glyph name="emdash" format="2">
  <advance width="2190"/>
  <unicode hex="2014"/>
  <outline>
    <contour>
      <point x="180" y="599" type="line"/>
      <point x="2010" y="599" type="line"/>
      <point x="2010" y="785" type="line"/>
      <point x="180" y="785" type="line"/>
    </contour>
  </outline>
</glyph>
<glyph name="quoteleft" format="2">
  <advance width="515"/>
  <unicode hex="2018"/>
  <outline>
    <contour>
      <point x="292" y="934" type="curve"/>
      <point x="413" y="1058" type="line"/>
      <point x="413" y="1120" type="line"/>
      <point x="363" y="1143"/>
      <point x="306" y="1231"/>
      <point x="306" y="1334" type="curve" smooth="yes"/>
      <point x="306" y="1426"/>
      <point x="341" y="1550"/>
      <point x="397" y="1599" type="curve"/>
      <point x="397" y="1629" type="line"/>
      <point x="297" y="1693" type="line"/>
      <point x="223" y="1645"/>
      <point x="95" y="1495"/>
      <point x="95" y="1287" type="curve" smooth="yes"/>
      <point x="95" y="1109"/>
      <point x="179" y="975"/>
    </contour>
  </outline>
</glyph>
